ply
format ascii 1.0
comment Created by Blender 2.81 (sub 16) - www.blender.org, source file: 'Mettaton.blend'
element vertex 100
property float x
property float y
property float z
element face 180
property list uchar uint vertex_indices
end_header
9.184354 1.509871 -3.444345
9.664091 1.734524 -2.213346
9.698792 1.803611 -2.946654
9.107939 1.357730 -1.829488
10.380785 1.562028 -2.195683
10.762625 1.130009 -3.405449
10.686211 0.977869 -1.790593
10.415485 1.631115 -2.928991
9.034466 0.767208 -3.494407
10.486656 0.252800 -1.895345
8.960579 0.620099 -1.932954
10.438848 0.680395 -3.256048
10.560545 0.399909 -3.456798
10.381815 0.566845 -2.050801
9.203875 0.850355 -2.079831
9.260906 0.963905 -3.285078
10.448263 0.719940 -3.251877
10.391231 0.606390 -2.046630
9.213289 0.889900 -2.075660
9.270321 1.003450 -3.280907
9.502259 1.635847 -2.256707
10.054922 2.092031 -2.204843
9.502333 2.092031 -2.204067
9.501484 1.491789 -2.809297
10.054073 1.635847 -2.810072
10.054073 1.491789 -2.810072
10.054849 1.491789 -2.257483
9.502259 1.491789 -2.256707
9.501557 2.092031 -2.756656
9.501484 1.635847 -2.809297
10.054148 2.092031 -2.757432
10.054849 1.635847 -2.257483
10.054548 2.414098 -2.471121
9.512898 2.918643 -2.887105
9.501959 2.414098 -2.470345
10.041676 2.731958 -3.431397
9.490957 2.703795 -3.395744
10.053773 2.414098 -3.023710
10.063618 2.946806 -2.922758
9.501184 2.414098 -3.022935
10.339485 1.470895 -2.303613
10.087497 2.141626 -2.250196
9.860275 1.746056 -2.302837
9.787870 1.621514 -2.855427
10.338812 1.471281 -2.856202
10.267079 1.346353 -2.856202
9.788543 1.621128 -2.302837
10.086823 2.142012 -2.802786
9.859604 1.746442 -2.855427
10.566033 1.866851 -2.803562
10.267752 1.345967 -2.303613
10.566706 1.866465 -2.250972
10.726754 2.145949 -2.517251
10.508267 2.853207 -2.933234
10.247545 2.421110 -2.516475
10.382257 2.677815 -3.441874
10.999880 2.603401 -2.968887
10.873869 2.428010 -3.477527
10.726082 2.146336 -3.069840
10.246872 2.421496 -3.069064
10.308245 1.437570 -2.412747
10.864441 1.381526 -2.372289
10.561190 1.687876 -2.371684
10.531206 1.052593 -2.844412
10.307819 1.438000 -2.843807
10.611071 1.131650 -2.844412
10.228380 1.358513 -2.412747
10.611496 1.131220 -2.413352
10.560762 1.688306 -2.802743
10.864016 1.381957 -2.803348
10.531633 1.052163 -2.413352
10.227954 1.358943 -2.843807
11.042787 1.558479 -2.580005
11.025251 2.135650 -2.904502
10.739533 1.864829 -2.579400
10.894100 2.029909 -3.301278
11.343090 1.845793 -2.932314
11.211941 1.740052 -3.329090
11.042360 1.558909 -3.011065
10.739108 1.865259 -3.010459
9.277843 0.972557 -2.435550
9.240147 1.613372 -2.403399
8.973732 1.223755 -2.550280
9.605955 0.892701 -2.818858
9.783531 1.361627 -2.721220
9.872370 1.282318 -2.671978
9.633095 1.282865 -2.239428
9.366680 0.893248 -2.386308
9.213007 1.223208 -2.982829
9.517118 0.972010 -2.868100
9.479420 1.612825 -2.835949
9.544258 1.362174 -2.288671
9.156836 1.790417 -2.721924
8.765289 1.686283 -3.364419
8.890421 1.400800 -2.868804
9.107803 1.552531 -3.694792
9.028561 2.090086 -3.254953
9.371075 1.956335 -3.585326
9.396110 1.789871 -3.154474
9.129696 1.400254 -3.301353
3 0 1 2
3 3 4 1
3 5 4 6
3 5 2 7
3 8 9 10
3 4 2 1
3 8 11 12
3 12 13 9
3 10 13 14
3 10 15 8
3 15 16 11
3 11 17 13
3 14 17 18
3 14 19 15
3 19 5 16
3 16 6 17
3 18 6 3
3 19 3 0
3 20 21 22
3 23 24 25
3 26 20 27
3 20 28 29
3 24 28 30
3 25 31 26
3 27 29 23
3 31 30 21
3 32 33 34
3 25 27 23
3 33 35 36
3 37 38 32
3 37 36 35
3 39 33 36
3 21 34 22
3 28 34 39
3 28 37 30
3 30 32 21
3 40 41 42
3 43 44 45
3 46 40 42
3 42 47 48
3 44 47 49
3 45 40 50
3 46 48 43
3 40 49 51
3 52 53 54
3 45 46 43
3 55 56 57
3 58 56 52
3 58 55 57
3 59 53 55
3 51 54 41
3 47 54 59
3 49 59 58
3 49 52 51
3 60 61 62
3 63 64 65
3 66 67 60
3 60 68 64
3 64 69 65
3 70 65 67
3 66 64 71
3 67 69 61
3 72 73 74
3 63 66 71
3 75 76 77
3 78 76 72
3 78 75 77
3 79 73 75
3 62 72 74
3 68 74 79
3 69 79 78
3 69 72 61
3 80 81 82
3 83 84 85
3 86 80 87
3 80 88 89
3 89 90 84
3 86 84 91
3 87 89 83
3 91 90 81
3 92 93 94
3 86 83 85
3 95 96 97
3 98 96 92
3 98 95 97
3 99 93 95
3 82 92 94
3 88 94 99
3 88 98 90
3 90 92 81
3 0 3 1
3 5 0 2
3 4 7 2
3 8 15 11
3 10 14 15
3 15 19 16
3 14 18 19
3 19 0 5
3 19 18 3
3 20 22 28
3 24 29 28
3 33 38 35
3 37 39 36
3 39 34 33
3 28 22 34
3 28 39 37
3 42 41 47
3 44 48 47
3 55 53 56
3 58 59 55
3 59 54 53
3 47 41 54
3 49 47 59
3 60 62 68
3 64 68 69
3 75 73 76
3 78 79 75
3 79 74 73
3 68 62 74
3 69 68 79
3 80 82 88
3 92 96 93
3 95 93 96
3 99 94 93
3 82 81 92
3 88 82 94
3 3 6 4
3 5 7 4
3 8 12 9
3 12 11 13
3 10 9 13
3 11 16 17
3 14 13 17
3 16 5 6
3 18 17 6
3 20 31 21
3 23 29 24
3 26 31 20
3 25 24 31
3 27 20 29
3 31 24 30
3 32 38 33
3 25 26 27
3 37 35 38
3 21 32 34
3 30 37 32
3 40 51 41
3 43 48 44
3 46 50 40
3 45 44 40
3 46 42 48
3 40 44 49
3 52 56 53
3 45 50 46
3 58 57 56
3 51 52 54
3 49 58 52
3 60 67 61
3 63 71 64
3 66 70 67
3 70 63 65
3 66 60 64
3 67 65 69
3 72 76 73
3 63 70 66
3 78 77 76
3 62 61 72
3 69 78 72
3 80 91 81
3 83 89 84
3 86 91 80
3 89 88 90
3 86 85 84
3 87 80 89
3 91 84 90
3 86 87 83
3 98 97 96
3 98 99 95
3 88 99 98
3 90 98 92
