ply
format ascii 1.0
comment Created by Blender 2.81 (sub 16) - www.blender.org, source file: 'Mettaton.blend'
element vertex 638
property float x
property float y
property float z
element face 1268
property list uchar uint vertex_indices
end_header
3.217309 -4.849682 -1.357295
3.037069 -5.037275 -1.431953
3.217309 -5.037275 -1.414201
3.217309 -3.823122 -1.782510
3.142651 -3.730712 -1.962750
3.108922 -3.823122 -1.793185
3.055097 -5.210162 -1.522587
3.217309 -5.210162 -1.506612
3.079359 -3.947485 -1.644561
3.217309 -3.947485 -1.630974
3.079359 -5.361698 -1.644561
3.217309 -5.361698 -1.630974
3.055097 -4.099021 -1.522587
3.217309 -4.099021 -1.506611
3.108922 -5.486061 -1.793185
3.217309 -5.486061 -1.782510
3.037069 -4.271908 -1.431953
3.217309 -4.271908 -1.414201
3.142651 -5.578471 -1.962750
3.217309 -5.578471 -1.955397
3.025967 -4.459501 -1.376141
3.217309 -4.459501 -1.357295
3.179249 -5.635377 -2.146739
3.217309 -5.635377 -2.142991
3.022218 -4.654592 -1.357295
3.217309 -4.654592 -1.338080
3.217309 -3.673806 -2.142990
3.217309 -3.654592 -2.338081
3.179249 -3.673806 -2.146739
3.217309 -5.654592 -2.338081
3.025967 -4.849682 -1.376141
3.217309 -3.730712 -1.955397
2.834625 -4.654592 -1.414201
2.841978 -4.849682 -1.431953
3.070862 -3.730712 -1.984527
2.863755 -5.037275 -1.484527
3.004701 -3.823122 -1.824800
2.899119 -5.210162 -1.569903
2.946711 -3.947485 -1.684799
2.946711 -5.361698 -1.684799
2.899119 -4.099021 -1.569903
3.004701 -5.486061 -1.824800
2.863755 -4.271908 -1.484527
3.070862 -5.578471 -1.984527
2.841978 -4.459501 -1.431953
3.142651 -5.635377 -2.157841
3.142651 -3.673806 -2.157840
2.908650 -5.486061 -1.876141
2.704029 -4.271908 -1.569903
3.004701 -5.578471 -2.019891
2.672414 -4.459501 -1.522587
3.108922 -5.635377 -2.175869
2.661738 -4.654592 -1.506611
3.108922 -3.673806 -2.175869
2.672414 -4.849682 -1.522587
3.004701 -3.730712 -2.019891
2.704029 -5.037275 -1.569903
2.908650 -3.823122 -1.876141
2.755369 -5.210162 -1.646739
2.824461 -3.947485 -1.750143
2.824461 -5.361698 -1.750143
2.755369 -4.099021 -1.646739
2.946711 -3.730712 -2.067482
2.564027 -5.037275 -1.684799
2.824461 -3.823122 -1.945233
2.629371 -5.210162 -1.750143
2.717309 -3.947485 -1.838081
2.717309 -5.361698 -1.838081
2.629371 -4.099021 -1.750143
2.824461 -5.486061 -1.945233
2.564027 -4.271908 -1.684799
2.946711 -5.578471 -2.067482
2.523789 -4.459501 -1.644561
3.079359 -5.635377 -2.200131
2.510202 -4.654592 -1.630974
3.079359 -3.673806 -2.200131
2.523789 -4.849682 -1.644561
2.449131 -4.271908 -1.824801
2.755369 -5.486061 -2.029422
2.899119 -5.578471 -2.125473
2.401815 -4.459501 -1.793186
3.055097 -5.635377 -2.229694
2.385839 -4.654592 -1.782510
3.055097 -3.673806 -2.229694
2.401815 -4.849682 -1.793186
2.899119 -3.730712 -2.125473
2.449131 -5.037275 -1.824800
2.755369 -3.823122 -2.029422
2.525967 -5.210162 -1.876141
2.629371 -3.947485 -1.945233
2.629371 -5.361698 -1.945233
2.525967 -4.099021 -1.876141
2.363755 -5.037275 -1.984527
2.704029 -3.823122 -2.125473
2.449131 -5.210162 -2.019891
2.564027 -3.947485 -2.067482
2.564027 -5.361698 -2.067482
2.449131 -4.099021 -2.019891
2.704029 -5.486061 -2.125473
2.363755 -4.271908 -1.984527
2.863755 -5.578471 -2.191634
2.311181 -4.459501 -1.962750
3.037069 -5.635377 -2.263423
2.293429 -4.654592 -1.955397
3.037069 -3.673806 -2.263423
2.311181 -4.849682 -1.962750
2.863755 -3.730712 -2.191634
2.841978 -5.578471 -2.263423
2.311181 -4.271908 -2.157841
2.255369 -4.459501 -2.146739
3.025967 -5.635377 -2.300020
2.236523 -4.654592 -2.142990
3.025967 -3.673806 -2.300020
2.255369 -4.849682 -2.146739
2.841978 -3.730712 -2.263423
2.311181 -5.037275 -2.157841
2.672413 -3.823122 -2.229694
2.401815 -5.210162 -2.175869
2.523789 -3.947485 -2.200131
2.523789 -5.361698 -2.200131
2.401815 -4.099021 -2.175869
2.672413 -5.486061 -2.229694
2.293429 -5.037275 -2.338081
2.385839 -5.210162 -2.338081
2.510202 -3.947485 -2.338081
2.510202 -5.361698 -2.338081
2.385839 -4.099021 -2.338081
2.661738 -5.486061 -2.338081
2.293429 -4.271908 -2.338081
2.834625 -5.578471 -2.338081
2.236524 -4.459501 -2.338081
3.022218 -5.635377 -2.338081
2.217309 -4.654592 -2.338081
3.022218 -3.673806 -2.338081
2.236524 -4.849682 -2.338081
2.834625 -3.730712 -2.338081
2.661738 -3.823122 -2.338081
2.841978 -5.578471 -2.412739
3.025967 -5.635377 -2.376141
2.236523 -4.654592 -2.533171
3.025967 -3.673806 -2.376141
2.255369 -4.849682 -2.529423
2.841978 -3.730712 -2.412739
2.311181 -5.037275 -2.518321
2.672413 -3.823122 -2.446467
2.401815 -5.210162 -2.500293
2.523789 -3.947485 -2.476030
2.523789 -5.361698 -2.476030
2.401815 -4.099021 -2.500293
2.672414 -5.486061 -2.446467
2.311181 -4.271908 -2.518321
2.255369 -4.459501 -2.529423
2.564027 -3.947485 -2.608679
2.564027 -5.361698 -2.608679
2.449131 -4.099021 -2.656271
2.704029 -5.486061 -2.550688
2.363755 -4.271908 -2.691634
2.863755 -5.578471 -2.484527
2.311182 -4.459501 -2.713411
3.037069 -5.635377 -2.412739
2.293429 -4.654592 -2.720764
3.037069 -3.673806 -2.412739
2.311182 -4.849682 -2.713411
2.863755 -3.730712 -2.484527
2.363755 -5.037275 -2.691634
2.704029 -3.823122 -2.550688
2.449131 -5.210162 -2.656271
2.385839 -4.654592 -2.893651
3.055097 -3.673806 -2.446467
3.055097 -5.635377 -2.446467
2.401816 -4.849682 -2.882976
2.899119 -3.730712 -2.550688
2.449131 -5.037275 -2.851361
2.755369 -3.823122 -2.646739
2.525967 -5.210162 -2.800021
2.629371 -3.947485 -2.730928
2.629371 -5.361698 -2.730928
2.525967 -4.099021 -2.800021
2.755369 -5.486061 -2.646739
2.449131 -4.271908 -2.851361
2.899119 -5.578471 -2.550688
2.401816 -4.459501 -2.882976
2.717309 -5.361698 -2.838081
2.629371 -4.099021 -2.926019
2.824461 -5.486061 -2.730928
2.564027 -4.271908 -2.991362
2.946711 -5.578471 -2.608679
2.523789 -4.459501 -3.031600
3.079359 -5.635377 -2.476030
2.510202 -4.654592 -3.045188
3.079359 -3.673806 -2.476031
2.523789 -4.849682 -3.031600
2.946711 -3.730712 -2.608679
2.564027 -5.037275 -2.991362
2.824461 -3.823122 -2.730928
2.629371 -5.210162 -2.926019
2.717309 -3.947485 -2.838081
3.108922 -3.673806 -2.500293
3.108922 -5.635377 -2.500292
2.661738 -4.654592 -3.169550
2.672414 -4.849682 -3.153574
3.004701 -3.730712 -2.656271
2.704029 -5.037275 -3.106258
2.908650 -3.823122 -2.800021
2.755369 -5.210162 -3.029423
2.824461 -3.947485 -2.926019
2.824461 -5.361698 -2.926019
2.755369 -4.099021 -3.029423
2.908650 -5.486061 -2.800020
2.704029 -4.271908 -3.106258
3.004701 -5.578471 -2.656271
2.672414 -4.459501 -3.153574
2.899119 -4.099021 -3.106258
2.946711 -5.361698 -2.991362
3.004701 -5.486061 -2.851361
2.863755 -4.271908 -3.191634
3.070862 -5.578471 -2.691634
2.841979 -4.459501 -3.244208
3.142651 -5.635377 -2.518321
2.834625 -4.654592 -3.261961
3.142651 -3.673806 -2.518321
2.841979 -4.849682 -3.244208
3.070862 -3.730712 -2.691634
2.863755 -5.037275 -3.191634
3.004701 -3.823122 -2.851361
2.899119 -5.210162 -3.106258
2.946711 -3.947485 -2.991362
3.025967 -4.849682 -3.300020
3.142651 -3.730712 -2.713411
3.037069 -5.037275 -3.244208
3.108922 -3.823122 -2.882976
3.055097 -5.210162 -3.153574
3.079359 -3.947485 -3.031601
3.079359 -5.361698 -3.031601
3.055097 -4.099021 -3.153574
3.108922 -5.486061 -2.882976
3.037069 -4.271908 -3.244208
3.142651 -5.578471 -2.713411
3.025967 -4.459501 -3.300020
3.179249 -5.635377 -2.529423
3.022218 -4.654592 -3.318866
3.179249 -3.673806 -2.529423
3.217309 -5.361698 -3.045187
3.217309 -5.486061 -2.893651
3.217309 -4.271908 -3.261960
3.217309 -5.578471 -2.720764
3.217309 -4.459501 -3.318866
3.217309 -5.635377 -2.533171
3.217309 -4.654592 -3.338081
3.217309 -3.673806 -2.533171
3.217309 -4.849682 -3.318866
3.217309 -3.730712 -2.720764
3.217309 -5.037275 -3.261960
3.217309 -3.823122 -2.893651
3.217309 -5.210162 -3.169550
3.217309 -3.947485 -3.045187
3.217309 -4.099021 -3.169550
3.397549 -5.037275 -3.244208
3.325695 -3.823122 -2.882976
3.379520 -5.210162 -3.153574
3.355258 -3.947485 -3.031600
3.355258 -5.361698 -3.031600
3.379520 -4.099021 -3.153574
3.325695 -5.486061 -2.882976
3.397549 -4.271908 -3.244208
3.291967 -5.578471 -2.713411
3.408650 -4.459501 -3.300020
3.255369 -5.635377 -2.529423
3.412399 -4.654592 -3.318866
3.255369 -3.673806 -2.529423
3.408650 -4.849682 -3.300020
3.291967 -3.730712 -2.713411
3.429916 -5.486061 -2.851361
3.363755 -5.578471 -2.691634
3.570862 -4.271908 -3.191634
3.592639 -4.459501 -3.244208
3.291967 -5.635377 -2.518321
3.599992 -4.654592 -3.261960
3.291967 -3.673806 -2.518321
3.592639 -4.849682 -3.244208
3.363755 -3.730712 -2.691634
3.570862 -5.037275 -3.191634
3.429916 -3.823122 -2.851361
3.535498 -5.210162 -3.106258
3.487907 -3.947485 -2.991362
3.487907 -5.361698 -2.991362
3.535498 -4.099021 -3.106258
3.525967 -3.823122 -2.800021
3.730589 -5.037275 -3.106258
3.679248 -5.210162 -3.029422
3.610156 -3.947485 -2.926018
3.610156 -5.361698 -2.926018
3.679248 -4.099021 -3.029422
3.525967 -5.486061 -2.800020
3.730589 -4.271908 -3.106258
3.429916 -5.578471 -2.656270
3.762204 -4.459501 -3.153574
3.325695 -5.635377 -2.500292
3.772879 -4.654592 -3.169550
3.325695 -3.673806 -2.500293
3.762204 -4.849682 -3.153574
3.429916 -3.730712 -2.656271
3.870590 -4.271908 -2.991362
3.910829 -4.459501 -3.031600
3.355258 -5.635377 -2.476030
3.924416 -4.654592 -3.045187
3.355258 -3.673806 -2.476031
3.910829 -4.849682 -3.031600
3.487907 -3.730712 -2.608679
3.870590 -5.037275 -2.991362
3.610156 -3.823122 -2.730928
3.805246 -5.210162 -2.926018
3.717309 -3.947485 -2.838081
3.717309 -5.361698 -2.838081
3.805246 -4.099021 -2.926018
3.610156 -5.486061 -2.730928
3.487907 -5.578471 -2.608679
3.985487 -5.037275 -2.851361
3.908650 -5.210162 -2.800020
3.679249 -3.823122 -2.646739
3.805247 -3.947485 -2.730928
3.805247 -5.361698 -2.730928
3.908650 -4.099021 -2.800020
3.679248 -5.486061 -2.646739
3.985487 -4.271908 -2.851361
3.535498 -5.578471 -2.550688
4.032802 -4.459501 -2.882976
3.379520 -5.635377 -2.446467
4.048779 -4.654592 -2.893651
3.379521 -3.673806 -2.446467
4.032802 -4.849682 -2.882976
3.535498 -3.730712 -2.550688
3.570862 -5.578471 -2.484527
3.397549 -5.635377 -2.412739
4.141188 -4.654592 -2.720764
3.397549 -3.673806 -2.412739
4.123436 -4.849682 -2.713411
3.570862 -3.730712 -2.484527
4.070862 -5.037275 -2.691634
3.730589 -3.823122 -2.550688
3.985486 -5.210162 -2.656270
3.870590 -3.947485 -2.608679
3.870590 -5.361698 -2.608679
3.985486 -4.099021 -2.656270
3.730589 -5.486061 -2.550688
4.070862 -4.271908 -2.691634
4.123436 -4.459501 -2.713411
3.762204 -3.823122 -2.446467
3.910829 -3.947485 -2.476030
3.910829 -5.361698 -2.476030
4.032802 -4.099021 -2.500292
3.762204 -5.486061 -2.446467
4.123436 -4.271908 -2.518321
3.592639 -5.578471 -2.412739
4.179248 -4.459501 -2.529422
3.408650 -5.635377 -2.376141
4.198094 -4.654592 -2.533171
3.408651 -3.673806 -2.376141
4.179248 -4.849682 -2.529422
3.592639 -3.730712 -2.412739
4.123436 -5.037275 -2.518321
4.032802 -5.210162 -2.500292
4.217309 -4.654592 -2.338081
3.412399 -3.673806 -2.338081
3.412399 -5.635377 -2.338081
4.198093 -4.849682 -2.338080
3.599992 -3.730712 -2.338081
4.141188 -5.037275 -2.338081
3.772879 -3.823122 -2.338081
4.048778 -5.210162 -2.338081
3.924416 -3.947485 -2.338081
3.924416 -5.361698 -2.338081
4.048778 -4.099021 -2.338081
3.772879 -5.486061 -2.338081
4.141188 -4.271908 -2.338081
3.599992 -5.578471 -2.338081
4.198093 -4.459501 -2.338080
3.910829 -5.361698 -2.200131
3.910829 -3.947485 -2.200131
4.032802 -4.099021 -2.175869
3.762204 -5.486061 -2.229694
4.123436 -4.271908 -2.157841
3.592639 -5.578471 -2.263423
4.179248 -4.459501 -2.146739
3.408650 -5.635377 -2.300020
4.198094 -4.654592 -2.142990
3.408651 -3.673806 -2.300020
4.179248 -4.849682 -2.146739
3.592639 -3.730712 -2.263423
4.123436 -5.037275 -2.157841
3.762204 -3.823122 -2.229694
4.032802 -5.210162 -2.175869
3.397549 -5.635377 -2.263423
4.123435 -4.849682 -1.962750
3.570862 -3.730712 -2.191634
4.070862 -5.037275 -1.984527
3.730589 -3.823122 -2.125473
3.985486 -5.210162 -2.019891
3.870590 -3.947485 -2.067482
3.870590 -5.361698 -2.067482
3.985486 -4.099021 -2.019891
3.730588 -5.486061 -2.125473
4.070862 -4.271908 -1.984527
3.570862 -5.578471 -2.191634
4.123435 -4.459501 -1.962750
4.141188 -4.654592 -1.955397
3.397549 -3.673806 -2.263423
3.679248 -5.486061 -2.029423
3.985487 -4.271908 -1.824801
3.535498 -5.578471 -2.125473
4.032801 -4.459501 -1.793186
3.379520 -5.635377 -2.229694
4.048778 -4.654592 -1.782511
3.379520 -3.673806 -2.229694
4.032801 -4.849682 -1.793186
3.535498 -3.730712 -2.125473
3.985487 -5.037275 -1.824801
3.679248 -3.823122 -2.029423
3.908650 -5.210162 -1.876141
3.805246 -3.947485 -1.945233
3.805246 -5.361698 -1.945233
3.908650 -4.099021 -1.876141
3.487907 -3.730712 -2.067483
3.870590 -5.037275 -1.684799
3.610156 -3.823122 -1.945233
3.805246 -5.210162 -1.750143
3.717309 -3.947485 -1.838081
3.717309 -5.361698 -1.838081
3.805246 -4.099021 -1.750143
3.610156 -5.486061 -1.945233
3.870590 -4.271908 -1.684799
3.487907 -5.578471 -2.067483
3.910828 -4.459501 -1.644561
3.355258 -5.635377 -2.200131
3.924415 -4.654592 -1.630974
3.355258 -3.673806 -2.200131
3.910828 -4.849682 -1.644561
3.730589 -4.271908 -1.569903
3.429916 -5.578471 -2.019891
3.762203 -4.459501 -1.522588
3.325695 -5.635377 -2.175869
3.772879 -4.654592 -1.506611
3.325695 -3.673806 -2.175869
3.762203 -4.849682 -1.522588
3.429916 -3.730712 -2.019891
3.730589 -5.037275 -1.569903
3.525967 -3.823122 -1.876141
3.679248 -5.210162 -1.646739
3.610156 -3.947485 -1.750143
3.610156 -5.361698 -1.750143
3.679248 -4.099021 -1.646739
3.525967 -5.486061 -1.876141
3.570862 -5.037275 -1.484527
3.363755 -3.730712 -1.984527
3.429916 -3.823122 -1.824801
3.535498 -5.210162 -1.569903
3.487907 -3.947485 -1.684799
3.487907 -5.361698 -1.684799
3.535498 -4.099021 -1.569903
3.429916 -5.486061 -1.824801
3.570862 -4.271908 -1.484527
3.363755 -5.578471 -1.984527
3.592638 -4.459501 -1.431954
3.291966 -5.635377 -2.157841
3.599992 -4.654592 -1.414201
3.291967 -3.673806 -2.157841
3.592638 -4.849682 -1.431954
3.291966 -5.578471 -1.962751
3.397549 -4.271908 -1.431953
3.408650 -4.459501 -1.376142
3.255369 -5.635377 -2.146739
3.412399 -4.654592 -1.357296
3.255369 -3.673806 -2.146739
3.408650 -4.849682 -1.376142
3.291966 -3.730712 -1.962751
3.397549 -5.037275 -1.431953
3.325695 -3.823122 -1.793186
3.379520 -5.210162 -1.522588
3.355258 -3.947485 -1.644561
3.355258 -5.361698 -1.644561
3.379520 -4.099021 -1.522588
3.325695 -5.486061 -1.793186
4.096200 -3.751548 -1.458641
4.153925 -3.387218 -1.404913
4.060642 -3.800401 -1.333298
2.688814 -4.510631 -0.753198
2.692602 -4.347445 -0.719710
2.688814 -4.304188 -0.753198
2.465501 -3.897315 -3.316048
2.395659 -3.535296 -3.347198
2.517740 -3.959435 -3.436880
3.705590 -4.506605 -3.953504
3.700265 -4.375101 -3.984626
3.705751 -4.338291 -3.953488
4.028587 -3.897315 -3.316048
3.980223 -3.959435 -3.436880
4.137280 -3.458028 -3.223341
2.353648 -3.458028 -3.223341
2.800566 -4.375101 -3.984626
3.700265 -4.540464 -3.984626
2.800566 -4.540464 -3.984626
2.795241 -4.506605 -3.953504
2.795080 -4.338291 -3.953488
3.808230 -4.347445 -0.719710
2.692602 -4.552496 -0.719710
3.808230 -4.552496 -0.719710
3.812017 -4.510631 -0.753198
3.812018 -4.304188 -0.753198
2.341801 -3.387218 -1.404913
4.178645 -3.330454 -1.532297
2.311821 -3.330454 -1.532297
4.201054 -3.268289 -1.665071
2.282873 -3.268289 -1.665071
4.218532 -3.207294 -1.799109
2.258138 -3.207294 -1.799109
4.229051 -3.154121 -1.929538
2.240333 -3.154121 -1.929538
4.231361 -3.114967 -2.051354
2.231465 -3.114967 -2.051354
4.228793 -3.089843 -2.165553
2.228793 -3.089843 -2.165553
4.227021 -3.074874 -2.278366
2.227021 -3.074874 -2.278366
4.226369 -3.073261 -2.389433
2.226369 -3.073261 -2.389433
2.227021 -3.087183 -2.498470
4.227021 -3.087183 -2.498469
2.228793 -3.114460 -2.605761
4.228793 -3.114460 -2.605761
2.234306 -3.155533 -2.715350
4.228625 -3.155533 -2.715349
2.251120 -3.216520 -2.835805
4.218599 -3.216520 -2.835805
2.278245 -3.291886 -2.963607
4.198915 -3.291886 -2.963607
2.313393 -3.374715 -3.094235
4.171067 -3.374715 -3.094235
2.436365 -3.800401 -1.333298
2.396416 -3.751549 -1.458641
4.131245 -3.695619 -1.593400
2.355711 -3.695619 -1.593400
4.163332 -3.637291 -1.734376
2.317146 -3.637291 -1.734376
4.190390 -3.581765 -1.877452
2.283377 -3.581765 -1.877452
4.210879 -3.534451 -2.018006
2.256641 -3.534451 -2.018006
4.223902 -3.500488 -2.151435
2.238569 -3.500488 -2.151435
4.229247 -3.484130 -2.273710
2.230051 -3.484130 -2.273710
4.229201 -3.486100 -2.385077
2.234284 -3.505508 -2.500621
4.225582 -3.505508 -2.500621
2.251344 -3.546461 -2.628632
4.212337 -3.546461 -2.628632
2.279521 -3.604705 -2.765294
4.189719 -3.604705 -2.765294
2.317278 -3.674685 -2.906435
4.158504 -3.674685 -2.906435
2.362540 -3.750454 -3.047826
4.119999 -3.750454 -3.047826
2.412842 -3.826321 -3.185496
4.075980 -3.826321 -3.185496
2.229201 -3.486100 -2.385077
4.100370 -3.535296 -3.347198
4.108680 -3.540986 -1.301468
4.011936 -3.928628 -1.235029
4.066072 -3.666712 -1.215138
3.971202 -4.025848 -1.157003
4.023532 -3.779004 -1.135736
3.934216 -4.108021 -1.087651
3.982416 -3.878425 -1.063554
3.901015 -4.181140 -1.025317
3.942821 -3.969490 -0.997629
3.872623 -4.246923 -0.969452
3.905985 -4.052000 -0.938035
3.850296 -4.306320 -0.919489
3.873198 -4.126004 -0.884548
3.835242 -4.360729 -0.874502
3.845748 -4.191999 -0.836592
3.828502 -4.411975 -0.833206
3.824925 -4.250930 -0.793235
3.824925 -4.462117 -0.793235
2.389809 -3.540986 -1.301467
2.434032 -3.666712 -1.215138
2.477275 -3.779004 -1.135736
2.518415 -3.878425 -1.063554
2.558011 -3.969490 -0.997629
2.594846 -4.052000 -0.938035
2.627634 -4.126004 -0.884548
2.655083 -4.191999 -0.836592
2.675906 -4.250930 -0.793235
2.487590 -3.928628 -1.235029
2.529459 -4.025848 -1.157003
2.566616 -4.108021 -1.087651
2.599816 -4.181140 -1.025317
2.628209 -4.246923 -0.969452
2.650536 -4.306320 -0.919489
2.665590 -4.360729 -0.874502
2.672329 -4.411975 -0.833206
2.675906 -4.462117 -0.793235
2.447021 -3.665641 -3.437845
2.567386 -4.054925 -3.518719
2.499106 -3.784023 -3.523013
2.613173 -4.135419 -3.592585
2.549654 -3.888021 -3.601287
2.654311 -4.202346 -3.658559
2.597561 -3.978462 -3.672109
2.691062 -4.260906 -3.716907
2.643358 -4.059817 -3.735546
2.722342 -4.312334 -3.767985
2.685796 -4.132032 -3.791569
2.746913 -4.357639 -3.812492
2.723530 -4.195230 -3.840502
2.763603 -4.398218 -3.851484
2.755218 -4.249958 -3.883034
2.771417 -4.435836 -3.886372
2.779516 -4.297181 -3.920221
2.780121 -4.472231 -3.920314
4.051475 -3.665641 -3.437845
4.000998 -3.784023 -3.523013
3.951148 -3.888021 -3.601287
3.903270 -3.978462 -3.672109
3.857473 -4.059817 -3.735546
3.815036 -4.132032 -3.791569
3.777301 -4.195230 -3.840502
3.745613 -4.249958 -3.883034
3.721316 -4.297181 -3.920221
3.932454 -4.054925 -3.518719
3.887567 -4.135419 -3.592585
3.846520 -4.202346 -3.658559
3.809769 -4.260906 -3.716907
3.778489 -4.312334 -3.767985
3.753918 -4.357639 -3.812492
3.737228 -4.398218 -3.851484
3.729414 -4.435836 -3.886372
3.720711 -4.472231 -3.920314
3 0 1 2
3 3 4 5
3 2 6 7
3 3 8 9
3 7 10 11
3 9 12 13
3 11 14 15
3 13 16 17
3 15 18 19
3 17 20 21
3 19 22 23
3 21 24 25
3 26 27 28
3 29 23 22
3 25 30 0
3 26 4 31
3 30 32 33
3 28 34 4
3 1 33 35
3 4 36 5
3 1 37 6
3 5 38 8
3 10 37 39
3 8 40 12
3 10 41 14
3 12 42 16
3 14 43 18
3 16 44 20
3 18 45 22
3 20 32 24
3 28 27 46
3 29 22 45
3 39 47 41
3 40 48 42
3 41 49 43
3 44 48 50
3 43 51 45
3 44 52 32
3 46 27 53
3 29 45 51
3 32 54 33
3 46 55 34
3 33 56 35
3 34 57 36
3 37 56 58
3 36 59 38
3 39 58 60
3 38 61 40
3 53 62 55
3 54 63 56
3 55 64 57
3 58 63 65
3 57 66 59
3 58 67 60
3 59 68 61
3 60 69 47
3 61 70 48
3 47 71 49
3 48 72 50
3 49 73 51
3 52 72 74
3 53 27 75
3 29 51 73
3 52 76 54
3 68 77 70
3 71 78 79
3 70 80 72
3 71 81 73
3 74 80 82
3 75 27 83
3 29 73 81
3 74 84 76
3 75 85 62
3 76 86 63
3 62 87 64
3 65 86 88
3 64 89 66
3 65 90 67
3 68 89 91
3 69 90 78
3 84 92 86
3 85 93 87
3 88 92 94
3 87 95 89
3 90 94 96
3 91 95 97
3 90 98 78
3 91 99 77
3 79 98 100
3 80 99 101
3 79 102 81
3 80 103 82
3 83 27 104
3 29 81 102
3 82 105 84
3 83 106 85
3 98 107 100
3 101 108 109
3 102 107 110
3 101 111 103
3 104 27 112
3 29 102 110
3 103 113 105
3 104 114 106
3 105 115 92
3 106 116 93
3 94 115 117
3 95 116 118
3 96 117 119
3 95 120 97
3 96 121 98
3 97 108 99
3 117 122 123
3 116 124 118
3 117 125 119
3 118 126 120
3 121 125 127
3 120 128 108
3 107 127 129
3 109 128 130
3 110 129 131
3 109 132 111
3 112 27 133
3 29 110 131
3 113 132 134
3 112 135 114
3 113 122 115
3 114 136 116
3 131 137 138
3 130 139 132
3 133 27 140
3 29 131 138
3 132 141 134
3 135 140 142
3 134 143 122
3 135 144 136
3 123 143 145
3 136 146 124
3 123 147 125
3 126 146 148
3 127 147 149
3 126 150 128
3 127 137 129
3 130 150 151
3 144 152 146
3 145 153 147
3 146 154 148
3 147 155 149
3 148 156 150
3 137 155 157
3 151 156 158
3 137 159 138
3 151 160 139
3 140 27 161
3 29 138 159
3 139 162 141
3 140 163 142
3 141 164 143
3 144 163 165
3 145 164 166
3 158 167 160
3 161 27 168
3 29 159 169
3 162 167 170
3 161 171 163
3 162 172 164
3 163 173 165
3 166 172 174
3 165 175 152
3 166 176 153
3 154 175 177
3 155 176 178
3 154 179 156
3 155 180 157
3 158 179 181
3 157 169 159
3 174 182 176
3 175 183 177
3 178 182 184
3 177 185 179
3 178 186 180
3 181 185 187
3 169 186 188
3 181 189 167
3 168 27 190
3 29 169 188
3 167 191 170
3 168 192 171
3 170 193 172
3 171 194 173
3 172 195 174
3 173 196 175
3 190 27 197
3 29 188 198
3 191 199 200
3 190 201 192
3 191 202 193
3 192 203 194
3 195 202 204
3 196 203 205
3 195 206 182
3 183 205 207
3 184 206 208
3 183 209 185
3 184 210 186
3 187 209 211
3 188 210 198
3 187 199 189
3 205 212 207
3 208 213 214
3 207 215 209
3 208 216 210
3 211 215 217
3 210 218 198
3 211 219 199
3 197 27 220
3 29 198 218
3 199 221 200
3 197 222 201
3 200 223 202
3 203 222 224
3 204 223 225
3 203 226 205
3 204 213 206
3 219 227 221
3 220 228 222
3 221 229 223
3 222 230 224
3 225 229 231
3 224 232 226
3 225 233 213
3 226 234 212
3 213 235 214
3 212 236 215
3 214 237 216
3 217 236 238
3 218 237 239
3 217 240 219
3 220 27 241
3 29 218 239
3 235 242 243
3 234 244 236
3 235 245 237
3 238 244 246
3 239 245 247
3 238 248 240
3 241 27 249
3 29 239 247
3 240 250 227
3 241 251 228
3 227 252 229
3 230 251 253
3 231 252 254
3 232 253 255
3 231 242 233
3 232 256 234
3 250 257 252
3 251 258 253
3 254 257 259
3 255 258 260
3 254 261 242
3 256 260 262
3 242 263 243
3 256 264 244
3 243 265 245
3 246 264 266
3 245 267 247
3 246 268 248
3 249 27 269
3 29 247 267
3 248 270 250
3 249 271 251
3 265 272 273
3 266 274 275
3 267 273 276
3 266 277 268
3 269 27 278
3 29 267 276
3 270 277 279
3 269 280 271
3 270 281 257
3 271 282 258
3 259 281 283
3 260 282 284
3 259 285 261
3 262 284 286
3 261 272 263
3 262 274 264
3 280 287 282
3 283 288 289
3 282 290 284
3 283 291 285
3 286 290 292
3 272 291 293
3 286 294 274
3 272 295 273
3 275 294 296
3 276 295 297
3 275 298 277
3 278 27 299
3 29 276 297
3 277 300 279
3 278 301 280
3 279 288 281
3 296 302 303
3 295 304 297
3 298 303 305
3 299 27 306
3 29 297 304
3 298 307 300
3 299 308 301
3 300 309 288
3 301 310 287
3 289 309 311
3 290 310 312
3 289 313 291
3 292 312 314
3 291 315 293
3 292 302 294
3 293 316 295
3 311 317 318
3 312 319 320
3 311 321 313
3 314 320 322
3 313 323 315
3 314 324 302
3 316 323 325
3 303 324 326
3 316 327 304
3 303 328 305
3 306 27 329
3 29 304 327
3 305 330 307
3 306 331 308
3 307 317 309
3 308 319 310
3 327 332 333
3 326 334 328
3 329 27 335
3 29 327 333
3 328 336 330
3 329 337 331
3 330 338 317
3 331 339 319
3 318 338 340
3 320 339 341
3 321 340 342
3 322 341 343
3 321 344 323
3 322 345 324
3 325 344 332
3 326 345 346
3 341 347 348
3 340 349 342
3 343 348 350
3 342 351 344
3 343 352 345
3 332 351 353
3 346 352 354
3 332 355 333
3 346 356 334
3 335 27 357
3 29 333 355
3 334 358 336
3 337 357 359
3 336 360 338
3 337 347 339
3 340 360 361
3 354 362 356
3 357 27 363
3 29 355 364
3 358 362 365
3 359 363 366
3 358 367 360
3 359 368 347
3 361 367 369
3 348 368 370
3 361 371 349
3 348 372 350
3 351 371 373
3 350 374 352
3 353 373 375
3 354 374 376
3 353 364 355
3 369 377 371
3 372 378 379
3 371 380 373
3 372 381 374
3 375 380 382
3 376 381 383
3 375 384 364
3 376 385 362
3 363 27 386
3 29 364 384
3 365 385 387
3 366 386 388
3 365 389 367
3 366 390 368
3 369 389 391
3 370 390 378
3 29 384 392
3 385 393 387
3 386 394 388
3 387 395 389
3 388 396 390
3 391 395 397
3 378 396 398
3 391 399 377
3 378 400 379
3 377 401 380
3 379 402 381
3 382 401 403
3 383 402 404
3 382 392 384
3 383 405 385
3 386 27 406
3 399 407 401
3 400 408 402
3 403 407 409
3 404 408 410
3 403 411 392
3 404 412 405
3 406 27 413
3 29 392 411
3 393 412 414
3 406 415 394
3 393 416 395
3 396 415 417
3 397 416 418
3 398 417 419
3 397 420 399
3 400 419 421
3 413 422 415
3 414 423 416
3 415 424 417
3 418 423 425
3 417 426 419
3 418 427 420
3 421 426 428
3 420 429 407
3 421 430 408
3 407 431 409
3 410 430 432
3 409 433 411
3 410 434 412
3 413 27 435
3 29 411 433
3 414 434 436
3 428 437 430
3 429 438 431
3 432 437 439
3 431 440 433
3 434 439 441
3 435 27 442
3 29 433 440
3 434 443 436
3 435 444 422
3 436 445 423
3 422 446 424
3 425 445 447
3 424 448 426
3 425 449 427
3 428 448 450
3 429 449 451
3 443 452 445
3 446 453 454
3 447 452 455
3 448 454 456
3 447 457 449
3 450 456 458
3 449 459 451
3 450 460 437
3 451 461 438
3 439 460 462
3 438 463 440
3 439 464 441
3 442 27 465
3 29 440 463
3 441 466 443
3 444 465 453
3 459 467 461
3 462 468 469
3 463 467 470
3 462 471 464
3 465 27 472
3 29 463 470
3 464 473 466
3 465 474 453
3 466 475 452
3 453 476 454
3 455 475 477
3 454 478 456
3 455 479 457
3 458 478 480
3 457 481 459
3 458 468 460
3 476 31 3
3 477 2 7
3 478 3 9
3 477 11 479
3 480 9 13
3 479 15 481
3 468 13 17
3 481 19 467
3 469 17 21
3 467 23 470
3 471 21 25
3 472 27 26
3 29 470 23
3 471 0 473
3 474 26 31
3 473 2 475
3 0 30 1
3 3 31 4
3 2 1 6
3 3 5 8
3 7 6 10
3 9 8 12
3 11 10 14
3 13 12 16
3 15 14 18
3 17 16 20
3 19 18 22
3 21 20 24
3 25 24 30
3 26 28 4
3 30 24 32
3 28 46 34
3 1 30 33
3 4 34 36
3 1 35 37
3 5 36 38
3 10 6 37
3 8 38 40
3 10 39 41
3 12 40 42
3 14 41 43
3 16 42 44
3 18 43 45
3 20 44 32
3 39 60 47
3 40 61 48
3 41 47 49
3 44 42 48
3 43 49 51
3 44 50 52
3 32 52 54
3 46 53 55
3 33 54 56
3 34 55 57
3 37 35 56
3 36 57 59
3 39 37 58
3 38 59 61
3 53 75 62
3 54 76 63
3 55 62 64
3 58 56 63
3 57 64 66
3 58 65 67
3 59 66 68
3 60 67 69
3 61 68 70
3 47 69 71
3 48 70 72
3 49 71 73
3 52 50 72
3 52 74 76
3 68 91 77
3 71 69 78
3 70 77 80
3 71 79 81
3 74 72 80
3 74 82 84
3 75 83 85
3 76 84 86
3 62 85 87
3 65 63 86
3 64 87 89
3 65 88 90
3 68 66 89
3 69 67 90
3 84 105 92
3 85 106 93
3 88 86 92
3 87 93 95
3 90 88 94
3 91 89 95
3 90 96 98
3 91 97 99
3 79 78 98
3 80 77 99
3 79 100 102
3 80 101 103
3 82 103 105
3 83 104 106
3 98 121 107
3 101 99 108
3 102 100 107
3 101 109 111
3 103 111 113
3 104 112 114
3 105 113 115
3 106 114 116
3 94 92 115
3 95 93 116
3 96 94 117
3 95 118 120
3 96 119 121
3 97 120 108
3 117 115 122
3 116 136 124
3 117 123 125
3 118 124 126
3 121 119 125
3 120 126 128
3 107 121 127
3 109 108 128
3 110 107 129
3 109 130 132
3 113 111 132
3 112 133 135
3 113 134 122
3 114 135 136
3 131 129 137
3 130 151 139
3 132 139 141
3 135 133 140
3 134 141 143
3 135 142 144
3 123 122 143
3 136 144 146
3 123 145 147
3 126 124 146
3 127 125 147
3 126 148 150
3 127 149 137
3 130 128 150
3 144 165 152
3 145 166 153
3 146 152 154
3 147 153 155
3 148 154 156
3 137 149 155
3 151 150 156
3 137 157 159
3 151 158 160
3 139 160 162
3 140 161 163
3 141 162 164
3 144 142 163
3 145 143 164
3 158 181 167
3 162 160 167
3 161 168 171
3 162 170 172
3 163 171 173
3 166 164 172
3 165 173 175
3 166 174 176
3 154 152 175
3 155 153 176
3 154 177 179
3 155 178 180
3 158 156 179
3 157 180 169
3 174 195 182
3 175 196 183
3 178 176 182
3 177 183 185
3 178 184 186
3 181 179 185
3 169 180 186
3 181 187 189
3 167 189 191
3 168 190 192
3 170 191 193
3 171 192 194
3 172 193 195
3 173 194 196
3 191 189 199
3 190 197 201
3 191 200 202
3 192 201 203
3 195 193 202
3 196 194 203
3 195 204 206
3 183 196 205
3 184 182 206
3 183 207 209
3 184 208 210
3 187 185 209
3 188 186 210
3 187 211 199
3 205 226 212
3 208 206 213
3 207 212 215
3 208 214 216
3 211 209 215
3 210 216 218
3 211 217 219
3 199 219 221
3 197 220 222
3 200 221 223
3 203 201 222
3 204 202 223
3 203 224 226
3 204 225 213
3 219 240 227
3 220 241 228
3 221 227 229
3 222 228 230
3 225 223 229
3 224 230 232
3 225 231 233
3 226 232 234
3 213 233 235
3 212 234 236
3 214 235 237
3 217 215 236
3 218 216 237
3 217 238 240
3 235 233 242
3 234 256 244
3 235 243 245
3 238 236 244
3 239 237 245
3 238 246 248
3 240 248 250
3 241 249 251
3 227 250 252
3 230 228 251
3 231 229 252
3 232 230 253
3 231 254 242
3 232 255 256
3 250 270 257
3 251 271 258
3 254 252 257
3 255 253 258
3 254 259 261
3 256 255 260
3 242 261 263
3 256 262 264
3 243 263 265
3 246 244 264
3 245 265 267
3 246 266 268
3 248 268 270
3 249 269 271
3 265 263 272
3 266 264 274
3 267 265 273
3 266 275 277
3 270 268 277
3 269 278 280
3 270 279 281
3 271 280 282
3 259 257 281
3 260 258 282
3 259 283 285
3 262 260 284
3 261 285 272
3 262 286 274
3 280 301 287
3 283 281 288
3 282 287 290
3 283 289 291
3 286 284 290
3 272 285 291
3 286 292 294
3 272 293 295
3 275 274 294
3 276 273 295
3 275 296 298
3 277 298 300
3 278 299 301
3 279 300 288
3 296 294 302
3 295 316 304
3 298 296 303
3 298 305 307
3 299 306 308
3 300 307 309
3 301 308 310
3 289 288 309
3 290 287 310
3 289 311 313
3 292 290 312
3 291 313 315
3 292 314 302
3 293 315 316
3 311 309 317
3 312 310 319
3 311 318 321
3 314 312 320
3 313 321 323
3 314 322 324
3 316 315 323
3 303 302 324
3 316 325 327
3 303 326 328
3 305 328 330
3 306 329 331
3 307 330 317
3 308 331 319
3 327 325 332
3 326 346 334
3 328 334 336
3 329 335 337
3 330 336 338
3 331 337 339
3 318 317 338
3 320 319 339
3 321 318 340
3 322 320 341
3 321 342 344
3 322 343 345
3 325 323 344
3 326 324 345
3 341 339 347
3 340 361 349
3 343 341 348
3 342 349 351
3 343 350 352
3 332 344 351
3 346 345 352
3 332 353 355
3 346 354 356
3 334 356 358
3 337 335 357
3 336 358 360
3 337 359 347
3 340 338 360
3 354 376 362
3 358 356 362
3 359 357 363
3 358 365 367
3 359 366 368
3 361 360 367
3 348 347 368
3 361 369 371
3 348 370 372
3 351 349 371
3 350 372 374
3 353 351 373
3 354 352 374
3 353 375 364
3 369 391 377
3 372 370 378
3 371 377 380
3 372 379 381
3 375 373 380
3 376 374 381
3 375 382 384
3 376 383 385
3 365 362 385
3 366 363 386
3 365 387 389
3 366 388 390
3 369 367 389
3 370 368 390
3 385 405 393
3 386 406 394
3 387 393 395
3 388 394 396
3 391 389 395
3 378 390 396
3 391 397 399
3 378 398 400
3 377 399 401
3 379 400 402
3 382 380 401
3 383 381 402
3 382 403 392
3 383 404 405
3 399 420 407
3 400 421 408
3 403 401 407
3 404 402 408
3 403 409 411
3 404 410 412
3 393 405 412
3 406 413 415
3 393 414 416
3 396 394 415
3 397 395 416
3 398 396 417
3 397 418 420
3 400 398 419
3 413 435 422
3 414 436 423
3 415 422 424
3 418 416 423
3 417 424 426
3 418 425 427
3 421 419 426
3 420 427 429
3 421 428 430
3 407 429 431
3 410 408 430
3 409 431 433
3 410 432 434
3 414 412 434
3 428 450 437
3 429 451 438
3 432 430 437
3 431 438 440
3 434 432 439
3 434 441 443
3 435 442 444
3 436 443 445
3 422 444 446
3 425 423 445
3 424 446 448
3 425 447 449
3 428 426 448
3 429 427 449
3 443 466 452
3 446 444 453
3 447 445 452
3 448 446 454
3 447 455 457
3 450 448 456
3 449 457 459
3 450 458 460
3 451 459 461
3 439 437 460
3 438 461 463
3 439 462 464
3 441 464 466
3 444 442 465
3 459 481 467
3 462 460 468
3 463 461 467
3 462 469 471
3 464 471 473
3 465 472 474
3 466 473 475
3 453 474 476
3 455 452 475
3 454 476 478
3 455 477 479
3 458 456 478
3 457 479 481
3 458 480 468
3 476 474 31
3 477 475 2
3 478 476 3
3 477 7 11
3 480 478 9
3 479 11 15
3 468 480 13
3 481 15 19
3 469 468 17
3 467 19 23
3 471 469 21
3 471 25 0
3 474 472 26
3 473 0 2
3 482 483 484
3 485 486 487
3 488 489 490
3 491 492 493
3 494 490 495
3 496 489 497
3 498 499 500
3 501 499 491
3 493 498 502
3 501 498 500
3 503 504 505
3 506 504 485
3 487 503 507
3 506 503 505
3 508 509 510
3 510 511 512
3 512 513 514
3 514 515 516
3 516 517 518
3 518 519 520
3 520 521 522
3 522 523 524
3 523 525 524
3 526 527 525
3 528 529 527
3 530 531 529
3 532 533 531
3 534 535 533
3 536 497 535
3 537 482 484
3 538 539 482
3 540 541 539
3 542 543 541
3 544 545 543
3 546 547 545
3 548 549 547
3 550 551 549
3 551 552 553
3 553 554 555
3 555 556 557
3 557 558 559
3 559 560 561
3 561 562 563
3 563 488 494
3 508 538 537
3 510 540 538
3 512 542 540
3 514 544 542
3 516 546 544
3 518 548 546
3 520 550 548
3 522 564 550
3 564 525 552
3 552 527 554
3 554 529 556
3 556 531 558
3 558 533 560
3 560 535 562
3 562 497 488
3 565 494 495
3 496 563 494
3 536 561 563
3 534 559 561
3 532 557 559
3 530 555 557
3 528 553 555
3 526 551 553
3 551 521 549
3 549 519 547
3 547 517 545
3 545 515 543
3 543 513 541
3 541 511 539
3 539 509 482
3 484 566 567
3 567 568 569
3 569 570 571
3 571 572 573
3 573 574 575
3 575 576 577
3 577 578 579
3 579 580 581
3 581 582 583
3 583 507 506
3 483 584 566
3 566 585 568
3 568 586 570
3 570 587 572
3 587 574 572
3 588 576 574
3 589 578 576
3 590 580 578
3 591 582 580
3 592 507 582
3 484 593 537
3 567 594 593
3 569 595 594
3 571 596 595
3 573 597 596
3 575 598 597
3 598 579 599
3 579 600 599
3 581 601 600
3 583 485 601
3 537 584 508
3 593 585 584
3 594 586 585
3 595 587 586
3 596 588 587
3 597 589 588
3 598 590 589
3 599 591 590
3 600 592 591
3 601 487 592
3 490 602 603
3 603 604 605
3 605 606 607
3 607 608 609
3 609 610 611
3 611 612 613
3 613 614 615
3 615 616 617
3 617 618 619
3 619 502 501
3 565 602 489
3 620 604 602
3 621 606 604
3 622 608 606
3 623 610 608
3 624 612 610
3 625 614 612
3 626 616 614
3 627 618 616
3 628 502 618
3 495 603 629
3 629 605 630
3 630 607 631
3 607 632 631
3 609 633 632
3 611 634 633
3 613 635 634
3 635 617 636
3 617 637 636
3 619 491 637
3 495 620 565
3 629 621 620
3 630 622 621
3 631 623 622
3 632 624 623
3 633 625 624
3 634 626 625
3 635 627 626
3 636 628 627
3 637 493 628
3 503 486 504
3 488 497 489
3 496 565 489
3 498 492 499
3 493 492 498
3 501 502 498
3 506 505 504
3 508 483 509
3 510 509 511
3 512 511 513
3 514 513 515
3 516 515 517
3 518 517 519
3 520 519 521
3 522 521 523
3 523 526 525
3 526 528 527
3 528 530 529
3 530 532 531
3 532 534 533
3 534 536 535
3 536 496 497
3 508 510 538
3 510 512 540
3 512 514 542
3 514 516 544
3 516 518 546
3 518 520 548
3 520 522 550
3 522 524 564
3 564 524 525
3 552 525 527
3 554 527 529
3 556 529 531
3 558 531 533
3 560 533 535
3 562 535 497
3 484 567 593
3 567 569 594
3 569 571 595
3 571 573 596
3 573 575 597
3 575 577 598
3 598 577 579
3 579 581 600
3 581 583 601
3 583 506 485
3 537 593 584
3 593 594 585
3 594 595 586
3 595 596 587
3 596 597 588
3 597 598 589
3 598 599 590
3 599 600 591
3 600 601 592
3 601 485 487
3 490 489 602
3 603 602 604
3 605 604 606
3 607 606 608
3 609 608 610
3 611 610 612
3 613 612 614
3 615 614 616
3 617 616 618
3 619 618 502
3 565 620 602
3 620 621 604
3 621 622 606
3 622 623 608
3 623 624 610
3 624 625 612
3 625 626 614
3 626 627 616
3 627 628 618
3 628 493 502
3 636 637 628
3 485 504 486
3 494 488 490
3 501 500 499
3 487 486 503
3 551 564 552
3 553 552 554
3 555 554 556
3 557 556 558
3 559 558 560
3 561 560 562
3 563 562 488
3 483 508 584
3 566 584 585
3 568 585 586
3 570 586 587
3 587 588 574
3 588 589 576
3 589 590 578
3 590 591 580
3 591 592 582
3 592 487 507
3 495 490 603
3 629 603 605
3 630 605 607
3 607 609 632
3 609 611 633
3 611 613 634
3 613 615 635
3 635 615 617
3 617 619 637
3 619 501 491
3 482 509 483
3 491 499 492
3 506 507 503
3 537 538 482
3 538 540 539
3 540 542 541
3 542 544 543
3 544 546 545
3 546 548 547
3 548 550 549
3 550 564 551
3 565 496 494
3 496 536 563
3 536 534 561
3 534 532 559
3 532 530 557
3 530 528 555
3 528 526 553
3 526 523 551
3 551 523 521
3 549 521 519
3 547 519 517
3 545 517 515
3 543 515 513
3 541 513 511
3 539 511 509
3 484 483 566
3 567 566 568
3 569 568 570
3 571 570 572
3 573 572 574
3 575 574 576
3 577 576 578
3 579 578 580
3 581 580 582
3 583 582 507
3 495 629 620
3 629 630 621
3 630 631 622
3 631 632 623
3 632 633 624
3 633 634 625
3 634 635 626
3 635 636 627
3 637 491 493
