ply
format ascii 1.0
comment Created by Blender 2.81 (sub 16) - www.blender.org, source file: 'Mettaton.blend'
element vertex 100
property float x
property float y
property float z
element face 180
property list uchar uint vertex_indices
end_header
-2.872656 1.509871 -3.444345
-3.352393 1.734524 -2.213346
-2.796241 1.357730 -1.829488
-4.069087 1.562028 -2.195683
-4.374512 0.977869 -1.790593
-4.450927 1.130009 -3.405449
-3.387093 1.803611 -2.946654
-4.174959 0.252800 -1.895345
-2.722768 0.767208 -3.494407
-2.648881 0.620099 -1.932954
-4.103787 1.631115 -2.928991
-4.127150 0.680395 -3.256048
-4.248847 0.399909 -3.456798
-4.070117 0.566845 -2.050801
-2.949208 0.963905 -3.285078
-2.958623 1.003450 -3.280907
-4.136565 0.719940 -3.251877
-2.892176 0.850355 -2.079831
-4.079533 0.606390 -2.046630
-2.901591 0.889900 -2.075660
-3.190561 1.635847 -2.256707
-3.743224 2.092031 -2.204843
-3.743151 1.635847 -2.257483
-3.742375 1.635847 -2.810072
-3.189785 1.491789 -2.809297
-3.742375 1.491789 -2.810072
-3.743151 1.491789 -2.257483
-3.190561 1.491789 -2.256707
-3.189859 2.092031 -2.756656
-3.189785 1.635847 -2.809297
-3.742449 2.092031 -2.757432
-3.201200 2.918643 -2.887105
-3.742851 2.414098 -2.471121
-3.190261 2.414098 -2.470345
-3.179259 2.703795 -3.395744
-3.751920 2.946806 -2.922758
-3.742075 2.414098 -3.023710
-3.189486 2.414098 -3.022935
-3.190635 2.092031 -2.204067
-3.775799 2.141626 -2.250196
-4.027787 1.470895 -2.303613
-3.548578 1.746056 -2.302837
-4.027114 1.471281 -2.856202
-3.476172 1.621514 -2.855427
-3.955381 1.346353 -2.856202
-3.476845 1.621128 -2.302837
-3.956054 1.345967 -2.303613
-3.775126 2.142012 -2.802786
-3.547905 1.746442 -2.855427
-4.254335 1.866851 -2.803562
-4.196569 2.853207 -2.933234
-4.415056 2.145949 -2.517251
-3.935847 2.421110 -2.516475
-4.070560 2.677815 -3.441874
-4.688181 2.603401 -2.968887
-4.414383 2.146336 -3.069840
-3.935174 2.421496 -3.069064
-4.255008 1.866465 -2.250972
-3.996546 1.437570 -2.412747
-4.552743 1.381526 -2.372289
-4.299798 1.131220 -2.413352
-4.219508 1.052593 -2.844412
-3.996121 1.438000 -2.843807
-3.916256 1.358943 -2.843807
-3.916682 1.358513 -2.412747
-4.219935 1.052163 -2.413352
-4.249064 1.688306 -2.802743
-4.552318 1.381957 -2.803348
-4.299373 1.131650 -2.844412
-4.713553 2.135650 -2.904502
-4.731089 1.558479 -2.580005
-4.427835 1.864829 -2.579400
-4.582403 2.029909 -3.301278
-5.031393 1.845793 -2.932314
-4.730663 1.558909 -3.011065
-4.427410 1.865259 -3.010459
-4.249491 1.687876 -2.371684
-2.966146 0.972557 -2.435550
-2.928449 1.613372 -2.403399
-3.232560 1.362174 -2.288671
-3.471834 1.361627 -2.721220
-3.294257 0.892701 -2.818858
-3.560671 1.282318 -2.671978
-3.321397 1.282865 -2.239428
-3.054983 0.893248 -2.386308
-2.901309 1.223208 -2.982829
-3.205420 0.972010 -2.868100
-3.167722 1.612825 -2.835949
-2.453591 1.686283 -3.364419
-2.845138 1.790417 -2.721924
-2.578723 1.400800 -2.868804
-2.796105 1.552531 -3.694792
-2.716863 2.090086 -3.254953
-3.084412 1.789871 -3.154474
-2.817997 1.400254 -3.301353
-2.662035 1.223755 -2.550280
-3.729978 2.731958 -3.431397
-4.562171 2.428010 -3.477527
-4.900242 1.740052 -3.329090
-3.059377 1.956335 -3.585326
3 0 1 2
3 2 3 4
3 3 5 4
3 5 6 0
3 7 8 9
3 3 6 10
3 11 8 12
3 13 12 7
3 9 13 7
3 14 9 8
3 11 15 14
3 13 16 11
3 17 18 13
3 14 19 17
3 5 15 16
3 4 16 18
3 19 4 18
3 0 19 15
3 20 21 22
3 23 24 25
3 20 26 27
3 28 20 29
3 23 28 29
3 22 25 26
3 29 27 24
3 22 30 23
3 31 32 33
3 25 27 26
3 34 35 31
3 35 36 32
3 36 34 37
3 37 31 33
3 33 21 38
3 28 33 38
3 30 37 28
3 32 30 21
3 39 40 41
3 42 43 44
3 45 40 46
3 47 41 48
3 42 47 48
3 40 44 46
3 48 45 43
3 40 49 42
3 50 51 52
3 44 45 46
3 53 54 50
3 54 55 51
3 55 53 56
3 56 50 52
3 52 57 39
3 47 52 39
3 49 56 47
3 51 49 57
3 58 59 60
3 61 62 63
3 64 60 65
3 66 58 62
3 67 62 68
3 60 61 65
3 62 64 63
3 60 67 68
3 69 70 71
3 61 64 65
3 72 73 69
3 73 74 70
3 74 72 75
3 75 69 71
3 76 70 59
3 66 71 76
3 67 75 66
3 70 67 59
3 77 78 79
3 80 81 82
3 77 83 84
3 85 77 86
3 80 85 86
3 83 80 82
3 86 84 81
3 79 87 80
3 88 89 90
3 82 84 83
3 91 92 88
3 92 93 89
3 93 91 94
3 94 88 90
3 95 89 78
3 85 90 95
3 93 85 87
3 89 87 78
3 0 6 1
3 3 10 5
3 5 10 6
3 3 1 6
3 11 14 8
3 13 11 12
3 14 17 9
3 11 16 15
3 13 18 16
3 5 0 15
3 4 5 16
3 23 30 28
3 34 96 35
3 35 96 36
3 36 96 34
3 30 36 37
3 32 36 30
3 42 49 47
3 40 57 49
3 53 97 54
3 54 97 55
3 49 55 56
3 51 55 49
3 66 76 58
3 67 66 62
3 72 98 73
3 75 72 69
3 66 75 71
3 67 74 75
3 79 78 87
3 91 99 92
3 92 99 93
3 93 99 91
3 93 94 85
3 89 93 87
3 2 1 3
3 7 12 8
3 9 17 13
3 17 19 18
3 14 15 19
3 19 2 4
3 0 2 19
3 20 38 21
3 23 29 24
3 20 22 26
3 28 38 20
3 22 23 25
3 29 20 27
3 22 21 30
3 31 35 32
3 25 24 27
3 37 34 31
3 33 32 21
3 28 37 33
3 39 57 40
3 42 48 43
3 45 41 40
3 47 39 41
3 40 42 44
3 48 41 45
3 50 54 51
3 44 43 45
3 55 97 53
3 56 53 50
3 52 51 57
3 47 56 52
3 58 76 59
3 61 68 62
3 64 58 60
3 60 68 61
3 62 58 64
3 60 59 67
3 69 73 70
3 61 63 64
3 73 98 74
3 74 98 72
3 76 71 70
3 70 74 67
3 77 95 78
3 80 86 81
3 77 79 83
3 85 95 77
3 80 87 85
3 83 79 80
3 86 77 84
3 88 92 89
3 82 81 84
3 94 91 88
3 95 90 89
3 85 94 90
