ply
format ascii 1.0
comment Created by Blender 2.81 (sub 16) - www.blender.org, source file: 'Mettaton.blend'
element vertex 432
property float x
property float y
property float z
element face 840
property list uchar uint vertex_indices
end_header
4.158225 0.630165 -4.264904
4.158225 0.216017 -3.850756
4.158225 0.216017 -4.264904
4.158225 0.630165 -3.850756
3.744078 0.216017 -3.850756
3.744078 0.630165 -4.264904
3.309018 0.630165 -3.850756
3.744078 0.630165 -3.850756
4.082868 0.554808 -4.324803
2.887255 0.216017 -3.850756
3.309018 0.216017 -3.850756
3.360096 0.581543 -4.319060
3.309018 0.630165 -4.264904
3.309018 0.216017 -4.264904
3.744078 0.216017 -4.264904
2.887255 0.216017 -4.264904
2.848134 0.590328 -4.330545
2.887255 0.630165 -4.264904
3.269406 0.255630 -4.323122
2.926867 0.590552 -4.323122
3.269406 0.590552 -4.323122
2.887255 0.630165 -3.850756
2.480554 0.630165 -3.850756
2.480554 0.216017 -4.264904
2.480554 0.216017 -3.850756
3.819435 0.554808 -4.324803
4.082868 0.291375 -4.324803
3.819435 0.291375 -4.324803
3.693000 0.264640 -4.319060
3.693000 0.581543 -4.319060
3.360096 0.264640 -4.319060
2.926867 0.255630 -4.323122
2.848134 0.255855 -4.330545
2.519675 0.590328 -4.330545
2.480554 0.630165 -4.264904
2.519675 0.255855 -4.330545
2.108906 -0.288234 -4.128540
2.108906 -1.172368 -3.440845
2.108906 -1.172368 -4.128540
2.108906 -0.288234 -3.440845
1.224772 -1.172368 -3.440845
1.224772 -0.288234 -4.128540
1.224772 -1.172368 -4.324978
1.224772 -1.172368 -4.128540
1.989145 -0.407995 -4.324978
1.344534 -0.407995 -4.398200
1.344534 -0.407995 -4.324978
2.108906 -1.172368 -4.324978
1.224772 -0.288234 -4.324978
1.224772 -0.288234 -3.440845
2.108906 -0.288234 -4.324978
1.989145 -1.052606 -4.324978
1.344534 -1.052606 -4.324978
1.989145 -1.052606 -4.398200
1.344534 -1.052606 -4.398200
1.989145 -0.407995 -4.398200
3.139011 -0.277796 -4.151113
3.139011 -1.161930 -3.463418
3.139011 -1.161930 -4.151113
3.139011 -0.277796 -3.463418
2.254877 -1.161930 -3.463418
2.254877 -0.277796 -4.151113
2.254877 -1.161930 -4.347551
2.254877 -1.161930 -4.151113
3.019249 -0.397558 -4.347551
2.374638 -0.397558 -4.420773
2.374638 -0.397558 -4.347551
3.139011 -1.161930 -4.347551
2.254877 -0.277796 -4.347551
2.254877 -0.277796 -3.463418
3.139011 -0.277796 -4.347551
3.019249 -1.042169 -4.347551
2.374638 -1.042169 -4.347551
3.019249 -1.042169 -4.420773
2.374638 -1.042169 -4.420773
3.019249 -0.397558 -4.420773
4.218619 -0.268949 -4.187799
4.218619 -1.153083 -3.500104
4.218619 -1.153083 -4.187799
4.218619 -0.268949 -3.500104
3.334486 -1.153083 -3.500104
3.334486 -0.268949 -4.187799
3.334486 -1.153083 -4.384238
3.334486 -1.153083 -4.187799
4.098858 -0.388710 -4.384238
3.454247 -0.388710 -4.457459
3.454247 -0.388710 -4.384238
4.218619 -1.153083 -4.384238
3.334486 -0.268949 -4.384238
3.334486 -0.268949 -3.500104
4.218619 -0.268949 -4.384238
4.098858 -1.033321 -4.384238
3.454247 -1.033321 -4.384238
4.098858 -1.033321 -4.457459
3.454247 -1.033321 -4.457459
4.098858 -0.388710 -4.457459
5.259265 -0.261436 -4.176332
5.259265 -1.145570 -3.488637
5.259265 -1.145570 -4.176332
5.259265 -0.261436 -3.488637
4.375131 -1.145570 -3.488637
4.375131 -0.261436 -4.176332
4.375131 -1.145570 -4.372771
4.375131 -1.145570 -4.176332
5.139503 -0.381198 -4.372771
4.494892 -0.381198 -4.445992
4.494892 -0.381198 -4.372771
5.259265 -1.145570 -4.372771
4.375131 -0.261436 -4.372771
4.375131 -0.261436 -3.488637
5.259265 -0.261436 -4.372771
5.139503 -1.025809 -4.372771
4.494892 -1.025809 -4.372771
5.139503 -1.025809 -4.445992
4.494892 -1.025809 -4.445992
5.139503 -0.381198 -4.445992
5.785252 4.273211 -4.049557
5.785252 3.185280 -1.016819
5.785252 3.185280 -4.049557
1.771405 4.273211 -1.016819
0.767944 3.185280 -1.016819
1.771405 3.185280 -1.016819
0.767944 4.273211 -1.016819
0.767944 3.185280 -4.049557
1.169503 -0.683879 -4.026754
1.169503 -1.495859 -1.145721
1.169503 -0.683879 -1.145721
5.785252 4.273211 -1.016819
4.781790 4.273211 -4.049557
4.781790 4.273211 -1.016819
5.383692 0.405012 -1.145721
5.785252 0.405012 -4.049557
5.785252 0.405012 -1.016819
4.781790 0.405012 -1.016819
4.540854 0.405012 -1.145721
1.169503 0.405012 -1.145721
0.767944 0.405012 -4.049557
1.169503 0.405012 -4.026754
1.771405 0.405012 -4.049557
2.012341 0.405012 -4.026754
2.012341 -1.495859 -4.026754
2.012341 -1.495859 -1.145721
5.383692 -0.683879 -1.145721
5.383692 -1.495859 -4.026754
5.383692 -0.683879 -4.026754
4.540854 -1.495859 -4.026754
4.540854 -0.683879 -4.026754
2.012341 -0.683879 -1.145721
5.308904 3.796862 -4.049557
5.308904 2.976877 -4.049557
1.244292 0.881361 -4.049557
0.767944 1.251181 -4.049557
1.244292 1.519127 -4.049557
5.308904 0.881361 -4.049557
4.781790 0.405012 -4.049557
4.495981 0.881361 -4.049557
1.244292 3.796862 -4.049557
1.771405 4.273211 -4.049557
2.057214 3.796862 -4.049557
4.495981 3.796862 -4.049557
3.778329 4.273211 -4.049557
2.870137 3.796862 -4.049557
3.683059 3.796862 -4.049557
2.774867 4.273211 -4.049557
2.057214 0.881361 -4.049557
2.774867 0.405012 -4.049557
3.683059 0.881361 -4.049557
2.870137 0.881361 -4.049557
3.778329 0.405012 -4.049557
4.540854 -0.683879 -1.145721
5.383692 -1.495859 -1.145721
3.698017 -0.683879 -1.145721
4.540854 -1.495859 -1.145721
2.855179 -0.683879 -1.145721
3.698017 -1.495859 -1.145721
2.855179 -1.495859 -1.145721
2.012341 -0.683879 -4.026754
1.169503 -1.495859 -4.026754
2.855179 -0.683879 -4.026754
3.698017 -0.683879 -4.026754
2.855179 -1.495859 -4.026754
3.698017 -1.495859 -4.026754
5.383692 0.405012 -4.026754
4.540854 0.405012 -4.026754
2.855179 0.405012 -4.026754
3.698017 0.405012 -4.026754
1.771405 0.405012 -1.016819
0.767944 0.405012 -1.016819
2.012341 0.405012 -1.145721
2.774867 0.405012 -1.016819
3.698017 0.405012 -1.145721
2.855179 0.405012 -1.145721
3.778329 0.405012 -1.016819
0.767944 4.273211 -4.049557
2.774867 4.273211 -1.016819
3.778329 4.273211 -1.016819
2.057214 0.881361 -3.855642
2.870137 3.796862 -3.855642
1.244292 2.248002 -4.049557
1.244292 1.519127 -3.855642
4.781790 3.185280 -1.016819
3.778329 3.185280 -1.016819
2.774867 3.185280 -1.016819
2.774867 1.251181 -1.016819
2.774867 2.218230 -1.016819
1.771405 1.251181 -1.016819
1.771405 2.218230 -1.016819
3.778329 1.251181 -1.016819
3.778329 2.218230 -1.016819
4.781790 1.251181 -1.016819
4.781790 2.218230 -1.016819
5.785252 1.251181 -1.016819
5.785252 2.218230 -1.016819
1.244292 0.881361 -3.855642
2.057214 3.796862 -3.855642
1.244292 2.976877 -4.049557
1.244292 2.248002 -3.855642
5.308904 3.796862 -3.855642
1.244292 3.796862 -3.855642
1.244292 2.976877 -3.855642
2.870137 0.881361 -3.855642
5.308904 2.248002 -4.049557
5.308904 2.976877 -3.855642
3.683059 0.881361 -3.855642
5.308904 1.519127 -4.049557
5.308904 2.248002 -3.855642
4.495981 0.881361 -3.855642
5.308904 1.519127 -3.855642
0.767944 2.218230 -4.049557
5.785252 1.251181 -4.049557
5.785252 2.218230 -4.049557
5.308904 0.881361 -3.855642
4.495981 3.796862 -3.855642
3.683059 3.796862 -3.855642
0.767944 1.251181 -1.016819
0.767944 2.218230 -1.016819
1.995469 1.457382 -3.855642
1.306037 1.457382 -3.983966
1.306037 1.457382 -3.855642
3.750906 2.315849 -3.855642
4.428134 2.315849 -3.983966
4.428134 2.315849 -3.855642
3.756086 0.954387 -3.855642
4.422955 0.954387 -3.983966
4.422955 0.954387 -3.855642
1.995469 0.943105 -3.855642
1.995469 1.457382 -3.983966
4.428134 2.909030 -3.983966
4.428134 2.909030 -3.855642
1.963133 2.882796 -3.855642
1.338374 2.882796 -3.983966
1.338374 2.882796 -3.855642
1.306037 0.943105 -3.855642
1.995469 0.943105 -3.983966
3.750906 2.909030 -3.855642
3.750906 2.315849 -3.983966
1.338374 2.342084 -3.855642
1.963133 2.342084 -3.983966
1.963133 2.342084 -3.855642
1.306037 0.943105 -3.983966
1.963133 2.882796 -3.983966
3.617096 2.182039 -3.855642
2.936099 2.182039 -3.983966
2.936099 2.182039 -3.855642
1.338374 2.342084 -3.983966
2.936099 1.585089 -3.855642
3.617096 1.585089 -3.983966
3.617096 1.585089 -3.855642
2.949274 3.056015 -3.855642
3.603922 3.056015 -3.983966
3.603922 3.056015 -3.855642
3.617096 2.182039 -3.983966
5.249709 1.459932 -3.855642
4.555176 1.459932 -3.983966
4.555176 1.459932 -3.855642
3.603922 3.717726 -3.983966
3.603922 3.717726 -3.855642
2.936099 1.585089 -3.983966
5.249709 0.940555 -3.855642
5.249709 1.459932 -3.983966
3.698017 -0.026520 -4.026754
2.855179 -0.026520 -4.026754
2.012341 -0.026520 -4.026754
1.169503 -0.026520 -4.026754
2.855179 -0.026520 -1.145721
3.698017 -0.026520 -1.145721
4.540854 -0.026520 -1.145721
5.383692 -0.026520 -1.145721
2.012341 -0.026520 -1.145721
4.540854 -0.026520 -4.026754
5.383692 -0.026520 -4.026754
1.169503 -0.026520 -1.145721
5.211452 3.699411 -3.855642
5.211452 3.074329 -3.855642
4.593432 3.074329 -3.855642
4.593432 3.699411 -3.855642
4.495981 2.976877 -3.855642
3.749686 3.730235 -3.855642
4.429354 3.730235 -3.855642
3.749686 3.043505 -3.855642
4.429354 3.043505 -3.855642
3.683059 2.976877 -3.855642
2.949274 3.717726 -3.855642
2.870137 2.976877 -3.855642
2.113339 3.740737 -3.855642
2.814012 3.740737 -3.855642
2.113339 3.033002 -3.855642
2.814012 3.033002 -3.855642
2.057214 2.976877 -3.855642
1.331698 3.709456 -3.855642
1.969808 3.709456 -3.855642
1.331698 3.064284 -3.855642
1.969808 3.064284 -3.855642
5.216401 2.884375 -3.855642
5.216401 2.340505 -3.855642
4.588484 2.340505 -3.855642
4.588484 2.884375 -3.855642
4.495981 2.248002 -3.855642
3.683059 2.248002 -3.855642
2.939728 2.317593 -3.855642
2.939728 2.907287 -3.855642
3.613468 2.907287 -3.855642
3.613468 2.317593 -3.855642
2.870137 2.248002 -3.855642
2.125402 2.316190 -3.855642
2.125402 2.908689 -3.855642
2.801949 2.316190 -3.855642
2.057214 2.248002 -3.855642
2.801949 2.908689 -3.855642
5.238498 2.177597 -3.855642
5.238498 1.589532 -3.855642
4.566387 2.177597 -3.855642
4.495981 1.519127 -3.855642
4.566387 1.589532 -3.855642
3.751403 1.587470 -3.855642
3.751403 2.179658 -3.855642
4.427638 2.179658 -3.855642
4.427638 1.587470 -3.855642
3.683059 1.519127 -3.855642
2.870137 1.519127 -3.855642
2.130877 1.592790 -3.855642
2.130877 2.174339 -3.855642
2.796474 2.174339 -3.855642
2.796474 1.592790 -3.855642
2.057214 1.519127 -3.855642
1.313789 1.588624 -3.855642
1.313789 2.178505 -3.855642
1.987717 2.178505 -3.855642
1.987717 1.588624 -3.855642
4.555176 0.940555 -3.855642
3.756086 1.446100 -3.855642
4.422955 1.446100 -3.855642
3.623627 0.940793 -3.855642
2.929569 0.940793 -3.855642
2.929569 1.459694 -3.855642
3.623627 1.459694 -3.855642
2.820162 0.931335 -3.855642
2.107189 0.931335 -3.855642
2.107189 1.469152 -3.855642
2.820162 1.469152 -3.855642
4.593432 3.699411 -3.983966
5.211452 3.074329 -3.983966
4.593432 3.074329 -3.983966
1.331698 3.709456 -3.983966
1.969808 3.064284 -3.983966
1.331698 3.064284 -3.983966
2.113339 3.740737 -3.983966
2.814012 3.033002 -3.983966
2.113339 3.033002 -3.983966
2.949274 3.717726 -3.983966
2.949274 3.056015 -3.983966
3.749686 3.730235 -3.983966
4.429354 3.043505 -3.983966
3.749686 3.043505 -3.983966
3.756086 1.446100 -3.983966
3.756086 0.954387 -3.983966
3.751403 2.179658 -3.983966
4.427638 1.587470 -3.983966
3.751403 1.587470 -3.983966
3.750906 2.909030 -3.983966
2.929569 1.459694 -3.983966
3.623627 0.940793 -3.983966
2.929569 0.940793 -3.983966
2.939728 2.907287 -3.983966
3.613468 2.317593 -3.983966
2.939728 2.317593 -3.983966
2.107189 1.469152 -3.983966
2.820162 0.931335 -3.983966
2.107189 0.931335 -3.983966
2.130877 2.174339 -3.983966
2.796474 1.592790 -3.983966
2.130877 1.592790 -3.983966
2.125402 2.908689 -3.983966
2.801949 2.316190 -3.983966
2.125402 2.316190 -3.983966
1.313789 2.178505 -3.983966
1.987717 1.588624 -3.983966
1.313789 1.588624 -3.983966
5.249709 0.940555 -3.983966
4.555176 0.940555 -3.983966
4.566387 2.177597 -3.983966
5.238498 1.589532 -3.983966
4.566387 1.589532 -3.983966
4.588484 2.884375 -3.983966
5.216401 2.340505 -3.983966
4.588484 2.340505 -3.983966
4.422955 1.446100 -3.983966
2.814012 3.740737 -3.983966
5.211452 3.699411 -3.983966
2.796474 2.174339 -3.983966
5.238498 2.177597 -3.983966
3.613468 2.907287 -3.983966
3.623627 1.459694 -3.983966
1.969808 3.709456 -3.983966
1.987717 2.178505 -3.983966
4.429354 3.730235 -3.983966
4.427638 2.179658 -3.983966
2.801949 2.908689 -3.983966
5.216401 2.884375 -3.983966
2.820162 1.469152 -3.983966
3.698017 -0.683879 -1.428615
4.540854 -0.683879 -1.428615
2.855179 -0.026520 -1.428615
2.012341 -0.026520 -1.428615
2.787191 -0.079546 -1.146570
3.698017 -0.026520 -1.428615
4.540854 -0.026520 -1.428615
2.012341 -0.683879 -1.428615
2.855179 -0.683879 -1.428615
2.080329 -0.079546 -1.146570
2.787191 -0.630853 -1.146570
2.080329 -0.630853 -1.146570
3 0 1 2
3 3 4 1
3 5 6 7
3 2 8 0
3 4 2 1
3 3 5 7
3 6 9 10
3 7 10 4
3 5 11 12
3 4 13 14
3 15 16 17
3 18 19 20
3 10 15 13
3 12 21 6
3 22 23 24
3 9 23 15
3 17 22 21
3 21 24 9
3 25 26 27
3 14 26 2
3 5 8 25
3 5 27 14
3 28 11 29
3 13 28 14
3 12 30 13
3 14 29 5
3 18 12 13
3 31 17 19
3 18 15 31
3 19 12 20
3 32 33 16
3 23 32 15
3 17 33 34
3 34 35 23
3 5 12 6
3 2 26 8
3 3 0 5
3 5 29 11
3 18 31 19
3 12 17 21
3 22 34 23
3 17 34 22
3 25 8 26
3 14 27 26
3 5 0 8
3 5 25 27
3 28 30 11
3 13 30 28
3 12 11 30
3 14 28 29
3 31 15 17
3 18 13 15
3 19 17 12
3 32 35 33
3 17 16 33
3 34 33 35
3 0 3 1
3 3 7 4
3 4 14 2
3 6 21 9
3 7 6 10
3 4 10 13
3 15 32 16
3 10 9 15
3 9 24 23
3 21 22 24
3 18 20 12
3 23 35 32
3 36 37 38
3 39 40 37
3 41 42 43
3 44 45 46
3 43 47 38
3 36 48 41
3 39 41 49
3 40 38 37
3 49 43 40
3 50 38 47
3 44 47 51
3 52 48 46
3 51 42 52
3 46 50 44
3 45 53 54
3 46 54 52
3 52 53 51
3 51 55 44
3 41 48 42
3 44 55 45
3 36 50 48
3 39 36 41
3 49 41 43
3 44 50 47
3 52 42 48
3 51 47 42
3 46 48 50
3 45 55 53
3 46 45 54
3 36 39 37
3 39 49 40
3 43 42 47
3 40 43 38
3 50 36 38
3 52 54 53
3 51 53 55
3 56 57 58
3 59 60 57
3 61 62 63
3 64 65 66
3 63 67 58
3 56 68 61
3 59 61 69
3 60 58 57
3 69 63 60
3 70 58 67
3 64 67 71
3 72 68 66
3 71 62 72
3 66 70 64
3 65 73 74
3 66 74 72
3 72 73 71
3 71 75 64
3 61 68 62
3 64 75 65
3 56 70 68
3 59 56 61
3 69 61 63
3 64 70 67
3 72 62 68
3 71 67 62
3 66 68 70
3 65 75 73
3 66 65 74
3 56 59 57
3 59 69 60
3 63 62 67
3 60 63 58
3 70 56 58
3 72 74 73
3 71 73 75
3 76 77 78
3 79 80 77
3 81 82 83
3 84 85 86
3 83 87 78
3 76 88 81
3 79 81 89
3 80 78 77
3 89 83 80
3 90 78 87
3 84 87 91
3 92 88 86
3 91 82 92
3 86 90 84
3 85 93 94
3 86 94 92
3 92 93 91
3 91 95 84
3 81 88 82
3 84 95 85
3 76 90 88
3 79 76 81
3 89 81 83
3 84 90 87
3 92 82 88
3 91 87 82
3 86 88 90
3 85 95 93
3 86 85 94
3 76 79 77
3 79 89 80
3 83 82 87
3 80 83 78
3 90 76 78
3 92 94 93
3 91 93 95
3 96 97 98
3 99 100 97
3 101 102 103
3 104 105 106
3 103 107 98
3 96 108 101
3 99 101 109
3 100 98 97
3 109 103 100
3 110 98 107
3 104 107 111
3 112 108 106
3 111 102 112
3 106 110 104
3 105 113 114
3 106 114 112
3 112 113 111
3 111 115 104
3 101 108 102
3 104 115 105
3 96 110 108
3 99 96 101
3 109 101 103
3 104 110 107
3 112 102 108
3 111 107 102
3 106 108 110
3 105 115 113
3 106 105 114
3 96 99 97
3 99 109 100
3 103 102 107
3 100 103 98
3 110 96 98
3 112 114 113
3 111 113 115
3 116 117 118
3 119 120 121
3 122 123 120
3 124 125 126
3 127 128 129
3 130 131 132
3 130 133 134
3 135 136 137
3 137 138 139
3 125 140 141
3 142 143 144
3 144 145 146
3 126 141 147
3 148 118 149
3 150 151 152
3 153 154 155
3 156 157 158
3 148 128 116
3 159 160 128
3 161 160 162
3 158 163 161
3 150 138 136
3 164 165 138
3 166 165 167
3 155 168 166
3 169 170 142
3 171 172 169
3 173 174 171
3 147 175 173
3 176 177 124
3 178 140 176
3 179 180 178
3 146 181 179
3 172 143 170
3 174 145 172
3 175 181 174
3 141 180 175
3 182 154 131
3 183 168 154
3 184 168 185
3 139 165 184
3 135 186 187
3 188 189 186
3 190 189 191
3 134 192 190
3 119 193 122
3 194 157 119
3 195 163 194
3 129 160 195
3 150 196 164
3 162 197 161
3 198 199 152
3 127 200 117
3 129 201 200
3 195 202 201
3 194 121 202
3 203 186 189
3 204 205 203
3 202 206 204
3 207 189 192
3 208 203 207
3 201 204 208
3 209 192 133
3 210 207 209
3 200 208 210
3 211 133 132
3 212 209 211
3 117 210 212
3 152 213 150
3 161 214 158
3 215 216 198
3 149 217 148
3 158 218 156
3 156 219 215
3 164 220 167
3 221 222 149
3 167 223 166
3 224 225 221
3 166 226 155
3 153 227 224
3 156 123 193
3 215 228 123
3 152 228 198
3 153 229 131
3 224 230 229
3 149 230 221
3 155 231 153
3 148 232 159
3 159 233 162
3 234 136 187
3 235 151 234
3 120 228 235
3 205 187 186
3 206 234 205
3 121 235 206
3 229 132 131
3 230 211 229
3 118 212 230
3 236 237 238
3 239 240 241
3 242 243 244
3 245 246 236
3 241 247 248
3 249 250 251
3 252 253 245
3 254 255 239
3 256 257 258
3 238 259 252
3 258 260 249
3 261 262 263
3 251 264 256
3 265 266 267
3 268 269 270
3 267 271 261
3 272 273 274
3 270 275 276
3 263 277 265
3 278 279 272
3 183 280 185
3 185 281 184
3 184 282 139
3 139 283 137
3 188 284 191
3 191 285 190
3 190 286 134
3 134 287 130
3 135 288 188
3 182 289 183
3 130 290 182
3 137 291 135
3 292 222 293
3 292 232 217
3 294 232 295
3 293 296 294
3 297 232 298
3 299 233 297
3 298 296 300
3 300 301 299
3 302 233 276
3 302 303 197
3 270 233 301
3 270 303 268
3 304 197 305
3 306 214 304
3 305 303 307
3 307 308 306
3 309 214 310
3 311 218 309
3 310 308 312
3 311 308 219
3 313 225 314
3 315 296 316
3 315 225 317
3 316 222 313
3 239 301 254
3 248 317 241
3 241 318 239
3 254 296 248
3 319 303 320
3 321 318 322
3 322 323 319
3 320 301 321
3 324 308 325
3 326 303 323
3 326 327 324
3 325 303 328
3 256 219 251
3 249 327 258
3 258 216 256
3 251 308 249
3 329 227 330
3 331 332 317
3 330 332 333
3 331 225 329
3 334 318 335
3 336 332 337
3 337 338 334
3 336 318 317
3 265 323 263
3 261 338 267
3 267 339 265
3 263 318 261
3 340 327 341
3 342 339 343
3 343 344 340
3 341 323 342
3 345 216 346
3 347 344 348
3 348 199 345
3 346 327 347
3 349 231 226
3 349 332 274
3 272 231 278
3 274 227 272
3 244 223 242
3 242 338 350
3 351 226 244
3 350 332 351
3 352 220 353
3 353 339 354
3 355 223 352
3 354 338 355
3 356 196 357
3 358 196 344
3 359 220 356
3 359 344 339
3 238 213 199
3 252 196 213
3 236 196 245
3 238 344 236
3 360 361 362
3 363 364 365
3 366 367 368
3 369 269 370
3 371 372 373
3 374 243 375
3 376 377 378
3 379 240 255
3 380 381 382
3 262 266 277
3 383 384 385
3 386 387 388
3 389 390 391
3 392 393 394
3 237 253 259
3 395 396 397
3 250 257 264
3 273 398 399
3 400 401 402
3 403 404 405
3 305 366 304
3 350 375 242
3 248 379 254
3 304 368 306
3 244 406 351
3 341 391 340
3 307 407 305
3 351 374 350
3 293 408 292
3 343 409 342
3 306 367 307
3 292 360 295
3 340 390 343
3 330 410 329
3 295 362 294
3 342 389 341
3 331 402 333
3 294 361 293
3 333 401 330
3 320 385 319
3 329 400 331
3 322 411 321
3 353 381 352
3 319 384 322
3 310 363 309
3 354 382 353
3 321 383 320
3 309 365 311
3 352 412 355
3 346 397 345
3 312 413 310
3 355 380 354
3 298 371 297
3 348 414 347
3 311 364 312
3 297 373 299
3 345 396 348
3 335 378 334
3 300 415 298
3 347 395 346
3 337 416 336
3 299 372 300
3 334 377 337
3 325 394 324
3 336 376 335
3 326 417 328
3 357 387 356
3 324 393 326
3 314 418 313
3 358 388 357
3 328 392 325
3 316 405 315
3 356 419 359
3 349 398 278
3 315 404 314
3 359 386 358
3 276 369 302
3 274 399 349
3 313 403 316
3 302 370 268
3 289 179 280
3 280 178 281
3 281 176 282
3 282 124 283
3 169 420 171
3 286 421 169
3 288 422 284
3 286 142 287
3 291 147 288
3 290 146 289
3 287 144 290
3 283 126 291
3 423 424 422
3 422 420 425
3 425 421 426
3 173 427 147
3 147 423 288
3 284 425 285
3 171 428 173
3 285 426 286
3 429 430 424
3 428 431 427
3 422 430 428
3 427 429 423
3 130 182 131
3 122 193 123
3 124 177 125
3 127 116 128
3 144 143 145
3 148 116 118
3 150 136 151
3 153 131 154
3 156 193 157
3 148 159 128
3 159 162 160
3 161 163 160
3 158 157 163
3 150 164 138
3 164 167 165
3 166 168 165
3 155 154 168
3 176 140 177
3 178 180 140
3 179 181 180
3 146 145 181
3 119 157 193
3 194 163 157
3 195 160 163
3 129 128 160
3 150 213 196
3 127 129 200
3 149 222 217
3 164 196 220
3 221 225 222
3 167 220 223
3 224 227 225
3 166 223 226
3 153 231 227
3 156 215 123
3 215 198 228
3 152 151 228
3 153 224 229
3 224 221 230
3 149 118 230
3 155 226 231
3 234 151 136
3 235 228 151
3 120 123 228
3 236 246 237
3 249 260 250
3 254 379 255
3 238 237 259
3 261 271 262
3 251 250 264
3 272 279 273
3 263 262 277
3 183 289 280
3 185 280 281
3 184 281 282
3 139 282 283
3 182 290 289
3 137 283 291
3 292 217 222
3 294 296 232
3 293 222 296
3 299 301 233
3 298 232 296
3 300 296 301
3 302 268 303
3 270 276 233
3 270 301 303
3 306 308 214
3 307 303 308
3 310 214 308
3 311 312 308
3 313 222 225
3 315 317 296
3 315 314 225
3 316 296 222
3 239 318 301
3 248 296 317
3 241 317 318
3 254 301 296
3 319 323 303
3 321 301 318
3 322 318 323
3 320 303 301
3 324 327 308
3 326 328 303
3 326 323 327
3 325 308 303
3 249 308 327
3 258 327 216
3 251 219 308
3 329 225 227
3 331 333 332
3 330 227 332
3 331 317 225
3 334 338 318
3 336 317 332
3 337 332 338
3 336 335 318
3 265 339 323
3 261 318 338
3 267 338 339
3 263 323 318
3 340 344 327
3 342 323 339
3 343 339 344
3 341 327 323
3 347 327 344
3 348 344 199
3 346 216 327
3 349 278 231
3 349 226 332
3 272 227 231
3 274 332 227
3 244 226 223
3 242 223 338
3 351 332 226
3 350 338 332
3 352 223 220
3 353 220 339
3 355 338 223
3 354 339 338
3 356 220 196
3 358 357 196
3 359 339 220
3 359 358 344
3 236 344 196
3 238 199 344
3 360 408 361
3 363 413 364
3 366 407 367
3 369 275 269
3 371 415 372
3 374 406 243
3 376 416 377
3 379 247 240
3 380 412 381
3 262 271 266
3 383 411 384
3 386 419 387
3 389 409 390
3 392 417 393
3 237 246 253
3 395 414 396
3 250 260 257
3 273 279 398
3 400 410 401
3 403 418 404
3 305 407 366
3 350 374 375
3 248 247 379
3 304 366 368
3 341 389 391
3 351 406 374
3 292 408 360
3 295 360 362
3 342 409 389
3 331 400 402
3 320 383 385
3 329 410 400
3 310 413 363
3 354 380 382
3 321 411 383
3 309 363 365
3 346 395 397
3 355 412 380
3 298 415 371
3 297 371 373
3 335 376 378
3 347 414 395
3 325 392 394
3 336 416 376
3 358 386 388
3 328 417 392
3 316 403 405
3 359 419 386
3 276 275 369
3 274 273 399
3 313 418 403
3 302 369 370
3 289 146 179
3 280 179 178
3 281 178 176
3 282 176 124
3 290 144 146
3 283 124 126
3 119 122 120
3 126 125 141
3 169 172 170
3 171 174 172
3 173 175 174
3 147 141 175
3 129 195 201
3 195 194 202
3 194 119 121
3 203 205 186
3 204 206 205
3 202 121 206
3 207 203 189
3 208 204 203
3 201 202 204
3 209 207 192
3 210 208 207
3 200 201 208
3 211 209 133
3 212 210 209
3 117 200 210
3 205 234 187
3 206 235 234
3 121 120 235
3 188 288 284
3 191 284 285
3 190 285 286
3 134 286 287
3 135 291 288
3 169 421 420
3 286 426 421
3 286 169 142
3 291 126 147
3 423 429 424
3 422 428 420
3 425 420 421
3 173 428 427
3 171 420 428
3 429 431 430
3 428 430 431
3 427 431 429
3 116 127 117
3 130 132 133
3 135 187 136
3 137 136 138
3 125 177 140
3 142 170 143
3 172 145 143
3 174 181 145
3 175 180 181
3 141 140 180
3 182 183 154
3 183 185 168
3 184 165 168
3 139 138 165
3 135 188 186
3 188 191 189
3 190 192 189
3 134 133 192
3 162 233 197
3 198 216 199
3 152 199 213
3 161 197 214
3 215 219 216
3 158 214 218
3 156 218 219
3 148 217 232
3 159 232 233
3 229 211 132
3 230 212 211
3 118 117 212
3 239 255 240
3 242 375 243
3 245 253 246
3 241 240 247
3 252 259 253
3 256 264 257
3 258 257 260
3 265 277 266
3 268 370 269
3 267 266 271
3 270 269 275
3 278 398 279
3 130 287 290
3 292 295 232
3 297 233 232
3 302 197 233
3 304 214 197
3 305 197 303
3 309 218 214
3 311 219 218
3 256 216 219
3 345 199 216
3 238 252 213
3 252 245 196
3 244 243 406
3 307 367 407
3 293 361 408
3 343 390 409
3 306 368 367
3 340 391 390
3 330 401 410
3 294 362 361
3 333 402 401
3 322 384 411
3 353 382 381
3 319 385 384
3 352 381 412
3 312 364 413
3 348 396 414
3 311 365 364
3 345 397 396
3 300 372 415
3 337 377 416
3 299 373 372
3 334 378 377
3 326 393 417
3 357 388 387
3 324 394 393
3 314 404 418
3 356 387 419
3 349 399 398
3 315 405 404
3 288 423 422
3 287 142 144
3 147 427 423
3 284 422 425
3 285 425 426
3 422 424 430
