ply
format ascii 1.0
comment Created by Blender 2.81 (sub 16) - www.blender.org, source file: 'Mettaton.blend'
element vertex 12
property float x
property float y
property float z
element face 20
property list uchar uint vertex_indices
end_header
3.892486 2.339723 -2.952472
3.892486 -3.852080 -1.780863
3.892486 -3.852080 -2.952472
3.892486 2.339723 -1.780863
2.720876 -3.852080 -1.780863
2.720876 2.339723 -1.780863
2.720876 -3.852080 -2.952472
2.720876 2.339723 -2.952472
2.720876 -4.326804 -1.780863
3.892486 -4.326804 -2.952472
3.892486 -4.326804 -1.780863
2.720876 -4.326804 -2.952472
3 0 1 2
3 3 4 1
3 5 6 4
3 7 2 6
3 8 9 10
3 3 7 5
3 6 9 11
3 4 11 8
3 1 8 10
3 2 10 9
3 0 3 1
3 3 5 4
3 5 7 6
3 7 0 2
3 8 11 9
3 3 0 7
3 6 2 9
3 4 6 11
3 1 4 8
3 2 1 10
