ply
format ascii 1.0
comment Created by Blender 2.81 (sub 16) - www.blender.org, source file: 'Mettaton.blend'
element vertex 92
property float x
property float y
property float z
element face 180
property list uchar uint vertex_indices
end_header
4.061091 0.781092 -2.171851
4.061091 1.426378 -2.817137
4.061091 0.781092 -2.817137
10.102295 0.565841 -2.208990
9.587134 0.830048 -2.239164
10.021548 0.392504 -2.224617
10.129158 0.576977 -2.853621
9.661631 1.001447 -2.223401
4.915021 1.325201 -2.831297
4.916982 0.693109 -2.829450
4.915021 1.325202 -2.186010
4.061091 1.426378 -2.171851
5.271605 1.194985 -2.204234
4.916982 0.693109 -2.184164
5.271605 1.194985 -2.849520
5.274620 0.570602 -2.846595
9.613726 0.840916 -2.883811
9.688492 1.012584 -2.868032
9.786591 -0.015026 -2.263221
10.048143 0.403376 -2.869264
9.397234 0.454240 -2.276522
5.274620 0.570602 -2.201308
5.596028 1.029122 -2.227446
5.599918 0.412432 -2.223444
5.895938 0.841221 -2.253742
5.900448 0.232198 -2.248668
6.174272 0.644892 -2.281219
6.183309 0.043496 -2.275076
6.436316 0.453742 -2.307970
6.454704 -0.140093 -2.300769
6.690454 0.281381 -2.332091
6.951047 -0.422474 -2.340288
6.948014 0.043887 -2.458771
6.912257 0.157607 -2.349413
7.007009 -0.446473 -2.343646
7.194693 0.038278 -2.365368
6.966227 0.131260 -2.353027
7.242117 -0.525531 -2.354703
7.472750 -0.067630 -2.374388
7.524510 -0.594064 -2.361246
7.783996 -0.154181 -2.376698
7.851413 -0.655400 -2.362348
8.126221 -0.199994 -2.371776
8.596643 -0.521946 -2.542057
8.471685 -0.181865 -2.359820
8.622423 -0.668520 -2.345685
8.661861 -0.661967 -2.344152
8.838263 -0.072189 -2.338928
8.504981 -0.175313 -2.358232
9.463665 -0.342982 -2.297826
9.066076 -0.560411 -2.325511
9.149008 0.143417 -2.310738
5.599918 0.412431 -2.868731
5.900449 0.232198 -2.893954
6.183309 0.043496 -2.920362
6.454704 -0.140094 -2.946055
6.719562 -0.305022 -2.323851
6.951048 -0.422475 -2.985574
6.974581 -0.340307 -2.452641
7.007010 -0.446474 -2.988932
7.242118 -0.525531 -2.999990
7.525112 -0.594060 -3.006532
8.231132 -0.688393 -3.002473
8.225758 -0.688775 -2.357209
8.631811 -0.667332 -2.990901
9.080645 -0.557506 -2.970626
9.483378 -0.337464 -2.942787
9.810649 -0.006431 -2.908001
9.421250 0.462801 -2.921304
9.169462 0.149396 -2.955672
8.854303 -0.068635 -2.984005
8.671686 -0.660655 -2.989361
8.539598 -0.325247 -2.807649
8.516529 -0.173497 -3.003411
8.482805 -0.180190 -3.005008
7.853776 -0.655326 -3.007630
8.133194 -0.199348 -3.017024
7.787550 -0.154014 -3.021974
7.474009 -0.067609 -3.019673
6.974582 -0.340307 -2.880633
6.966239 0.131260 -2.998313
6.719562 -0.305022 -2.969137
6.912257 0.157607 -2.994699
6.690453 0.281381 -2.977377
6.436316 0.453742 -2.953256
6.174272 0.644892 -2.926505
5.895937 0.841221 -2.899029
5.596028 1.029122 -2.872732
8.535048 -0.325939 -2.547744
7.194822 0.038278 -3.010655
6.948013 0.043887 -2.886762
8.600493 -0.521453 -2.801974
3 0 1 2
3 3 4 5
3 6 7 3
3 2 8 9
3 5 6 3
3 10 1 11
3 12 8 10
3 2 13 0
3 9 14 15
3 0 10 11
3 6 16 17
3 17 4 7
3 18 19 5
3 5 20 18
3 13 12 10
3 21 22 12
3 23 24 22
3 25 26 24
3 27 28 26
3 29 30 28
3 31 32 33
3 34 35 36
3 37 38 35
3 39 40 38
3 41 42 40
3 43 44 45
3 46 47 48
3 49 47 50
3 18 51 49
3 9 21 13
3 15 23 21
3 52 25 23
3 53 27 25
3 54 29 27
3 55 56 29
3 57 58 31
3 59 37 34
3 60 39 37
3 61 41 39
3 41 62 63
3 64 43 45
3 46 65 50
3 50 66 49
3 49 67 18
3 19 68 16
3 67 69 68
3 66 70 69
3 71 72 73
3 62 74 64
3 75 76 62
3 61 77 75
3 60 78 61
3 79 80 59
3 81 82 57
3 55 83 81
3 54 84 55
3 53 85 54
3 52 86 53
3 15 87 52
3 16 20 4
3 68 51 20
3 69 47 51
3 48 72 88
3 74 42 44
3 76 40 42
3 40 78 38
3 38 89 35
3 36 90 32
3 33 83 30
3 30 84 28
3 28 85 26
3 26 86 24
3 24 87 22
3 22 14 12
3 70 48 47
3 71 70 65
3 43 71 46
3 43 48 88
3 72 44 88
3 64 72 91
3 63 64 45
3 63 44 42
3 32 82 33
3 57 90 79
3 81 31 56
3 56 33 30
3 35 80 36
3 59 89 60
3 58 59 34
3 58 36 32
3 0 11 1
3 2 1 8
3 10 8 1
3 12 14 8
3 9 8 14
3 19 67 68
3 67 66 69
3 66 65 70
3 71 91 72
3 62 76 74
3 75 77 76
3 61 78 77
3 60 89 78
3 79 90 80
3 81 83 82
3 55 84 83
3 54 85 84
3 53 86 85
3 52 87 86
3 15 14 87
3 68 69 51
3 69 70 47
3 48 73 72
3 74 76 42
3 76 77 40
3 40 77 78
3 38 78 89
3 36 80 90
3 33 82 83
3 30 83 84
3 28 84 85
3 26 85 86
3 24 86 87
3 22 87 14
3 70 73 48
3 71 73 70
3 43 91 71
3 43 46 48
3 35 89 80
3 59 80 89
3 58 79 59
3 58 34 36
3 3 7 4
3 6 17 7
3 5 19 6
3 2 9 13
3 0 13 10
3 6 19 16
3 17 16 4
3 18 67 19
3 5 4 20
3 13 21 12
3 21 23 22
3 23 25 24
3 25 27 26
3 27 29 28
3 29 56 30
3 31 58 32
3 34 37 35
3 37 39 38
3 39 41 40
3 41 63 42
3 43 88 44
3 46 50 47
3 49 51 47
3 18 20 51
3 9 15 21
3 15 52 23
3 52 53 25
3 53 54 27
3 54 55 29
3 55 81 56
3 57 79 58
3 59 60 37
3 60 61 39
3 61 75 41
3 41 75 62
3 64 91 43
3 46 71 65
3 50 65 66
3 49 66 67
3 16 68 20
3 72 74 44
3 64 74 72
3 63 62 64
3 63 45 44
3 32 90 82
3 57 82 90
3 81 57 31
3 56 31 33
