ply
format ascii 1.0
comment Created by Blender 2.81 (sub 16) - www.blender.org, source file: 'Mettaton.blend'
element vertex 384
property float x
property float y
property float z
element face 720
property list uchar uint vertex_indices
end_header
2.316055 1.426378 -2.817137
2.316055 0.781092 -2.171851
2.316055 0.781092 -2.817137
-3.209989 0.830048 -2.239164
-3.725150 0.565841 -2.208990
-3.644403 0.392504 -2.224617
-3.284484 1.001447 -2.223401
-3.752012 0.576977 -2.853621
1.462125 1.325201 -2.831297
1.460164 0.693109 -2.829450
-3.670998 0.403376 -2.869264
1.462125 1.325202 -2.186010
1.105541 1.194985 -2.204234
1.105541 1.194985 -2.849520
1.460164 0.693109 -2.184164
1.102526 0.570602 -2.846595
-3.236580 0.840916 -2.883811
-3.311347 1.012584 -2.868032
-3.409445 -0.015026 -2.263221
-3.433503 -0.006431 -2.908001
-3.020088 0.454240 -2.276522
1.102526 0.570602 -2.201308
0.781117 1.029122 -2.227446
0.777228 0.412432 -2.223444
0.481208 0.841221 -2.253742
0.476697 0.232198 -2.248668
0.202874 0.644892 -2.281219
0.193837 0.043496 -2.275076
-0.059171 0.453742 -2.307970
-0.077558 -0.140093 -2.300769
-0.313308 0.281381 -2.332091
-0.342416 -0.305022 -2.323851
-0.593176 -0.432254 -2.341656
-0.568289 0.081189 -2.417812
-0.600015 -0.377609 -2.410493
-0.617219 -0.442222 -2.343051
-0.817547 0.038278 -2.365368
-0.864971 -0.525531 -2.354703
-1.095604 -0.067630 -2.374388
-1.147365 -0.594064 -2.361246
-1.406850 -0.154181 -2.376698
-1.474267 -0.655400 -2.362348
-1.749075 -0.199994 -2.371776
-1.848612 -0.688775 -2.357209
-2.233912 -0.669101 -2.346015
-2.134929 -0.257704 -2.458974
-2.239538 -0.590595 -2.449315
-2.284982 -0.661900 -2.344140
-2.461117 -0.072189 -2.338928
-2.688931 -0.560411 -2.325511
-3.086519 -0.342982 -2.297826
-2.771862 0.143417 -2.310738
0.777227 0.412431 -2.868731
0.476697 0.232198 -2.893954
0.193837 0.043496 -2.920362
-0.077558 -0.140094 -2.946055
-0.593176 -0.432254 -2.986943
-0.617220 -0.442222 -2.988338
-0.864973 -0.525531 -2.999990
-1.147966 -0.594060 -3.006532
-1.853986 -0.688393 -3.002473
-1.476630 -0.655326 -3.007630
-2.243186 -0.667935 -2.991232
-2.703499 -0.557506 -2.970626
-2.294810 -0.660587 -2.989348
-3.106233 -0.337464 -2.942787
-3.044105 0.462801 -2.921304
-2.792316 0.149396 -2.955672
-2.477158 -0.068635 -2.984005
-2.142657 -0.256528 -2.900387
-2.246078 -0.589758 -2.890748
-2.095643 -0.180739 -3.005352
-1.756048 -0.199348 -3.017024
-1.410404 -0.154014 -3.021974
-1.096863 -0.067609 -3.019673
-0.576801 0.136260 -2.997650
-0.600015 -0.377609 -2.921591
-0.553579 0.147301 -2.996142
-0.342416 -0.305022 -2.969137
-0.313307 0.281381 -2.977377
-0.059171 0.453742 -2.953256
0.202874 0.644892 -2.926505
0.481208 0.841221 -2.899029
0.781117 1.029122 -2.872732
-2.128055 -0.175246 -2.358219
-2.139605 -0.173428 -3.003398
-2.084641 -0.182384 -2.360163
-0.817676 0.038278 -3.010655
-0.576795 0.136260 -2.352363
-0.568288 0.081189 -2.928910
-0.553580 0.147301 -2.350855
4.061091 0.781092 -2.171851
4.061091 1.426378 -2.817137
4.061091 0.781092 -2.817137
10.102295 0.565841 -2.208990
9.587134 0.830048 -2.239164
10.021548 0.392504 -2.224617
10.129158 0.576977 -2.853621
9.661631 1.001447 -2.223401
4.915021 1.325201 -2.831297
4.916982 0.693109 -2.829450
4.915021 1.325202 -2.186010
4.061091 1.426378 -2.171851
5.271605 1.194985 -2.204234
4.916982 0.693109 -2.184164
5.271605 1.194985 -2.849520
5.274620 0.570602 -2.846595
9.613726 0.840916 -2.883811
9.688492 1.012584 -2.868032
9.786591 -0.015026 -2.263221
10.048143 0.403376 -2.869264
9.397234 0.454240 -2.276522
5.274620 0.570602 -2.201308
5.596028 1.029122 -2.227446
5.599918 0.412432 -2.223444
5.895938 0.841221 -2.253742
5.900448 0.232198 -2.248668
6.174272 0.644892 -2.281219
6.183309 0.043496 -2.275076
6.436316 0.453742 -2.307970
6.454704 -0.140093 -2.300769
6.690454 0.281381 -2.332091
6.951047 -0.422474 -2.340288
6.948014 0.043887 -2.458771
6.912257 0.157607 -2.349413
7.007009 -0.446473 -2.343646
7.194693 0.038278 -2.365368
6.966227 0.131260 -2.353027
7.242117 -0.525531 -2.354703
7.472750 -0.067630 -2.374388
7.524510 -0.594064 -2.361246
7.783996 -0.154181 -2.376698
7.851413 -0.655400 -2.362348
8.126221 -0.199994 -2.371776
8.596643 -0.521946 -2.542057
8.471685 -0.181865 -2.359820
8.622423 -0.668520 -2.345685
8.661861 -0.661967 -2.344152
8.838263 -0.072189 -2.338928
8.504981 -0.175313 -2.358232
9.463665 -0.342982 -2.297826
9.066076 -0.560411 -2.325511
9.149008 0.143417 -2.310738
5.599918 0.412431 -2.868731
5.900449 0.232198 -2.893954
6.183309 0.043496 -2.920362
6.454704 -0.140094 -2.946055
6.719562 -0.305022 -2.323851
6.951048 -0.422475 -2.985574
6.974581 -0.340307 -2.452641
7.007010 -0.446474 -2.988932
7.242118 -0.525531 -2.999990
7.525112 -0.594060 -3.006532
8.231132 -0.688393 -3.002473
8.225758 -0.688775 -2.357209
8.631811 -0.667332 -2.990901
9.080645 -0.557506 -2.970626
9.483378 -0.337464 -2.942787
9.810649 -0.006431 -2.908001
9.421250 0.462801 -2.921304
9.169462 0.149396 -2.955672
8.854303 -0.068635 -2.984005
8.671686 -0.660655 -2.989361
8.539598 -0.325247 -2.807649
8.516529 -0.173497 -3.003411
8.482805 -0.180190 -3.005008
7.853776 -0.655326 -3.007630
8.133194 -0.199348 -3.017024
7.787550 -0.154014 -3.021974
7.474009 -0.067609 -3.019673
6.974582 -0.340307 -2.880633
6.966239 0.131260 -2.998313
6.719562 -0.305022 -2.969137
6.912257 0.157607 -2.994699
6.690453 0.281381 -2.977377
6.436316 0.453742 -2.953256
6.174272 0.644892 -2.926505
5.895937 0.841221 -2.899029
5.596028 1.029122 -2.872732
8.535048 -0.325939 -2.547744
7.194822 0.038278 -3.010655
6.948013 0.043887 -2.886762
8.600493 -0.521453 -2.801974
2.316055 1.426378 -2.171851
-2.872656 1.509871 -3.444345
-3.352393 1.734524 -2.213346
-2.796241 1.357730 -1.829488
-4.069087 1.562028 -2.195683
-4.374512 0.977869 -1.790593
-4.450927 1.130009 -3.405449
-3.387093 1.803611 -2.946654
-4.174959 0.252800 -1.895345
-2.722768 0.767208 -3.494407
-2.648881 0.620099 -1.932954
-4.103787 1.631115 -2.928991
-4.127150 0.680395 -3.256048
-4.248847 0.399909 -3.456798
-4.070117 0.566845 -2.050801
-2.949208 0.963905 -3.285078
-2.958623 1.003450 -3.280907
-4.136565 0.719940 -3.251877
-2.892176 0.850355 -2.079831
-4.079533 0.606390 -2.046630
-2.901591 0.889900 -2.075660
-3.190561 1.635847 -2.256707
-3.743224 2.092031 -2.204843
-3.743151 1.635847 -2.257483
-3.742375 1.635847 -2.810072
-3.189785 1.491789 -2.809297
-3.742375 1.491789 -2.810072
-3.743151 1.491789 -2.257483
-3.190561 1.491789 -2.256707
-3.189859 2.092031 -2.756656
-3.189785 1.635847 -2.809297
-3.742449 2.092031 -2.757432
-3.201200 2.918643 -2.887105
-3.742851 2.414098 -2.471121
-3.190261 2.414098 -2.470345
-3.179259 2.703795 -3.395744
-3.751920 2.946806 -2.922758
-3.742075 2.414098 -3.023710
-3.189486 2.414098 -3.022935
-3.190635 2.092031 -2.204067
-3.775799 2.141626 -2.250196
-4.027787 1.470895 -2.303613
-3.548578 1.746056 -2.302837
-4.027114 1.471281 -2.856202
-3.476172 1.621514 -2.855427
-3.955381 1.346353 -2.856202
-3.476845 1.621128 -2.302837
-3.956054 1.345967 -2.303613
-3.775126 2.142012 -2.802786
-3.547905 1.746442 -2.855427
-4.254335 1.866851 -2.803562
-4.196569 2.853207 -2.933234
-4.415056 2.145949 -2.517251
-3.935847 2.421110 -2.516475
-4.070560 2.677815 -3.441874
-4.688181 2.603401 -2.968887
-4.414383 2.146336 -3.069840
-3.935174 2.421496 -3.069064
-4.255008 1.866465 -2.250972
-3.996546 1.437570 -2.412747
-4.552743 1.381526 -2.372289
-4.299798 1.131220 -2.413352
-4.219508 1.052593 -2.844412
-3.996121 1.438000 -2.843807
-3.916256 1.358943 -2.843807
-3.916682 1.358513 -2.412747
-4.219935 1.052163 -2.413352
-4.249064 1.688306 -2.802743
-4.552318 1.381957 -2.803348
-4.299373 1.131650 -2.844412
-4.713553 2.135650 -2.904502
-4.731089 1.558479 -2.580005
-4.427835 1.864829 -2.579400
-4.582403 2.029909 -3.301278
-5.031392 1.845793 -2.932314
-4.730663 1.558909 -3.011065
-4.427410 1.865259 -3.010459
-4.249491 1.687876 -2.371684
-2.966146 0.972557 -2.435550
-2.928449 1.613372 -2.403399
-3.232560 1.362174 -2.288671
-3.471834 1.361627 -2.721220
-3.294257 0.892701 -2.818858
-3.560671 1.282318 -2.671978
-3.321397 1.282865 -2.239428
-3.054983 0.893248 -2.386308
-2.901309 1.223208 -2.982829
-3.205420 0.972010 -2.868100
-3.167722 1.612825 -2.835949
-2.453591 1.686283 -3.364419
-2.845138 1.790417 -2.721924
-2.578723 1.400800 -2.868804
-2.796105 1.552531 -3.694792
-2.716863 2.090086 -3.254953
-3.084412 1.789871 -3.154474
-2.817997 1.400254 -3.301353
-2.662035 1.223755 -2.550280
9.184354 1.509871 -3.444345
9.664091 1.734524 -2.213346
9.698792 1.803611 -2.946654
9.107939 1.357730 -1.829488
10.380785 1.562028 -2.195683
10.762625 1.130009 -3.405449
10.686211 0.977869 -1.790593
10.415485 1.631115 -2.928991
9.034466 0.767208 -3.494407
10.486656 0.252800 -1.895345
8.960579 0.620099 -1.932954
10.438848 0.680395 -3.256048
10.560545 0.399909 -3.456798
10.381815 0.566845 -2.050801
9.203875 0.850355 -2.079831
9.260906 0.963905 -3.285078
10.448263 0.719940 -3.251877
10.391231 0.606390 -2.046630
9.213289 0.889900 -2.075660
9.270321 1.003450 -3.280907
9.502259 1.635847 -2.256707
10.054922 2.092031 -2.204843
9.502333 2.092031 -2.204067
9.501484 1.491789 -2.809297
10.054073 1.635847 -2.810072
10.054073 1.491789 -2.810072
10.054849 1.491789 -2.257483
9.502259 1.491789 -2.256707
9.501557 2.092031 -2.756656
9.501484 1.635847 -2.809297
10.054148 2.092031 -2.757432
10.054849 1.635847 -2.257483
10.054548 2.414098 -2.471121
9.512898 2.918643 -2.887105
9.501959 2.414098 -2.470345
10.041676 2.731958 -3.431397
9.490957 2.703795 -3.395744
10.053773 2.414098 -3.023710
10.063618 2.946806 -2.922758
9.501184 2.414098 -3.022935
10.339485 1.470895 -2.303613
10.087497 2.141626 -2.250196
9.860275 1.746056 -2.302837
9.787870 1.621514 -2.855427
10.338812 1.471281 -2.856202
10.267079 1.346353 -2.856202
9.788543 1.621128 -2.302837
10.086823 2.142012 -2.802786
9.859604 1.746442 -2.855427
10.566033 1.866851 -2.803562
10.267752 1.345967 -2.303613
10.566706 1.866465 -2.250972
10.726754 2.145949 -2.517251
10.508267 2.853207 -2.933234
10.247545 2.421110 -2.516475
10.382257 2.677815 -3.441874
10.999880 2.603401 -2.968887
10.873869 2.428010 -3.477527
10.726082 2.146336 -3.069840
10.246872 2.421496 -3.069064
10.308245 1.437570 -2.412747
10.864441 1.381526 -2.372289
10.561190 1.687876 -2.371684
10.531206 1.052593 -2.844412
10.307819 1.438000 -2.843807
10.611071 1.131650 -2.844412
10.228380 1.358513 -2.412747
10.611496 1.131220 -2.413352
10.560762 1.688306 -2.802743
10.864016 1.381957 -2.803348
10.531633 1.052163 -2.413352
10.227954 1.358943 -2.843807
11.042787 1.558479 -2.580005
11.025251 2.135650 -2.904502
10.739533 1.864829 -2.579400
10.894100 2.029909 -3.301278
11.343091 1.845793 -2.932314
11.211940 1.740052 -3.329090
11.042360 1.558909 -3.011065
10.739108 1.865259 -3.010459
9.277843 0.972557 -2.435550
9.240147 1.613372 -2.403399
8.973732 1.223755 -2.550280
9.605955 0.892701 -2.818858
9.783531 1.361627 -2.721220
9.872370 1.282318 -2.671978
9.633095 1.282865 -2.239428
9.366680 0.893248 -2.386308
9.213007 1.223208 -2.982829
9.517118 0.972010 -2.868100
9.479420 1.612825 -2.835949
9.544258 1.362174 -2.288671
9.156836 1.790417 -2.721924
8.765289 1.686283 -3.364419
8.890421 1.400800 -2.868804
9.107803 1.552531 -3.694792
9.028561 2.090086 -3.254953
9.371075 1.956335 -3.585326
9.396110 1.789871 -3.154474
9.129696 1.400254 -3.301353
-3.729978 2.731958 -3.431397
-4.562171 2.428010 -3.477527
-4.900243 1.740052 -3.329090
-3.059377 1.956335 -3.585326
3 0 1 2
3 3 4 5
3 6 7 4
3 8 2 9
3 5 7 10
3 11 0 8
3 12 8 13
3 14 2 1
3 13 9 15
3 1 11 14
3 7 16 10
3 3 17 6
3 18 10 19
3 20 5 18
3 14 12 21
3 21 22 23
3 23 24 25
3 25 26 27
3 27 28 29
3 29 30 31
3 32 33 34
3 35 36 37
3 37 38 39
3 39 40 41
3 41 42 43
3 44 45 46
3 47 48 49
3 48 50 49
3 51 18 50
3 21 9 14
3 23 15 21
3 25 52 23
3 27 53 25
3 29 54 27
3 31 55 29
3 34 56 32
3 37 57 35
3 39 58 37
3 41 59 39
3 41 60 61
3 46 62 44
3 47 63 64
3 49 65 63
3 50 19 65
3 10 66 19
3 19 67 65
3 65 68 63
3 64 69 70
3 71 60 62
3 72 61 60
3 73 59 61
3 74 58 59
3 75 76 57
3 77 78 56
3 79 55 78
3 80 54 55
3 81 53 54
3 82 52 53
3 83 15 52
3 20 16 3
3 51 66 20
3 48 67 51
3 84 69 85
3 42 71 86
3 40 72 42
3 40 74 73
3 38 87 74
3 88 89 75
3 90 79 77
3 30 80 79
3 28 81 80
3 26 82 81
3 24 83 82
3 22 13 83
3 91 92 93
3 94 95 96
3 97 98 94
3 93 99 100
3 96 97 94
3 101 92 102
3 103 99 101
3 93 104 91
3 100 105 106
3 91 101 102
3 97 107 108
3 108 95 98
3 109 110 96
3 96 111 109
3 104 103 101
3 112 113 103
3 114 115 113
3 116 117 115
3 118 119 117
3 120 121 119
3 122 123 124
3 125 126 127
3 128 129 126
3 130 131 129
3 132 133 131
3 134 135 136
3 137 138 139
3 140 138 141
3 109 142 140
3 100 112 104
3 106 114 112
3 143 116 114
3 144 118 116
3 145 120 118
3 146 147 120
3 148 149 122
3 150 128 125
3 151 130 128
3 152 132 130
3 132 153 154
3 155 134 136
3 137 156 141
3 141 157 140
3 140 158 109
3 110 159 107
3 158 160 159
3 157 161 160
3 162 163 164
3 153 165 155
3 166 167 153
3 152 168 166
3 151 169 152
3 170 171 150
3 172 173 148
3 146 174 172
3 145 175 146
3 144 176 145
3 143 177 144
3 106 178 143
3 107 111 95
3 159 142 111
3 160 138 142
3 139 163 179
3 165 133 135
3 167 131 133
3 131 169 129
3 129 180 126
3 127 181 123
3 124 174 121
3 121 175 119
3 119 176 117
3 117 177 115
3 115 178 113
3 113 105 103
3 161 139 138
3 162 161 156
3 134 162 137
3 134 139 179
3 163 135 179
3 155 163 182
3 154 155 136
3 154 135 133
3 123 173 124
3 148 181 170
3 172 122 147
3 147 124 121
3 126 171 127
3 150 180 151
3 149 150 125
3 149 127 123
3 84 68 48
3 68 64 63
3 46 64 70
3 46 84 47
3 86 69 45
3 69 62 70
3 43 62 60
3 43 86 44
3 36 75 87
3 87 57 58
3 34 57 76
3 34 88 35
3 90 89 33
3 89 56 76
3 32 78 31
3 31 90 32
3 8 0 2
3 11 183 0
3 12 11 8
3 13 8 9
3 18 5 10
3 32 90 33
3 46 70 62
3 10 16 66
3 19 66 67
3 65 67 68
3 71 72 60
3 72 73 61
3 73 74 59
3 74 87 58
3 77 79 78
3 79 80 55
3 80 81 54
3 81 82 53
3 82 83 52
3 83 13 15
3 48 68 67
3 42 72 71
3 40 73 72
3 40 38 74
3 38 36 87
3 90 30 79
3 30 28 80
3 28 26 81
3 26 24 82
3 24 22 83
3 22 12 13
3 91 102 92
3 93 92 99
3 101 99 92
3 103 105 99
3 100 99 105
3 110 158 159
3 158 157 160
3 157 156 161
3 162 182 163
3 153 167 165
3 166 168 167
3 152 169 168
3 151 180 169
3 170 181 171
3 172 174 173
3 146 175 174
3 145 176 175
3 144 177 176
3 143 178 177
3 106 105 178
3 159 160 142
3 160 161 138
3 139 164 163
3 165 167 133
3 167 168 131
3 131 168 169
3 129 169 180
3 127 171 181
3 124 173 174
3 121 174 175
3 119 175 176
3 117 176 177
3 115 177 178
3 113 178 105
3 161 164 139
3 162 164 161
3 134 182 162
3 134 137 139
3 126 180 171
3 150 171 180
3 149 170 150
3 149 125 127
3 84 85 68
3 68 85 64
3 86 71 69
3 69 71 62
3 36 88 75
3 87 75 57
3 90 77 89
3 89 77 56
3 23 22 24
3 25 24 26
3 27 26 28
3 29 28 30
3 35 88 36
3 34 76 56
3 116 118 117
3 118 120 119
3 120 147 121
3 125 128 126
3 128 130 129
3 130 132 131
3 132 154 133
3 144 145 118
3 145 146 120
3 146 172 147
3 150 151 128
3 151 152 130
3 152 166 132
3 172 148 122
3 147 122 124
3 31 30 90
3 20 3 5
3 37 36 38
3 39 38 40
3 41 40 42
3 44 86 45
3 47 84 48
3 48 51 50
3 51 20 18
3 47 49 63
3 49 50 65
3 50 18 19
3 96 95 111
3 137 141 138
3 140 142 138
3 109 111 142
3 107 159 111
3 154 136 135
3 43 42 86
3 0 183 1
3 3 6 4
3 6 17 7
3 5 4 7
3 14 9 2
3 1 183 11
3 7 17 16
3 3 16 17
3 14 11 12
3 21 12 22
3 21 15 9
3 23 52 15
3 25 53 52
3 27 54 53
3 29 55 54
3 31 78 55
3 37 58 57
3 39 59 58
3 41 61 59
3 41 43 60
3 64 85 69
3 75 89 76
3 20 66 16
3 51 67 66
3 84 45 69
3 88 33 89
3 94 98 95
3 97 108 98
3 96 110 97
3 93 100 104
3 91 104 101
3 97 110 107
3 108 107 95
3 109 158 110
3 104 112 103
3 112 114 113
3 114 116 115
3 122 149 123
3 134 179 135
3 100 106 112
3 106 143 114
3 143 144 116
3 148 170 149
3 132 166 153
3 155 182 134
3 137 162 156
3 141 156 157
3 140 157 158
3 163 165 135
3 155 165 163
3 154 153 155
3 123 181 173
3 148 173 181
3 46 47 64
3 46 45 84
3 43 44 62
3 34 35 57
3 34 33 88
3 32 56 78
3 184 185 186
3 186 187 188
3 187 189 188
3 189 190 184
3 191 192 193
3 187 190 194
3 195 192 196
3 197 196 191
3 193 197 191
3 198 193 192
3 195 199 198
3 197 200 195
3 201 202 197
3 198 203 201
3 189 199 200
3 188 200 202
3 203 188 202
3 184 203 199
3 204 205 206
3 207 208 209
3 204 210 211
3 212 204 213
3 207 212 213
3 206 209 210
3 213 211 208
3 206 214 207
3 215 216 217
3 209 211 210
3 218 219 215
3 219 220 216
3 220 218 221
3 221 215 217
3 217 205 222
3 212 217 222
3 214 221 212
3 216 214 205
3 223 224 225
3 226 227 228
3 229 224 230
3 231 225 232
3 226 231 232
3 224 228 230
3 232 229 227
3 224 233 226
3 234 235 236
3 228 229 230
3 237 238 234
3 238 239 235
3 239 237 240
3 240 234 236
3 236 241 223
3 231 236 223
3 233 240 231
3 235 233 241
3 242 243 244
3 245 246 247
3 248 244 249
3 250 242 246
3 251 246 252
3 244 245 249
3 246 248 247
3 244 251 252
3 253 254 255
3 245 248 249
3 256 257 253
3 257 258 254
3 258 256 259
3 259 253 255
3 260 254 243
3 250 255 260
3 251 259 250
3 254 251 243
3 261 262 263
3 264 265 266
3 261 267 268
3 269 261 270
3 264 269 270
3 267 264 266
3 270 268 265
3 263 271 264
3 272 273 274
3 266 268 267
3 275 276 272
3 276 277 273
3 277 275 278
3 278 272 274
3 279 273 262
3 269 274 279
3 277 269 271
3 273 271 262
3 280 281 282
3 283 284 281
3 285 284 286
3 285 282 287
3 288 289 290
3 284 282 281
3 288 291 292
3 292 293 289
3 290 293 294
3 290 295 288
3 295 296 291
3 291 297 293
3 294 297 298
3 294 299 295
3 299 285 296
3 296 286 297
3 298 286 283
3 299 283 280
3 300 301 302
3 303 304 305
3 306 300 307
3 300 308 309
3 304 308 310
3 305 311 306
3 307 309 303
3 311 310 301
3 312 313 314
3 305 307 303
3 313 315 316
3 317 318 312
3 317 316 315
3 319 313 316
3 301 314 302
3 308 314 319
3 308 317 310
3 310 312 301
3 320 321 322
3 323 324 325
3 326 320 322
3 322 327 328
3 324 327 329
3 325 320 330
3 326 328 323
3 320 329 331
3 332 333 334
3 325 326 323
3 335 336 337
3 338 336 332
3 338 335 337
3 339 333 335
3 331 334 321
3 327 334 339
3 329 339 338
3 329 332 331
3 340 341 342
3 343 344 345
3 346 347 340
3 340 348 344
3 344 349 345
3 350 345 347
3 346 344 351
3 347 349 341
3 352 353 354
3 343 346 351
3 355 356 357
3 358 356 352
3 358 355 357
3 359 353 355
3 342 352 354
3 348 354 359
3 349 359 358
3 349 352 341
3 360 361 362
3 363 364 365
3 366 360 367
3 360 368 369
3 369 370 364
3 366 364 371
3 367 369 363
3 371 370 361
3 372 373 374
3 366 363 365
3 375 376 377
3 378 376 372
3 378 375 377
3 379 373 375
3 362 372 374
3 368 374 379
3 368 378 370
3 370 372 361
3 184 190 185
3 187 194 189
3 189 194 190
3 187 185 190
3 195 198 192
3 197 195 196
3 198 201 193
3 195 200 199
3 197 202 200
3 189 184 199
3 188 189 200
3 207 214 212
3 218 380 219
3 219 380 220
3 220 380 218
3 214 220 221
3 216 220 214
3 226 233 231
3 224 241 233
3 237 381 238
3 238 381 239
3 233 239 240
3 235 239 233
3 250 260 242
3 251 250 246
3 256 382 257
3 259 256 253
3 250 259 255
3 251 258 259
3 263 262 271
3 275 383 276
3 276 383 277
3 277 383 275
3 277 278 269
3 273 277 271
3 280 283 281
3 285 280 282
3 284 287 282
3 288 295 291
3 290 294 295
3 295 299 296
3 294 298 299
3 299 280 285
3 299 298 283
3 300 302 308
3 304 309 308
3 313 318 315
3 317 319 316
3 319 314 313
3 308 302 314
3 308 319 317
3 322 321 327
3 324 328 327
3 335 333 336
3 338 339 335
3 339 334 333
3 327 321 334
3 329 327 339
3 340 342 348
3 344 348 349
3 355 353 356
3 358 359 355
3 359 354 353
3 348 342 354
3 349 348 359
3 360 362 368
3 372 376 373
3 375 373 376
3 379 374 373
3 362 361 372
3 368 362 374
3 186 185 187
3 193 201 197
3 201 203 202
3 203 186 188
3 204 222 205
3 206 205 214
3 215 219 216
3 217 216 205
3 223 241 224
3 234 238 235
3 236 235 241
3 242 260 243
3 244 243 251
3 253 257 254
3 257 382 258
3 260 255 254
3 254 258 251
3 261 279 262
3 272 276 273
3 279 274 273
3 283 286 284
3 290 289 293
3 294 293 297
3 298 297 286
3 300 311 301
3 312 318 313
3 301 312 314
3 320 331 321
3 332 336 333
3 331 332 334
3 340 347 341
3 352 356 353
3 342 341 352
3 360 371 361
3 371 364 370
3 378 377 376
3 370 378 372
3 191 196 192
3 198 199 203
3 184 186 203
3 207 213 208
3 204 206 210
3 212 222 204
3 206 207 209
3 213 204 211
3 209 208 211
3 221 218 215
3 212 221 217
3 226 232 227
3 229 225 224
3 231 223 225
3 224 226 228
3 232 225 229
3 228 227 229
3 239 381 237
3 240 237 234
3 231 240 236
3 245 252 246
3 248 242 244
3 244 252 245
3 246 242 248
3 245 247 248
3 258 382 256
3 264 270 265
3 261 263 267
3 269 279 261
3 264 271 269
3 267 263 264
3 270 261 268
3 266 265 268
3 278 275 272
3 269 278 274
3 285 287 284
3 288 292 289
3 292 291 293
3 291 296 297
3 296 285 286
3 303 309 304
3 306 311 300
3 305 304 311
3 307 300 309
3 311 304 310
3 305 306 307
3 317 315 318
3 310 317 312
3 323 328 324
3 326 330 320
3 325 324 320
3 326 322 328
3 320 324 329
3 325 330 326
3 338 337 336
3 329 338 332
3 343 351 344
3 346 350 347
3 350 343 345
3 346 340 344
3 347 345 349
3 343 350 346
3 358 357 356
3 349 358 352
3 363 369 364
3 366 371 360
3 369 368 370
3 366 365 364
3 367 360 369
3 366 367 363
3 378 379 375
3 368 379 378
