ply
format ascii 1.0
comment Created by Blender 2.81 (sub 16) - www.blender.org, source file: 'Mettaton.blend'
element vertex 92
property float x
property float y
property float z
element face 180
property list uchar uint vertex_indices
end_header
2.316055 1.426378 -2.817137
2.316055 0.781092 -2.171851
2.316055 0.781092 -2.817137
-3.209989 0.830048 -2.239164
-3.725150 0.565841 -2.208990
-3.644403 0.392504 -2.224617
-3.284484 1.001447 -2.223401
-3.752012 0.576977 -2.853621
1.462125 1.325201 -2.831297
1.460164 0.693109 -2.829450
-3.670998 0.403376 -2.869264
1.462125 1.325202 -2.186010
1.105541 1.194985 -2.204234
1.105541 1.194985 -2.849520
1.460164 0.693109 -2.184164
1.102526 0.570602 -2.846595
-3.236580 0.840916 -2.883811
-3.311347 1.012584 -2.868032
-3.409445 -0.015026 -2.263221
-3.433503 -0.006431 -2.908001
-3.020088 0.454240 -2.276522
1.102526 0.570602 -2.201308
0.781117 1.029122 -2.227446
0.777228 0.412432 -2.223444
0.481208 0.841221 -2.253742
0.476697 0.232198 -2.248668
0.202874 0.644892 -2.281219
0.193837 0.043496 -2.275076
-0.059171 0.453742 -2.307970
-0.077558 -0.140093 -2.300769
-0.313308 0.281381 -2.332091
-0.342416 -0.305022 -2.323851
-0.593176 -0.432254 -2.341656
-0.568289 0.081189 -2.417812
-0.600015 -0.377609 -2.410493
-0.617219 -0.442222 -2.343051
-0.817547 0.038278 -2.365368
-0.864971 -0.525531 -2.354703
-1.095604 -0.067630 -2.374388
-1.147365 -0.594064 -2.361246
-1.406850 -0.154181 -2.376698
-1.474267 -0.655400 -2.362348
-1.749075 -0.199994 -2.371776
-1.848612 -0.688775 -2.357209
-2.233912 -0.669101 -2.346015
-2.134929 -0.257704 -2.458974
-2.239538 -0.590595 -2.449315
-2.284982 -0.661900 -2.344140
-2.461117 -0.072189 -2.338928
-2.688931 -0.560411 -2.325511
-3.086519 -0.342982 -2.297826
-2.771862 0.143417 -2.310738
0.777227 0.412431 -2.868731
0.476697 0.232198 -2.893954
0.193837 0.043496 -2.920362
-0.077558 -0.140094 -2.946055
-0.593176 -0.432254 -2.986943
-0.617220 -0.442222 -2.988338
-0.864973 -0.525531 -2.999990
-1.147966 -0.594060 -3.006532
-1.853986 -0.688393 -3.002473
-1.476630 -0.655326 -3.007630
-2.243186 -0.667935 -2.991232
-2.703499 -0.557506 -2.970626
-2.294810 -0.660587 -2.989348
-3.106233 -0.337464 -2.942787
-3.044105 0.462801 -2.921304
-2.792316 0.149396 -2.955672
-2.477158 -0.068635 -2.984005
-2.142657 -0.256528 -2.900387
-2.246078 -0.589758 -2.890748
-2.095643 -0.180739 -3.005352
-1.756048 -0.199348 -3.017024
-1.410404 -0.154014 -3.021974
-1.096863 -0.067609 -3.019673
-0.576801 0.136260 -2.997650
-0.600015 -0.377609 -2.921591
-0.553579 0.147301 -2.996142
-0.342416 -0.305022 -2.969137
-0.313307 0.281381 -2.977377
-0.059171 0.453742 -2.953256
0.202874 0.644892 -2.926505
0.481208 0.841221 -2.899029
0.781117 1.029122 -2.872732
-2.128055 -0.175246 -2.358219
-2.139605 -0.173428 -3.003398
-2.084641 -0.182384 -2.360163
-0.817676 0.038278 -3.010655
-0.576795 0.136260 -2.352363
-0.568288 0.081189 -2.928910
-0.553580 0.147301 -2.350855
2.316055 1.426378 -2.171851
3 0 1 2
3 3 4 5
3 6 7 4
3 8 2 9
3 5 7 10
3 11 0 8
3 12 8 13
3 14 2 1
3 13 9 15
3 1 11 14
3 7 16 10
3 3 17 6
3 18 10 19
3 20 5 18
3 14 12 21
3 21 22 23
3 23 24 25
3 25 26 27
3 27 28 29
3 29 30 31
3 32 33 34
3 35 36 37
3 37 38 39
3 39 40 41
3 41 42 43
3 44 45 46
3 47 48 49
3 48 50 49
3 51 18 50
3 21 9 14
3 23 15 21
3 25 52 23
3 27 53 25
3 29 54 27
3 31 55 29
3 34 56 32
3 37 57 35
3 39 58 37
3 41 59 39
3 41 60 61
3 46 62 44
3 47 63 64
3 49 65 63
3 50 19 65
3 10 66 19
3 19 67 65
3 65 68 63
3 64 69 70
3 71 60 62
3 72 61 60
3 73 59 61
3 74 58 59
3 75 76 57
3 77 78 56
3 79 55 78
3 80 54 55
3 81 53 54
3 82 52 53
3 83 15 52
3 20 16 3
3 51 66 20
3 48 67 51
3 84 69 85
3 42 71 86
3 40 72 42
3 40 74 73
3 38 87 74
3 88 89 75
3 90 79 77
3 30 80 79
3 28 81 80
3 26 82 81
3 24 83 82
3 22 13 83
3 84 68 48
3 68 64 63
3 46 64 70
3 46 84 47
3 86 69 45
3 69 62 70
3 43 62 60
3 43 86 44
3 36 75 87
3 87 57 58
3 34 57 76
3 34 88 35
3 90 89 33
3 89 56 76
3 32 78 31
3 31 90 32
3 8 0 2
3 11 91 0
3 12 11 8
3 13 8 9
3 18 5 10
3 32 90 33
3 46 70 62
3 10 16 66
3 19 66 67
3 65 67 68
3 71 72 60
3 72 73 61
3 73 74 59
3 74 87 58
3 77 79 78
3 79 80 55
3 80 81 54
3 81 82 53
3 82 83 52
3 83 13 15
3 48 68 67
3 42 72 71
3 40 73 72
3 40 38 74
3 38 36 87
3 90 30 79
3 30 28 80
3 28 26 81
3 26 24 82
3 24 22 83
3 22 12 13
3 84 85 68
3 68 85 64
3 86 71 69
3 69 71 62
3 36 88 75
3 87 75 57
3 90 77 89
3 89 77 56
3 0 91 1
3 3 6 4
3 6 17 7
3 5 4 7
3 14 9 2
3 1 91 11
3 7 17 16
3 3 16 17
3 20 3 5
3 14 11 12
3 21 12 22
3 23 22 24
3 25 24 26
3 27 26 28
3 29 28 30
3 35 88 36
3 37 36 38
3 39 38 40
3 41 40 42
3 44 86 45
3 47 84 48
3 48 51 50
3 51 20 18
3 21 15 9
3 23 52 15
3 25 53 52
3 27 54 53
3 29 55 54
3 31 78 55
3 34 76 56
3 37 58 57
3 39 59 58
3 41 61 59
3 41 43 60
3 47 49 63
3 49 50 65
3 50 18 19
3 64 85 69
3 75 89 76
3 20 66 16
3 51 67 66
3 84 45 69
3 88 33 89
3 46 47 64
3 46 45 84
3 43 44 62
3 43 42 86
3 34 35 57
3 34 33 88
3 32 56 78
3 31 30 90
