ply
format ascii 1.0
comment Created by Blender 2.81 (sub 16) - www.blender.org, source file: 'cloud.blend'
element vertex 420
property float x
property float y
property float z
property float nx
property float ny
property float nz
element face 140
property list uchar uint vertex_indices
end_header
1.506606 0.801799 0.372363 0.476906 0.776983 0.410923
1.519023 0.533743 0.864799 0.476906 0.776983 0.410923
1.939409 0.554128 0.338366 0.476906 0.776983 0.410923
2.153603 0.006604 0.321263 0.913077 0.006018 -0.407744
1.926838 -0.331320 -0.191530 0.913077 0.006018 -0.407744
1.914848 0.327771 -0.208650 0.913077 0.006018 -0.407744
1.576802 0.622958 -0.204456 0.267085 0.445900 -0.854306
1.596751 0.008147 -0.519116 0.267085 0.445900 -0.854306
0.844280 0.492288 -0.501669 0.267085 0.445900 -0.854306
0.650722 0.826439 -0.057870 0.087893 0.813826 -0.574423
1.576802 0.622958 -0.204456 0.087893 0.813826 -0.574423
0.844280 0.492288 -0.501669 0.087893 0.813826 -0.574423
1.576802 0.622958 -0.204456 0.164876 0.947570 -0.273727
0.650722 0.826439 -0.057870 0.164876 0.947570 -0.273727
1.506606 0.801799 0.372363 0.164876 0.947570 -0.273727
1.506606 0.801799 0.372363 -0.000198 0.998341 0.057571
0.650722 0.826439 -0.057870 -0.000198 0.998341 0.057571
0.594800 0.795770 0.473772 -0.000198 0.998341 0.057571
0.650722 0.826439 -0.057870 0.161635 0.986413 -0.029395
0.031931 0.916165 -0.449489 0.161635 0.986413 -0.029395
0.200762 0.923309 0.718616 0.161635 0.986413 -0.029395
0.200762 0.923309 0.718616 0.054181 0.994626 0.088227
-0.152379 1.006520 -0.002590 0.054181 0.994626 0.088227
-0.189982 0.917925 1.019281 0.054181 0.994626 0.088227
0.692644 0.499398 0.928100 0.485501 0.768919 0.415996
0.200762 0.923309 0.718616 0.485501 0.768919 0.415996
0.174367 0.606910 1.334247 0.485501 0.768919 0.415996
0.174367 0.606910 1.334247 0.035524 0.731348 0.681079
-0.189982 0.917925 1.019281 0.035524 0.731348 0.681079
-0.191806 0.329239 1.651512 0.035524 0.731348 0.681079
-0.189982 0.917925 1.019281 0.032278 0.731433 0.681148
-0.631327 0.585960 1.396667 0.032278 0.731433 0.681148
-0.191806 0.329239 1.651512 0.032278 0.731433 0.681148
-0.631327 0.585960 1.396667 -0.301864 0.862666 0.405814
-0.189982 0.917925 1.019281 -0.301864 0.862666 0.405814
-0.536200 0.906389 0.786270 -0.301864 0.862666 0.405814
-0.536200 0.906389 0.786270 -0.458926 0.814102 0.355843
-1.154860 0.569127 0.759983 -0.458926 0.814102 0.355843
-0.631327 0.585960 1.396667 -0.458926 0.814102 0.355843
-1.154860 0.569127 0.759983 -0.477406 0.862754 0.166550
-0.536200 0.906389 0.786270 -0.477406 0.862754 0.166550
-0.930507 0.795325 0.231337 -0.477406 0.862754 0.166550
0.011010 -0.925513 -0.435238 -0.199812 -0.663314 -0.721172
-0.815451 -0.553494 -0.548426 -0.199812 -0.663314 -0.721172
-0.185209 -0.310606 -0.946446 -0.199812 -0.663314 -0.721172
-0.763098 -0.782814 -0.127059 -0.323772 -0.847345 -0.420925
-0.815451 -0.553494 -0.548426 -0.323772 -0.847345 -0.420925
0.011010 -0.925513 -0.435238 -0.323772 -0.847345 -0.420925
-0.187619 -0.876922 1.092230 -0.299183 -0.867889 0.396557
-0.636432 -0.582198 1.398645 -0.299183 -0.867889 0.396557
-0.359424 -1.002420 0.687953 -0.299183 -0.867889 0.396557
-0.636432 -0.582198 1.398645 -0.247007 -0.418040 0.874202
-0.183779 -0.358659 1.633438 -0.247007 -0.418040 0.874202
-0.658602 -0.091228 1.627160 -0.247007 -0.418040 0.874202
-0.191806 0.329239 1.651512 -0.028183 -0.026584 0.999249
-0.658602 -0.091228 1.627160 -0.028183 -0.026584 0.999249
-0.183779 -0.358659 1.633438 -0.028183 -0.026584 0.999249
-0.631327 0.585960 1.396667 -0.257182 0.320644 0.911617
-0.793809 0.156300 1.501953 -0.257182 0.320644 0.911617
-0.658602 -0.091228 1.627160 -0.257182 0.320644 0.911617
0.727844 -0.277668 1.068589 0.565019 -0.342376 0.750688
0.179900 0.008125 1.611354 0.565019 -0.342376 0.750688
0.185783 -0.611651 1.324257 0.565019 -0.342376 0.750688
0.750461 0.148277 1.078982 0.070737 -0.028086 0.997099
0.727844 -0.277668 1.068589 0.070737 -0.028086 0.997099
1.730082 -0.171573 1.000476 0.070737 -0.028086 0.997099
0.930286 -0.000732 -0.657402 0.340103 -0.004194 -0.940379
0.168467 -0.345271 -0.931389 0.340103 -0.004194 -0.940379
0.171153 0.341385 -0.933480 0.340103 -0.004194 -0.940379
0.844280 0.492288 -0.501669 0.452808 0.339422 -0.824475
0.930286 -0.000732 -0.657402 0.452808 0.339422 -0.824475
0.171153 0.341385 -0.933480 0.452808 0.339422 -0.824475
0.031931 0.916165 -0.449489 0.297784 0.656064 -0.693473
0.844280 0.492288 -0.501669 0.297784 0.656064 -0.693473
0.171153 0.341385 -0.933480 0.297784 0.656064 -0.693473
1.596751 0.008147 -0.519116 0.195718 -0.334738 -0.921762
0.833010 -0.502580 -0.495811 0.195718 -0.334738 -0.921762
0.930286 -0.000732 -0.657402 0.195718 -0.334738 -0.921762
0.930286 -0.000732 -0.657402 0.453549 -0.351608 -0.818942
0.833010 -0.502580 -0.495811 0.453549 -0.351608 -0.818942
0.168467 -0.345271 -0.931389 0.453549 -0.351608 -0.818942
1.940888 -0.554633 0.339287 0.478453 -0.853731 -0.205491
1.509143 -0.802153 0.362380 0.478453 -0.853731 -0.205491
1.575166 -0.625266 -0.218787 0.478453 -0.853731 -0.205491
1.926838 -0.331320 -0.191530 0.622521 -0.715341 -0.317419
1.940888 -0.554633 0.339287 0.622521 -0.715341 -0.317419
1.575166 -0.625266 -0.218787 0.622521 -0.715341 -0.317419
1.529929 -0.529008 0.869309 0.471258 -0.784379 0.403318
1.509143 -0.802153 0.362380 0.471258 -0.784379 0.403318
1.940888 -0.554633 0.339287 0.471258 -0.784379 0.403318
0.534502 -0.852420 -0.083366 0.171868 -0.947703 -0.268923
1.575166 -0.625266 -0.218787 0.171868 -0.947703 -0.268923
1.509143 -0.802153 0.362380 0.171868 -0.947703 -0.268923
0.168726 -0.935799 0.727652 0.102111 -0.961512 0.255084
-0.187619 -0.876922 1.092230 0.102111 -0.961512 0.255084
-0.359424 -1.002420 0.687953 0.102111 -0.961512 0.255084
-0.852833 0.000000 -0.797279 0.043227 -0.407251 -0.912293
-0.815451 -0.553494 -0.548426 0.043227 -0.407251 -0.912293
-1.528645 0.000000 -0.829301 0.043227 -0.407251 -0.912293
-0.827270 0.545984 -0.554919 0.043303 0.403645 -0.913890
-0.852833 0.000000 -0.797279 0.043303 0.403645 -0.913890
-1.528645 0.000000 -0.829301 0.043303 0.403645 -0.913890
-1.528645 0.000000 -0.829301 -0.280955 -0.300924 -0.911323
-1.760401 -0.561921 -0.572303 -0.280955 -0.300924 -0.911323
-2.025918 -0.000688 -0.675768 -0.280955 -0.300924 -0.911323
-1.168966 -0.493788 0.813569 -0.342233 -0.551351 0.760847
-1.854835 -0.161187 0.746082 -0.342233 -0.551351 0.760847
-1.968020 -0.634446 0.352222 -0.342233 -0.551351 0.760847
-2.051673 0.667329 0.009131 -0.368993 0.864677 -0.340849
-1.601706 0.837786 -0.045569 -0.368993 0.864677 -0.340849
-1.759817 0.562666 -0.572335 -0.368993 0.864677 -0.340849
0.692644 0.499398 0.928100 0.054197 0.841621 0.537343
1.506606 0.801799 0.372363 0.054197 0.841621 0.537343
0.594800 0.795770 0.473772 0.054197 0.841621 0.537343
-2.280448 0.191256 0.316071 -0.996561 -0.012601 0.081904
-2.324791 0.001160 -0.252714 -0.996561 -0.012601 0.081904
-2.276649 -0.211601 0.300307 -0.996561 -0.012601 0.081904
-2.051673 0.667329 0.009131 -0.706057 0.590911 0.390266
-2.280448 0.191256 0.316071 -0.706057 0.590911 0.390266
-1.824542 0.606791 0.511710 -0.706057 0.590911 0.390266
-2.280448 0.191256 0.316071 -0.914650 0.399435 -0.062191
-2.051673 0.667329 0.009131 -0.914650 0.399435 -0.062191
-2.324791 0.001160 -0.252714 -0.914650 0.399435 -0.062191
-0.920755 -0.790298 0.381661 -0.073786 -0.841455 0.535265
-1.168966 -0.493788 0.813569 -0.073786 -0.841455 0.535265
-1.628772 -0.770909 0.314542 -0.073786 -0.841455 0.535265
-0.793809 0.156300 1.501953 -0.727215 -0.050979 0.684514
-1.198034 -0.004251 1.060555 -0.727215 -0.050979 0.684514
-0.658602 -0.091228 1.627160 -0.727215 -0.050979 0.684514
-1.154860 0.569127 0.759983 -0.724708 0.361938 0.586344
-1.198034 -0.004251 1.060555 -0.724708 0.361938 0.586344
-0.631327 0.585960 1.396667 -0.724708 0.361938 0.586344
-1.154860 0.569127 0.759983 -0.275125 0.462539 0.842831
-1.815122 0.189165 0.752974 -0.275125 0.462539 0.842831
-1.198034 -0.004251 1.060555 -0.275125 0.462539 0.842831
-1.854835 -0.161187 0.746082 -0.298436 -0.443985 0.844875
-1.168966 -0.493788 0.813569 -0.298436 -0.443985 0.844875
-1.198034 -0.004251 1.060555 -0.298436 -0.443985 0.844875
-1.198034 -0.004251 1.060555 -0.709639 -0.323391 0.625964
-0.636432 -0.582198 1.398645 -0.709639 -0.323391 0.625964
-0.658602 -0.091228 1.627160 -0.709639 -0.323391 0.625964
0.185783 -0.611651 1.324257 0.317663 -0.836950 0.445652
-0.187619 -0.876922 1.092230 0.317663 -0.836950 0.445652
0.168726 -0.935799 0.727652 0.317663 -0.836950 0.445652
-0.359424 -1.002420 0.687953 -0.474776 -0.828792 0.296129
-1.168966 -0.493788 0.813569 -0.474776 -0.828792 0.296129
-0.920755 -0.790298 0.381661 -0.474776 -0.828792 0.296129
0.168467 -0.345271 -0.931389 -0.030680 -0.644758 -0.763771
0.011010 -0.925513 -0.435238 -0.030680 -0.644758 -0.763771
-0.185209 -0.310606 -0.946446 -0.030680 -0.644758 -0.763771
0.031931 0.916165 -0.449489 -0.039351 0.638016 -0.769017
0.171153 0.341385 -0.933480 -0.039351 0.638016 -0.769017
-0.196035 0.311245 -0.939696 -0.039351 0.638016 -0.769017
-0.782059 0.788603 -0.097528 -0.271942 0.915269 -0.297205
-0.152379 1.006520 -0.002590 -0.271942 0.915269 -0.297205
0.031931 0.916165 -0.449489 -0.271942 0.915269 -0.297205
1.506606 0.801799 0.372363 0.473493 0.855944 -0.207761
1.939409 0.554128 0.338366 0.473493 0.855944 -0.207761
1.576802 0.622958 -0.204456 0.473493 0.855944 -0.207761
2.153603 0.006604 0.321263 0.912077 0.362778 -0.191070
1.914848 0.327771 -0.208650 0.912077 0.362778 -0.191070
1.939409 0.554128 0.338366 0.912077 0.362778 -0.191070
2.153603 0.006604 0.321263 0.919099 -0.353912 -0.173217
1.940888 -0.554633 0.339287 0.919099 -0.353912 -0.173217
1.926838 -0.331320 -0.191530 0.919099 -0.353912 -0.173217
2.153603 0.006604 0.321263 0.841931 0.315698 0.437592
1.939409 0.554128 0.338366 0.841931 0.315698 0.437592
1.745218 0.188881 0.975497 0.841931 0.315698 0.437592
1.940888 -0.554633 0.339287 0.842014 -0.304839 0.445067
2.153603 0.006604 0.321263 0.842014 -0.304839 0.445067
1.730082 -0.171573 1.000476 0.842014 -0.304839 0.445067
1.519023 0.533743 0.864799 0.626305 0.578525 0.522542
1.745218 0.188881 0.975497 0.626305 0.578525 0.522542
1.939409 0.554128 0.338366 0.626305 0.578525 0.522542
1.576802 0.622958 -0.204456 0.367953 0.433067 -0.822838
1.914848 0.327771 -0.208650 0.367953 0.433067 -0.822838
1.596751 0.008147 -0.519116 0.367953 0.433067 -0.822838
1.529929 -0.529008 0.869309 0.644618 -0.554213 0.526607
1.940888 -0.554633 0.339287 0.644618 -0.554213 0.526607
1.730082 -0.171573 1.000476 0.644618 -0.554213 0.526607
1.596751 0.008147 -0.519116 0.401073 -0.403581 -0.822352
1.926838 -0.331320 -0.191530 0.401073 -0.403581 -0.822352
1.575166 -0.625266 -0.218787 0.401073 -0.403581 -0.822352
1.745218 0.188881 0.975497 0.082525 0.353255 0.931880
1.519023 0.533743 0.864799 0.082525 0.353255 0.931880
0.750461 0.148277 1.078982 0.082525 0.353255 0.931880
0.844280 0.492288 -0.501669 0.187941 0.325500 -0.926676
1.596751 0.008147 -0.519116 0.187941 0.325500 -0.926676
0.930286 -0.000732 -0.657402 0.187941 0.325500 -0.926676
1.596751 0.008147 -0.519116 0.255193 -0.421328 -0.870264
1.575166 -0.625266 -0.218787 0.255193 -0.421328 -0.870264
0.833010 -0.502580 -0.495811 0.255193 -0.421328 -0.870264
-0.191806 0.329239 1.651512 -0.330998 0.315973 0.889158
-0.631327 0.585960 1.396667 -0.330998 0.315973 0.889158
-0.658602 -0.091228 1.627160 -0.330998 0.315973 0.889158
0.844280 0.492288 -0.501669 0.393855 0.808616 -0.437058
0.031931 0.916165 -0.449489 0.393855 0.808616 -0.437058
0.650722 0.826439 -0.057870 0.393855 0.808616 -0.437058
0.534502 -0.852420 -0.083366 0.347649 -0.935665 0.060598
0.593092 -0.794523 0.474456 0.347649 -0.935665 0.060598
0.168726 -0.935799 0.727652 0.347649 -0.935665 0.060598
0.833010 -0.502580 -0.495811 0.292145 -0.666094 -0.686273
0.011010 -0.925513 -0.435238 0.292145 -0.666094 -0.686273
0.168467 -0.345271 -0.931389 0.292145 -0.666094 -0.686273
0.031931 0.916165 -0.449489 -0.315064 0.850960 -0.420241
-0.827270 0.545984 -0.554919 -0.315064 0.850960 -0.420241
-0.782059 0.788603 -0.097528 -0.315064 0.850960 -0.420241
-0.631327 0.585960 1.396667 -0.741928 0.410480 0.530140
-1.198034 -0.004251 1.060555 -0.741928 0.410480 0.530140
-0.793809 0.156300 1.501953 -0.741928 0.410480 0.530140
0.750461 0.148277 1.078982 0.616106 0.394427 0.681792
0.692644 0.499398 0.928100 0.616106 0.394427 0.681792
0.174367 0.606910 1.334247 0.616106 0.394427 0.681792
0.179900 0.008125 1.611354 0.594735 0.342158 0.727474
0.750461 0.148277 1.078982 0.594735 0.342158 0.727474
0.174367 0.606910 1.334247 0.594735 0.342158 0.727474
0.179900 0.008125 1.611354 0.688297 -0.054199 0.723402
0.727844 -0.277668 1.068589 0.688297 -0.054199 0.723402
0.750461 0.148277 1.078982 0.688297 -0.054199 0.723402
0.179900 0.008125 1.611354 0.085861 -0.025168 0.995989
-0.191806 0.329239 1.651512 0.085861 -0.025168 0.995989
-0.183779 -0.358659 1.633438 0.085861 -0.025168 0.995989
-0.187619 -0.876922 1.092230 0.083442 -0.720028 0.688910
0.185783 -0.611651 1.324257 0.083442 -0.720028 0.688910
-0.183779 -0.358659 1.633438 0.083442 -0.720028 0.688910
-1.168966 -0.493788 0.813569 -0.472299 -0.827019 0.304916
-0.359424 -1.002420 0.687953 -0.472299 -0.827019 0.304916
-0.636432 -0.582198 1.398645 -0.472299 -0.827019 0.304916
-1.154860 0.569127 0.759983 -0.282259 0.475108 0.833428
-1.824542 0.606791 0.511710 -0.282259 0.475108 0.833428
-1.815122 0.189165 0.752974 -0.282259 0.475108 0.833428
-1.759817 0.562666 -0.572335 -0.732080 0.441111 -0.519114
-2.025918 -0.000688 -0.675768 -0.732080 0.441111 -0.519114
-2.324791 0.001160 -0.252714 -0.732080 0.441111 -0.519114
-1.904054 -0.745658 -0.186488 -0.738186 -0.459659 -0.493757
-2.324791 0.001160 -0.252714 -0.738186 -0.459659 -0.493757
-1.760401 -0.561921 -0.572303 -0.738186 -0.459659 -0.493757
-2.025918 -0.000688 -0.675768 -0.733471 -0.442173 -0.516239
-1.760401 -0.561921 -0.572303 -0.733471 -0.442173 -0.516239
-2.324791 0.001160 -0.252714 -0.733471 -0.442173 -0.516239
2.153603 0.006604 0.321263 0.848427 0.001055 0.529311
1.745218 0.188881 0.975497 0.848427 0.001055 0.529311
1.730082 -0.171573 1.000476 0.848427 0.001055 0.529311
1.914848 0.327771 -0.208650 0.701415 -0.005754 -0.712730
1.926838 -0.331320 -0.191530 0.701415 -0.005754 -0.712730
1.596751 0.008147 -0.519116 0.701415 -0.005754 -0.712730
-0.763098 -0.782814 -0.127059 -0.299903 -0.947963 -0.106888
-0.359424 -1.002420 0.687953 -0.299903 -0.947963 -0.106888
-0.920755 -0.790298 0.381661 -0.299903 -0.947963 -0.106888
-0.152379 1.006520 -0.002590 0.331578 0.941899 -0.053685
0.200762 0.923309 0.718616 0.331578 0.941899 -0.053685
0.031931 0.916165 -0.449489 0.331578 0.941899 -0.053685
0.594800 0.795770 0.473772 0.496438 0.772099 0.396751
0.200762 0.923309 0.718616 0.496438 0.772099 0.396751
0.692644 0.499398 0.928100 0.496438 0.772099 0.396751
-0.536200 0.906389 0.786270 -0.152233 0.984344 -0.088837
-0.782059 0.788603 -0.097528 -0.152233 0.984344 -0.088837
-0.930507 0.795325 0.231337 -0.152233 0.984344 -0.088837
0.031931 0.916165 -0.449489 -0.195844 0.660895 -0.724475
-0.196035 0.311245 -0.939696 -0.195844 0.660895 -0.724475
-0.827270 0.545984 -0.554919 -0.195844 0.660895 -0.724475
1.509143 -0.802153 0.362380 0.059318 -0.838347 0.541900
0.803079 -0.519454 0.877017 0.059318 -0.838347 0.541900
0.593092 -0.794523 0.474456 0.059318 -0.838347 0.541900
-0.187619 -0.876922 1.092230 -0.002082 -0.722242 0.691637
-0.183779 -0.358659 1.633438 -0.002082 -0.722242 0.691637
-0.636432 -0.582198 1.398645 -0.002082 -0.722242 0.691637
0.534502 -0.852420 -0.083366 0.004291 -0.994694 0.102789
1.509143 -0.802153 0.362380 0.004291 -0.994694 0.102789
0.593092 -0.794523 0.474456 0.004291 -0.994694 0.102789
0.833010 -0.502580 -0.495811 0.094325 -0.791850 -0.603388
1.575166 -0.625266 -0.218787 0.094325 -0.791850 -0.603388
0.534502 -0.852420 -0.083366 0.094325 -0.791850 -0.603388
0.534502 -0.852420 -0.083366 0.158085 -0.986965 -0.030171
0.168726 -0.935799 0.727652 0.158085 -0.986965 -0.030171
0.011010 -0.925513 -0.435238 0.158085 -0.986965 -0.030171
0.833010 -0.502580 -0.495811 0.392401 -0.821821 -0.413076
0.534502 -0.852420 -0.083366 0.392401 -0.821821 -0.413076
0.011010 -0.925513 -0.435238 0.392401 -0.821821 -0.413076
0.727844 -0.277668 1.068589 0.103721 -0.393316 0.913534
1.529929 -0.529008 0.869309 0.103721 -0.393316 0.913534
1.730082 -0.171573 1.000476 0.103721 -0.393316 0.913534
0.803079 -0.519454 0.877017 0.465836 -0.824763 0.320566
0.168726 -0.935799 0.727652 0.465836 -0.824763 0.320566
0.593092 -0.794523 0.474456 0.465836 -0.824763 0.320566
-2.276649 -0.211601 0.300307 -0.808944 -0.587345 0.025198
-1.904054 -0.745658 -0.186488 -0.808944 -0.587345 0.025198
-1.968020 -0.634446 0.352222 -0.808944 -0.587345 0.025198
0.185783 -0.611651 1.324257 0.429323 -0.376256 0.821044
0.179900 0.008125 1.611354 0.429323 -0.376256 0.821044
-0.183779 -0.358659 1.633438 0.429323 -0.376256 0.821044
-1.168966 -0.493788 0.813569 -0.719182 -0.346548 0.602231
-0.636432 -0.582198 1.398645 -0.719182 -0.346548 0.602231
-1.198034 -0.004251 1.060555 -0.719182 -0.346548 0.602231
-0.196035 0.311245 -0.939696 -0.215008 0.006856 -0.976588
-0.185209 -0.310606 -0.946446 -0.215008 0.006856 -0.976588
-0.852833 0.000000 -0.797279 -0.215008 0.006856 -0.976588
-1.528645 0.000000 -0.829301 0.026653 -0.424843 -0.904874
-0.815451 -0.553494 -0.548426 0.026653 -0.424843 -0.904874
-1.760401 -0.561921 -0.572303 0.026653 -0.424843 -0.904874
-1.904054 -0.745658 -0.186488 -0.354824 -0.923076 0.148429
-1.628772 -0.770909 0.314542 -0.354824 -0.923076 0.148429
-1.968020 -0.634446 0.352222 -0.354824 -0.923076 0.148429
-1.628772 -0.770909 0.314542 -0.230214 -0.745140 0.625914
-1.168966 -0.493788 0.813569 -0.230214 -0.745140 0.625914
-1.968020 -0.634446 0.352222 -0.230214 -0.745140 0.625914
-1.824542 0.606791 0.511710 -0.315713 0.914547 0.252841
-1.601706 0.837786 -0.045569 -0.315713 0.914547 0.252841
-2.051673 0.667329 0.009131 -0.315713 0.914547 0.252841
-1.759817 0.562666 -0.572335 -0.281763 0.300399 -0.911247
-1.528645 0.000000 -0.829301 -0.281763 0.300399 -0.911247
-2.025918 -0.000688 -0.675768 -0.281763 0.300399 -0.911247
-1.854835 -0.161187 0.746082 -0.724033 -0.033785 0.688937
-2.280448 0.191256 0.316071 -0.724033 -0.033785 0.688937
-2.276649 -0.211601 0.300307 -0.724033 -0.033785 0.688937
-0.930507 0.795325 0.231337 0.060327 0.998155 0.006829
-0.782059 0.788603 -0.097528 0.060327 0.998155 0.006829
-1.601706 0.837786 -0.045569 0.060327 0.998155 0.006829
-1.760401 -0.561921 -0.572303 -0.006866 -0.901830 -0.432036
-0.763098 -0.782814 -0.127059 -0.006866 -0.901830 -0.432036
-1.904054 -0.745658 -0.186488 -0.006866 -0.901830 -0.432036
-0.763098 -0.782814 -0.127059 -0.030792 -0.998967 -0.033429
-1.628772 -0.770909 0.314542 -0.030792 -0.998967 -0.033429
-1.904054 -0.745658 -0.186488 -0.030792 -0.998967 -0.033429
-0.185209 -0.310606 -0.946446 0.042218 -0.003208 -0.999103
0.171153 0.341385 -0.933480 0.042218 -0.003208 -0.999103
0.168467 -0.345271 -0.931389 0.042218 -0.003208 -0.999103
-0.852833 0.000000 -0.797279 -0.373541 -0.401251 -0.836340
-0.185209 -0.310606 -0.946446 -0.373541 -0.401251 -0.836340
-0.815451 -0.553494 -0.548426 -0.373541 -0.401251 -0.836340
-0.152379 1.006520 -0.002590 -0.088793 0.992603 0.082790
-0.536200 0.906389 0.786270 -0.088793 0.992603 0.082790
-0.189982 0.917925 1.019281 -0.088793 0.992603 0.082790
0.174367 0.606910 1.334247 0.329193 0.834026 0.442756
0.200762 0.923309 0.718616 0.329193 0.834026 0.442756
-0.189982 0.917925 1.019281 0.329193 0.834026 0.442756
-0.930507 0.795325 0.231337 -0.082134 0.928401 0.362388
-1.824542 0.606791 0.511710 -0.082134 0.928401 0.362388
-1.154860 0.569127 0.759983 -0.082134 0.928401 0.362388
1.939409 0.554128 0.338366 0.620074 0.714702 -0.323587
1.914848 0.327771 -0.208650 0.620074 0.714702 -0.323587
1.576802 0.622958 -0.204456 0.620074 0.714702 -0.323587
1.745218 0.188881 0.975497 0.100649 0.064574 0.992824
0.750461 0.148277 1.078982 0.100649 0.064574 0.992824
1.730082 -0.171573 1.000476 0.100649 0.064574 0.992824
1.519023 0.533743 0.864799 0.053339 0.401646 0.914240
0.692644 0.499398 0.928100 0.053339 0.401646 0.914240
0.750461 0.148277 1.078982 0.053339 0.401646 0.914240
0.594800 0.795770 0.473772 0.357519 0.929440 0.091224
0.650722 0.826439 -0.057870 0.357519 0.929440 0.091224
0.200762 0.923309 0.718616 0.357519 0.929440 0.091224
0.727844 -0.277668 1.068589 0.607151 -0.705342 0.365869
0.185783 -0.611651 1.324257 0.607151 -0.705342 0.365869
0.168726 -0.935799 0.727652 0.607151 -0.705342 0.365869
0.168726 -0.935799 0.727652 0.188441 -0.573201 0.797452
0.803079 -0.519454 0.877017 0.188441 -0.573201 0.797452
0.727844 -0.277668 1.068589 0.188441 -0.573201 0.797452
-0.191806 0.329239 1.651512 0.420704 0.384212 0.821821
0.179900 0.008125 1.611354 0.420704 0.384212 0.821821
0.174367 0.606910 1.334247 0.420704 0.384212 0.821821
0.011010 -0.925513 -0.435238 0.127029 -0.991558 -0.025999
0.168726 -0.935799 0.727652 0.127029 -0.991558 -0.025999
-0.359424 -1.002420 0.687953 0.127029 -0.991558 -0.025999
-1.815122 0.189165 0.752974 -0.437828 0.031955 0.898491
-1.854835 -0.161187 0.746082 -0.437828 0.031955 0.898491
-1.198034 -0.004251 1.060555 -0.437828 0.031955 0.898491
-0.827270 0.545984 -0.554919 -0.368381 0.391542 -0.843202
-0.196035 0.311245 -0.939696 -0.368381 0.391542 -0.843202
-0.852833 0.000000 -0.797279 -0.368381 0.391542 -0.843202
-1.601706 0.837786 -0.045569 0.024548 0.883079 -0.468583
-0.827270 0.545984 -0.554919 0.024548 0.883079 -0.468583
-1.759817 0.562666 -0.572335 0.024548 0.883079 -0.468583
-1.759817 0.562666 -0.572335 0.024489 0.423605 -0.905516
-0.827270 0.545984 -0.554919 0.024489 0.423605 -0.905516
-1.528645 0.000000 -0.829301 0.024489 0.423605 -0.905516
-1.824542 0.606791 0.511710 -0.633255 0.376390 0.676254
-2.280448 0.191256 0.316071 -0.633255 0.376390 0.676254
-1.815122 0.189165 0.752974 -0.633255 0.376390 0.676254
-2.051673 0.667329 0.009131 -0.743103 0.485624 -0.460399
-1.759817 0.562666 -0.572335 -0.743103 0.485624 -0.460399
-2.324791 0.001160 -0.252714 -0.743103 0.485624 -0.460399
-1.854835 -0.161187 0.746082 -0.646032 -0.391048 0.655533
-2.276649 -0.211601 0.300307 -0.646032 -0.391048 0.655533
-1.968020 -0.634446 0.352222 -0.646032 -0.391048 0.655533
0.692644 0.499398 0.928100 0.000119 0.878305 0.478100
1.519023 0.533743 0.864799 0.000119 0.878305 0.478100
1.506606 0.801799 0.372363 0.000119 0.878305 0.478100
-0.763098 -0.782814 -0.127059 -0.234225 -0.961594 -0.143091
0.011010 -0.925513 -0.435238 -0.234225 -0.961594 -0.143091
-0.359424 -1.002420 0.687953 -0.234225 -0.961594 -0.143091
1.509143 -0.802153 0.362380 -0.006537 -0.880207 0.474544
1.529929 -0.529008 0.869309 -0.006537 -0.880207 0.474544
0.803079 -0.519454 0.877017 -0.006537 -0.880207 0.474544
0.727844 -0.277668 1.068589 0.000150 -0.620989 0.783819
0.803079 -0.519454 0.877017 0.000150 -0.620989 0.783819
1.529929 -0.529008 0.869309 0.000150 -0.620989 0.783819
-2.276649 -0.211601 0.300307 -0.860989 -0.495310 -0.115608
-2.324791 0.001160 -0.252714 -0.860989 -0.495310 -0.115608
-1.904054 -0.745658 -0.186488 -0.860989 -0.495310 -0.115608
-1.854835 -0.161187 0.746082 -0.682976 0.063103 0.727710
-1.815122 0.189165 0.752974 -0.682976 0.063103 0.727710
-2.280448 0.191256 0.316071 -0.682976 0.063103 0.727710
-1.760401 -0.561921 -0.572303 0.019946 -0.877130 -0.479839
-0.815451 -0.553494 -0.548426 0.019946 -0.877130 -0.479839
-0.763098 -0.782814 -0.127059 0.019946 -0.877130 -0.479839
-0.763098 -0.782814 -0.127059 -0.025234 -0.999428 -0.022523
-0.920755 -0.790298 0.381661 -0.025234 -0.999428 -0.022523
-1.628772 -0.770909 0.314542 -0.025234 -0.999428 -0.022523
-0.185209 -0.310606 -0.946446 0.016012 0.011130 -0.999810
-0.196035 0.311245 -0.939696 0.016012 0.011130 -0.999810
0.171153 0.341385 -0.933480 0.016012 0.011130 -0.999810
-0.152379 1.006520 -0.002590 -0.321902 0.946068 -0.036536
-0.782059 0.788603 -0.097528 -0.321902 0.946068 -0.036536
-0.536200 0.906389 0.786270 -0.321902 0.946068 -0.036536
-0.930507 0.795325 0.231337 -0.086204 0.932069 0.351876
-1.601706 0.837786 -0.045569 -0.086204 0.932069 0.351876
-1.824542 0.606791 0.511710 -0.086204 0.932069 0.351876
-1.601706 0.837786 -0.045569 0.023128 0.882228 -0.470255
-0.782059 0.788603 -0.097528 0.023128 0.882228 -0.470255
-0.827270 0.545984 -0.554919 0.023128 0.882228 -0.470255
3 0 1 2
3 3 4 5
3 6 7 8
3 9 10 11
3 12 13 14
3 15 16 17
3 18 19 20
3 21 22 23
3 24 25 26
3 27 28 29
3 30 31 32
3 33 34 35
3 36 37 38
3 39 40 41
3 42 43 44
3 45 46 47
3 48 49 50
3 51 52 53
3 54 55 56
3 57 58 59
3 60 61 62
3 63 64 65
3 66 67 68
3 69 70 71
3 72 73 74
3 75 76 77
3 78 79 80
3 81 82 83
3 84 85 86
3 87 88 89
3 90 91 92
3 93 94 95
3 96 97 98
3 99 100 101
3 102 103 104
3 105 106 107
3 108 109 110
3 111 112 113
3 114 115 116
3 117 118 119
3 120 121 122
3 123 124 125
3 126 127 128
3 129 130 131
3 132 133 134
3 135 136 137
3 138 139 140
3 141 142 143
3 144 145 146
3 147 148 149
3 150 151 152
3 153 154 155
3 156 157 158
3 159 160 161
3 162 163 164
3 165 166 167
3 168 169 170
3 171 172 173
3 174 175 176
3 177 178 179
3 180 181 182
3 183 184 185
3 186 187 188
3 189 190 191
3 192 193 194
3 195 196 197
3 198 199 200
3 201 202 203
3 204 205 206
3 207 208 209
3 210 211 212
3 213 214 215
3 216 217 218
3 219 220 221
3 222 223 224
3 225 226 227
3 228 229 230
3 231 232 233
3 234 235 236
3 237 238 239
3 240 241 242
3 243 244 245
3 246 247 248
3 249 250 251
3 252 253 254
3 255 256 257
3 258 259 260
3 261 262 263
3 264 265 266
3 267 268 269
3 270 271 272
3 273 274 275
3 276 277 278
3 279 280 281
3 282 283 284
3 285 286 287
3 288 289 290
3 291 292 293
3 294 295 296
3 297 298 299
3 300 301 302
3 303 304 305
3 306 307 308
3 309 310 311
3 312 313 314
3 315 316 317
3 318 319 320
3 321 322 323
3 324 325 326
3 327 328 329
3 330 331 332
3 333 334 335
3 336 337 338
3 339 340 341
3 342 343 344
3 345 346 347
3 348 349 350
3 351 352 353
3 354 355 356
3 357 358 359
3 360 361 362
3 363 364 365
3 366 367 368
3 369 370 371
3 372 373 374
3 375 376 377
3 378 379 380
3 381 382 383
3 384 385 386
3 387 388 389
3 390 391 392
3 393 394 395
3 396 397 398
3 399 400 401
3 402 403 404
3 405 406 407
3 408 409 410
3 411 412 413
3 414 415 416
3 417 418 419
