ply
format ascii 1.0
comment Created by Blender 2.81 (sub 16) - www.blender.org, source file: ''
element vertex 377
property float x
property float y
property float z
element face 571
property list uchar uint vertex_indices
end_header
-0.730263 1.390704 0.476826
-0.627655 1.436499 0.533515
-0.656014 1.486866 0.414302
-0.251784 1.665522 0.141747
-0.092582 1.512207 0.107454
-0.111047 1.511917 0.082116
-0.506890 1.638710 0.287093
-0.302076 1.681483 0.382752
-0.411280 1.670299 0.216978
-0.682713 1.371147 0.355644
-0.558556 1.494234 0.192654
-0.502946 1.499211 0.107780
-0.586351 1.572544 0.352377
-0.823650 1.274935 0.554920
-0.712960 1.330888 0.573692
-0.746173 1.289208 0.431669
-0.558715 1.522888 0.508525
-0.437674 1.616847 0.446887
-1.132408 1.063895 0.743147
-0.952028 1.138791 0.669009
-0.958134 1.150993 0.639916
-0.965570 1.122755 0.631558
-1.135665 1.060933 0.735680
-0.839179 1.198989 0.532867
-0.117497 1.494161 0.077813
-0.408067 1.456287 -0.004807
-0.814317 1.227585 0.616866
-1.220330 1.048708 0.788264
-1.129021 1.068327 0.751647
-0.012217 1.467760 0.034825
-0.621614 1.449380 0.279929
0.615762 1.516543 0.669662
0.644256 1.525261 0.559856
0.542235 1.605001 0.595363
0.178694 1.726959 0.243379
0.093743 1.528373 0.134951
0.080098 1.529489 0.164084
0.387273 1.738621 0.452570
0.432268 1.724362 0.218713
0.293634 1.756308 0.373907
0.312421 1.613702 0.555168
0.205113 1.615030 0.524291
0.469631 1.683025 0.525793
0.891170 1.266683 0.968322
1.005924 1.237624 1.092659
0.904208 1.261003 0.954848
0.880641 1.253694 0.973865
0.759156 1.359956 0.751135
0.707419 1.413525 0.763678
0.592465 1.624469 0.453205
0.519496 1.680896 0.347530
0.054248 1.556389 0.481033
0.695471 1.348403 0.795076
0.073500 1.515188 0.174553
0.493384 1.506681 0.650758
0.693837 1.446927 0.646201
0.590590 1.427833 0.713606
0.029472 1.418741 0.082711
0.399064 1.571796 0.600162
-0.026593 1.529281 0.688073
-0.221989 1.567694 0.536839
-0.201235 1.502541 0.697939
0.017730 1.588960 0.369761
-0.032963 1.481423 0.182303
-0.246677 1.610608 0.329901
-0.116801 1.154943 0.983997
-0.042872 1.076494 1.065450
-0.040598 1.204095 0.962982
-0.033196 0.804874 1.424495
-0.034406 0.918177 1.217950
-0.067089 0.904374 1.224313
-0.036198 1.437743 0.792199
-0.180405 1.393136 0.810804
-0.028239 0.797305 1.422110
-0.003960 0.891282 1.212512
0.026975 1.127122 0.941527
-0.039923 1.325602 0.876202
0.090582 1.337553 0.757976
0.050757 1.240195 0.846703
0.129016 1.405872 0.666290
-0.009425 1.585819 0.554621
-0.093574 1.026136 1.085114
-0.148671 1.280618 0.899300
0.001487 1.007154 1.058319
0.173411 1.437953 0.562882
0.229190 1.424111 0.413570
0.016568 1.469751 0.186649
-0.025016 0.767823 1.524762
-0.014352 0.800206 1.421619
-0.010771 1.480932 0.183126
0.016542 1.443838 0.070718
-0.000446 1.448675 0.065169
-0.008781 1.451431 0.068582
0.691536 1.664024 -0.414195
0.657257 1.663072 -0.548700
0.572113 1.750752 -0.469798
0.182572 1.796795 -0.111349
0.102985 1.567529 -0.007359
0.331912 1.723104 0.075800
0.399439 1.874556 -0.315307
0.443470 1.818231 -0.082128
0.546273 1.795793 -0.216484
0.531659 1.645872 -0.534944
0.645963 1.563371 -0.602752
0.299595 1.873230 -0.249032
0.328186 1.736266 -0.437137
0.227432 1.726943 -0.403490
0.490135 1.826888 -0.394451
0.429265 1.703147 -0.483768
0.751396 1.582034 -0.521501
0.765502 1.560038 -0.641924
0.759718 1.485134 -0.682755
0.632912 1.753132 -0.314320
1.040602 1.449566 -0.938140
0.926479 1.453391 -0.762773
1.048740 1.448359 -0.930823
0.880761 1.440558 -0.801162
1.035509 1.444450 -0.943278
0.891212 1.475050 -0.779309
0.082172 1.557399 -0.050905
0.086619 1.626006 -0.365380
0.828517 1.498389 -0.630830
1.103314 1.457438 -1.004677
0.026329 1.476166 0.026918
0.087288 1.571233 -0.038258
0.034080 1.479582 0.038696
0.628944 1.499119 0.181489
0.610231 1.490992 0.084580
0.561777 1.552388 0.147070
0.183443 1.624323 0.037225
0.084747 1.486014 0.014481
0.080444 1.494046 0.037479
0.405065 1.646866 0.094796
0.348446 1.608995 -0.075298
0.308740 1.658692 0.078538
0.545051 1.485990 0.224922
0.309497 1.573529 0.229007
0.389981 1.566727 0.215631
0.488910 1.606047 0.117596
0.714137 1.437408 0.222222
0.665329 1.436974 0.131900
0.616747 1.434602 0.238103
0.545940 1.552184 0.037757
0.455819 1.591484 -0.007392
0.981639 1.333438 0.328110
0.848951 1.346910 0.251538
0.833887 1.367464 0.273109
0.831150 1.343885 0.293169
0.979605 1.330556 0.333452
0.711618 1.383049 0.261190
0.079674 1.485427 0.053457
0.196188 1.536766 0.247763
0.744591 1.383340 0.189516
1.038127 1.332604 0.347084
0.984300 1.331739 0.320627
0.016335 1.442621 0.036393
0.016820 1.443786 0.019477
0.469665 1.534779 0.217422
-0.013398 1.461599 0.034335
-0.087618 1.518373 -0.039276
-0.101921 1.532375 0.001254
-0.381651 1.665703 -0.350273
-0.330410 1.776707 -0.153491
-0.284474 1.662546 -0.336656
-0.196904 1.746788 -0.052647
-0.446971 1.741534 0.025860
-0.305475 1.695306 0.160451
-0.599780 1.585231 -0.427259
-0.722612 1.592590 -0.416146
-0.630016 1.667973 -0.337389
-0.445401 1.770578 -0.204490
-0.563608 1.692914 -0.090280
-0.543166 1.725466 -0.274083
-0.486185 1.634868 -0.385586
-0.654224 1.661348 -0.185238
-0.725056 1.591639 -0.290870
-0.716930 1.527235 -0.477134
-0.835792 1.513313 -0.510796
-0.786572 1.537659 -0.383045
-0.976423 1.447305 -0.631462
-0.840879 1.464855 -0.556035
-0.969134 1.418634 -0.655589
-1.149561 1.423494 -0.763785
-1.146849 1.419572 -0.767787
-0.144765 1.604606 -0.325182
-0.883803 1.465386 -0.501426
-1.240425 1.431851 -0.826222
-1.157459 1.421458 -0.753461
-1.004115 1.422902 -0.613848
0.013541 1.542478 -0.621102
0.207678 1.611873 -0.481314
0.196596 1.536572 -0.640859
-0.027101 1.607173 -0.308058
0.033324 1.501542 -0.122716
0.231391 1.629444 -0.278702
0.126318 1.184922 -0.925442
0.056473 1.101481 -1.004866
0.046978 1.226948 -0.900754
0.057557 0.832017 -1.366691
0.054648 0.944558 -1.159761
0.088336 0.932640 -1.166520
0.031299 1.455740 -0.725020
0.182645 1.436133 -0.755217
0.053014 0.824358 -1.364332
0.024874 0.914903 -1.153493
-0.012429 1.145480 -0.887971
0.041815 1.345826 -0.809885
-0.083684 1.357938 -0.696242
-0.044382 1.258898 -0.787752
-0.130652 1.419762 -0.603212
-0.000963 1.600500 -0.491095
0.109784 1.054972 -1.026934
0.146911 1.313551 -0.840763
0.013355 1.029382 -1.000657
-0.176240 1.447276 -0.499255
-0.226183 1.430135 -0.350444
-0.010943 1.483740 -0.128360
0.049686 0.797517 -1.457986
0.038982 0.825971 -1.363495
0.007060 1.462947 -0.003533
0.009862 1.497842 -0.124056
0.022696 1.469995 -0.002926
-0.113941 1.674456 0.325435
-0.024301 1.457048 0.024488
0.000064 1.474200 0.050642
0.324660 1.683996 0.057966
0.025638 1.417212 0.092956
0.036975 1.423073 0.072462
-0.000628 1.462132 0.009180
0.212431 1.569019 -0.134839
0.015371 1.443075 0.026048
0.000617 1.453186 -0.000513
-0.011374 1.460776 -0.002577
-0.154083 0.605481 -0.043206
-0.164888 0.632013 -0.129295
-0.124996 0.580423 -0.075411
0.054266 0.643636 -0.125410
0.042878 0.605782 -0.027293
0.031447 0.580487 -0.063812
-0.134813 0.509795 -0.119208
-0.047792 0.557622 -0.035067
-0.167916 0.712269 -0.196908
-0.065870 0.703206 -0.230091
-0.140840 0.680841 -0.193235
0.031463 0.723076 -0.213954
0.014517 0.680848 -0.200449
-0.074809 0.465044 -0.186329
0.052792 0.489354 -0.030001
-0.035714 0.477884 -0.002690
-0.087810 0.745281 -0.009056
-0.019856 0.772332 -0.042525
-0.071549 0.214761 -0.190272
0.010607 0.460568 -0.206269
0.034115 0.182027 -0.206904
-0.027027 0.378058 0.029107
-0.109943 0.370529 -0.043918
-0.079061 0.341502 -0.095544
-0.061236 0.345378 -0.036784
0.088703 0.381580 0.020723
0.097478 0.492838 -0.074648
0.086377 0.462532 -0.160268
0.155504 0.229155 -0.136354
-0.134428 0.362865 -0.112119
0.144210 0.324997 -0.019728
0.054208 0.178601 0.059912
0.004866 0.344405 0.019569
-0.033646 0.176848 0.083026
0.090316 0.345392 -0.001519
0.134829 0.298724 -0.031464
0.052000 0.176546 -0.157622
0.118630 0.222731 -0.100667
-0.102151 0.178601 0.023364
0.072996 -0.011566 0.154018
-0.038960 -0.013173 0.193686
-0.201605 0.823223 -0.087552
-0.197845 0.654726 -0.117054
0.079123 0.667217 -0.111551
-0.108852 0.489343 -0.059691
-0.197472 0.962448 -0.062255
-0.127022 1.080777 0.013229
-0.150706 1.124886 -0.036736
-0.094642 0.903494 0.031050
-0.160875 0.910346 0.007289
-0.038492 0.910361 -0.011009
-0.079147 1.072171 0.028041
-0.024332 0.962318 -0.088038
-0.042960 1.080776 0.000878
-0.137710 1.248796 -0.008044
-0.080456 1.290370 0.046202
-0.099488 1.330818 0.008266
-0.033497 1.260105 -0.092876
-0.003506 1.321990 -0.003229
-0.003271 1.229077 -0.027717
-0.019296 1.182875 0.037346
-0.043706 1.278436 0.057448
-0.060852 1.159964 0.057845
0.000442 0.829120 -0.110815
-0.041231 0.871313 -0.179556
-0.067573 0.736843 -0.255002
-0.116976 0.885441 -0.202838
-0.163545 0.772089 -0.030271
-0.183849 0.871388 -0.159036
-0.123495 1.230741 -0.018648
-0.113766 1.178185 0.049340
-0.128876 1.256827 -0.084076
-0.117051 1.230039 -0.082769
-0.027188 1.175994 0.018440
-0.056530 1.151226 -0.112290
-0.078583 1.248659 -0.099418
-0.039804 1.235715 -0.088495
-0.061135 1.154525 0.032606
-0.103830 1.169854 0.025650
-0.014491 1.216058 -0.033677
-0.126356 1.024799 -0.181952
-0.140794 1.151222 -0.101700
-0.101380 1.164675 -0.126000
-0.060705 1.005184 -0.163275
-0.031686 1.124888 -0.052838
-0.013684 1.287197 0.038299
0.026970 1.433457 -0.007659
-0.002099 1.470146 -0.038922
0.047667 1.437023 -0.030450
0.065950 1.399064 0.012610
0.038829 1.410304 0.018895
-0.054636 1.355045 -0.065089
-0.035904 1.459455 0.006631
-0.003420 1.454435 -0.013098
-0.050364 1.446814 0.039526
-0.058418 1.420347 0.089332
-0.078140 1.458815 0.046180
-0.054619 1.479314 -0.007218
0.043040 1.378150 0.065088
0.024157 1.397173 0.051207
-0.007112 1.402697 0.071218
-0.038210 1.423120 0.066099
-0.160775 -0.057713 0.002758
-0.135318 -0.011580 0.121385
0.102746 0.137125 0.000654
0.137580 -0.057038 0.045213
0.112604 -0.043673 -0.101689
0.019022 0.090133 -0.151364
0.016000 -0.042390 -0.169163
-0.096002 -0.045669 -0.129719
-0.117900 0.155980 -0.055371
-0.067616 0.110447 -0.128903
0.088929 0.109767 -0.094750
-0.032216 0.224121 -0.138729
-0.091034 0.881523 -0.009796
-0.171923 0.937081 -0.078875
-0.044968 0.896133 -0.036854
-0.033755 0.938408 -0.099335
-0.063228 0.969427 -0.160172
-0.115437 0.982131 -0.174295
-0.160788 0.967464 -0.144858
-0.183455 1.003755 -0.144668
-0.142762 0.895204 -0.023115
-0.081361 1.278642 -0.104464
-0.088784 1.346654 -0.046801
-0.019759 1.342291 -0.052940
0.085590 1.426572 0.030114
0.055596 1.456689 0.086981
0.061588 1.404661 0.085093
-0.008045 1.386812 0.096885
0.028935 1.511026 0.025549
-0.002085 1.516441 0.044274
0.069128 1.469042 0.055985
0.014297 1.501042 -0.023874
0.058329 1.491462 0.030552
0.066436 1.466340 -0.014998
-0.040726 1.510648 0.009342
-0.015978 1.504333 0.075813
0.008067 1.413736 0.118406
-0.004329 1.481613 0.101300
-0.044706 1.448870 0.110493
0.025423 1.461806 0.105762
-0.065369 1.489171 0.065284
-0.056285 0.576383 0.005619
3 0 1 2
3 3 4 5
3 6 7 8
3 9 0 2
3 10 8 11
3 10 12 6
3 13 14 0
3 15 13 0
3 7 3 8
3 2 16 12
3 12 17 6
3 18 19 20
3 18 21 22
3 23 20 13
3 3 24 25
3 20 26 13
3 11 3 25
3 18 27 28
3 22 27 18
3 29 24 5
3 4 29 5
3 30 2 12
3 31 32 33
3 34 35 36
3 37 38 39
3 40 39 41
3 40 42 37
3 43 44 45
3 46 44 43
3 43 47 48
3 38 34 39
3 33 49 42
3 42 50 37
3 41 34 51
3 43 52 46
3 34 53 51
3 54 31 33
3 48 55 31
3 56 48 31
3 57 53 36
3 35 57 36
3 58 33 42
3 59 60 61
3 62 63 64
3 65 66 67
3 68 69 70
3 71 61 72
3 73 74 69
3 66 75 67
3 76 77 71
3 67 78 76
3 79 80 59
3 60 62 64
3 69 81 70
3 76 72 82
3 71 79 59
3 69 83 66
3 62 84 85
3 86 62 85
3 73 68 87
3 88 73 87
3 89 90 91
3 89 92 63
3 82 67 76
3 93 94 95
3 96 97 98
3 99 100 101
3 102 94 103
3 104 105 106
3 105 107 108
3 109 110 94
3 103 110 111
3 96 100 104
3 95 112 93
3 101 107 99
3 113 114 115
3 116 113 117
3 111 118 116
3 119 96 120
3 118 121 114
3 106 96 104
3 113 115 122
3 117 113 122
3 119 123 124
3 97 123 125
3 108 95 102
3 126 127 128
3 129 130 131
3 132 133 134
3 135 126 128
3 136 132 134
3 137 138 132
3 139 140 126
3 141 139 126
3 133 129 134
3 128 142 138
3 138 143 132
3 144 145 146
3 144 147 148
3 149 146 139
3 129 150 151
3 146 152 139
3 136 129 151
3 144 153 154
3 148 153 144
3 131 155 150
3 156 131 130
3 157 128 138
3 158 159 160
3 161 162 163
3 164 165 166
3 167 168 169
3 165 170 171
3 172 171 170
3 164 160 159
3 173 169 172
3 169 174 172
3 168 175 169
3 176 177 168
3 177 178 168
3 179 180 181
3 182 181 183
3 163 164 184
3 172 161 173
3 179 185 177
3 183 186 182
3 182 186 187
3 159 184 164
3 182 188 179
3 189 190 191
3 192 193 194
3 195 196 197
3 198 199 200
3 201 191 202
3 203 204 199
3 196 205 197
3 206 207 201
3 197 208 206
3 209 210 189
3 190 192 194
3 199 211 200
3 206 202 212
3 201 209 189
3 199 213 196
3 192 214 215
3 216 192 215
3 203 198 217
3 218 203 217
3 216 219 220
3 220 221 193
3 212 197 206
3 0 14 1
3 3 222 4
3 6 17 7
3 9 15 0
3 10 6 8
3 10 30 12
3 13 26 14
3 15 23 13
3 7 222 3
3 2 1 16
3 12 16 17
3 18 28 19
3 18 20 21
3 23 21 20
3 3 5 24
3 20 19 26
3 11 8 3
3 29 223 24
3 4 224 29
3 30 9 2
3 31 55 32
3 34 225 35
3 37 50 38
3 40 37 39
3 40 58 42
3 43 45 47
3 38 225 34
3 33 32 49
3 42 49 50
3 41 39 34
3 43 48 52
3 34 36 53
3 54 56 31
3 48 47 55
3 56 52 48
3 57 226 53
3 35 227 57
3 58 54 33
3 59 80 60
3 62 89 63
3 65 81 66
3 68 73 69
3 71 59 61
3 73 88 74
3 66 83 75
3 76 78 77
3 67 75 78
3 79 84 80
3 60 80 62
3 69 66 81
3 76 71 72
3 71 77 79
3 69 74 83
3 62 80 84
3 86 89 62
3 89 86 90
3 89 91 92
3 82 65 67
3 93 109 94
3 96 124 97
3 99 104 100
3 102 95 94
3 104 99 105
3 105 99 107
3 109 121 110
3 103 94 110
3 96 98 100
3 95 107 112
3 101 112 107
3 113 118 114
3 116 118 113
3 111 110 118
3 119 124 96
3 118 110 121
3 106 120 96
3 119 228 123
3 97 124 123
3 108 107 95
3 126 140 127
3 129 229 130
3 132 143 133
3 135 141 126
3 136 137 132
3 137 157 138
3 139 152 140
3 141 149 139
3 133 229 129
3 128 127 142
3 138 142 143
3 144 154 145
3 144 146 147
3 149 147 146
3 129 131 150
3 146 145 152
3 136 134 129
3 131 230 155
3 156 230 131
3 157 135 128
3 158 231 159
3 161 170 162
3 164 162 165
3 167 176 168
3 165 162 170
3 172 174 171
3 164 166 160
3 173 167 169
3 169 175 174
3 168 178 175
3 176 180 177
3 177 185 178
3 179 177 180
3 182 179 181
3 163 162 164
3 172 170 161
3 179 188 185
3 182 187 188
3 189 210 190
3 192 220 193
3 195 211 196
3 198 203 199
3 201 189 191
3 203 218 204
3 196 213 205
3 206 208 207
3 197 205 208
3 209 214 210
3 190 210 192
3 199 196 211
3 206 201 202
3 201 207 209
3 199 204 213
3 192 210 214
3 216 220 192
3 216 232 219
3 220 219 221
3 212 195 197
3 233 234 235
3 236 237 238
3 239 235 234
3 237 240 238
3 241 242 243
3 242 244 245
3 239 243 246
3 247 240 248
3 249 237 250
3 251 252 253
3 254 247 248
3 255 256 257
3 258 259 247
3 253 260 261
3 262 246 251
3 263 260 259
3 264 265 266
3 263 267 268
3 261 269 253
3 251 256 262
3 261 268 270
3 265 271 266
3 258 265 267
3 272 266 273
3 274 241 275
3 246 242 252
3 245 276 236
3 252 245 260
3 260 236 259
3 259 238 247
3 275 243 234
3 277 240 235
3 278 279 280
3 281 279 282
3 283 284 281
3 285 286 283
3 287 288 289
3 290 291 292
3 293 294 295
3 250 276 296
3 297 298 299
3 300 275 233
3 296 244 297
3 299 241 301
3 302 303 287
3 302 304 305
3 306 292 293
3 307 308 309
3 279 310 311
3 309 292 312
3 313 314 315
3 303 294 288
3 313 307 316
3 310 293 295
3 316 317 285
3 292 318 293
3 319 320 321
3 319 322 323
3 324 325 326
3 327 328 329
3 327 330 325
3 323 331 332
3 326 330 320
3 288 333 334
3 271 335 336
3 337 272 338
3 339 337 338
3 340 339 341
3 342 340 341
3 343 342 335
3 339 338 342
3 268 264 337
3 344 269 340
3 270 337 345
3 343 346 344
3 254 257 265
3 262 277 239
3 269 345 340
3 257 343 271
3 347 283 281
3 348 282 278
3 349 285 283
3 349 296 350
3 351 285 350
3 352 316 351
3 353 313 352
3 353 278 354
3 348 301 274
3 351 299 352
3 347 250 349
3 353 299 301
3 350 297 351
3 354 280 314
3 355 274 300
3 356 357 324
3 315 305 308
3 290 324 358
3 317 306 286
3 314 302 305
3 307 312 317
3 286 310 284
3 280 311 302
3 359 360 361
3 333 331 362
3 291 332 318
3 358 326 319
3 357 327 325
3 289 334 327
3 318 333 294
3 358 323 291
3 363 364 365
3 366 367 368
3 369 370 364
3 371 372 373
3 361 374 371
3 359 367 365
3 369 363 366
3 375 372 370
3 329 373 375
3 320 369 366
3 321 359 322
3 362 361 371
3 328 371 373
3 329 369 330
3 321 366 368
3 322 361 331
3 347 300 249
3 355 281 282
3 249 233 376
3 376 235 240
3 255 248 277
3 253 346 251
3 266 336 273
3 287 357 304
3 311 295 303
3 334 362 328
3 308 290 309
3 304 308 305
3 233 275 234
3 236 276 237
3 239 277 235
3 237 376 240
3 241 298 242
3 242 298 244
3 239 234 243
3 247 238 240
3 249 376 237
3 251 246 252
3 254 258 247
3 255 262 256
3 258 263 259
3 253 252 260
3 262 239 246
3 263 261 260
3 264 267 265
3 263 258 267
3 261 270 269
3 251 346 256
3 261 263 268
3 265 257 271
3 258 254 265
3 272 264 266
3 274 301 241
3 246 243 242
3 245 244 276
3 252 242 245
3 260 245 236
3 259 236 238
3 275 241 243
3 277 248 240
3 278 282 279
3 281 284 279
3 283 286 284
3 285 317 286
3 287 303 288
3 290 358 291
3 293 318 294
3 250 237 276
3 297 244 298
3 300 274 275
3 296 276 244
3 299 298 241
3 302 311 303
3 302 287 304
3 306 312 292
3 307 315 308
3 279 284 310
3 309 290 292
3 313 354 314
3 303 295 294
3 313 315 307
3 310 306 293
3 316 307 317
3 292 291 318
3 319 326 320
3 319 321 322
3 324 357 325
3 327 334 328
3 327 329 330
3 323 322 331
3 326 325 330
3 288 294 333
3 271 343 335
3 337 264 272
3 339 345 337
3 340 345 339
3 342 344 340
3 343 344 342
3 272 273 336
3 336 335 272
3 335 342 338
3 272 335 338
3 342 341 339
3 268 267 264
3 344 346 269
3 270 268 337
3 343 256 346
3 254 255 257
3 262 255 277
3 269 270 345
3 257 256 343
3 347 349 283
3 348 355 282
3 349 350 285
3 349 250 296
3 351 316 285
3 352 313 316
3 353 354 313
3 353 348 278
3 348 353 301
3 351 297 299
3 347 249 250
3 353 352 299
3 350 296 297
3 354 278 280
3 355 348 274
3 356 304 357
3 315 314 305
3 290 356 324
3 317 312 306
3 314 280 302
3 307 309 312
3 286 306 310
3 280 279 311
3 359 365 360
3 333 332 331
3 291 323 332
3 358 324 326
3 357 289 327
3 289 288 334
3 318 332 333
3 358 319 323
3 370 372 364
3 372 374 364
3 374 360 364
3 360 365 364
3 365 367 363
3 366 363 367
3 369 375 370
3 371 374 372
3 361 360 374
3 359 368 367
3 369 364 363
3 375 373 372
3 329 328 373
3 320 330 369
3 321 368 359
3 362 331 361
3 328 362 371
3 329 375 369
3 321 320 366
3 322 359 361
3 347 355 300
3 355 347 281
3 249 300 233
3 376 233 235
3 255 254 248
3 253 269 346
3 266 271 336
3 287 289 357
3 311 310 295
3 334 333 362
3 308 356 290
3 304 356 308
